<?xml version="1.0" encoding="UTF-8" standalone="no"?>
<!-- Created with Inkscape (http://www.inkscape.org/) -->

<svg
   width="210mm"
   height="297mm"
   viewBox="0 0 210 297"
   version="1.1"
   id="svg1"
   inkscape:version="1.3.2 (091e20e, 2023-11-25, custom)"
   sodipodi:docname="jewellery.svg"
   inkscape:export-filename="jewellery.png"
   inkscape:export-xdpi="96"
   inkscape:export-ydpi="96"
   xmlns:inkscape="http://www.inkscape.org/namespaces/inkscape"
   xmlns:sodipodi="http://sodipodi.sourceforge.net/DTD/sodipodi-0.dtd"
   xmlns="http://www.w3.org/2000/svg"
   xmlns:svg="http://www.w3.org/2000/svg">
  <sodipodi:namedview
     id="namedview1"
     pagecolor="#ffffff"
     bordercolor="#666666"
     borderopacity="1.0"
     inkscape:showpageshadow="2"
     inkscape:pageopacity="0.0"
     inkscape:pagecheckerboard="0"
     inkscape:deskcolor="#d1d1d1"
     inkscape:document-units="mm"
     inkscape:zoom="1"
     inkscape:cx="175.5"
     inkscape:cy="400.5"
     inkscape:window-width="3840"
     inkscape:window-height="2089"
     inkscape:window-x="1912"
     inkscape:window-y="-8"
     inkscape:window-maximized="1"
     inkscape:current-layer="layer1" />
  <defs
     id="defs1">
    <inkscape:path-effect
       effect="copy_rotate"
       starting_point="0,0"
       origin="50,76.085747"
       id="path-effect87"
       is_visible="true"
       lpeversion="1.2"
       lpesatellites=""
       method="normal"
       num_copies="27"
       starting_angle="0"
       rotation_angle="13.333333"
       gap="-0.01"
       copies_to_360="true"
       mirror_copies="false"
       split_items="false"
       link_styles="false" />
    <inkscape:path-effect
       effect="copy_rotate"
       starting_point="0,0"
       origin="88.6,131.82866"
       id="path-effect15"
       is_visible="true"
       lpeversion="1.2"
       lpesatellites=""
       method="normal"
       num_copies="21"
       starting_angle="0"
       rotation_angle="17.142857"
       gap="0.1"
       copies_to_360="true"
       mirror_copies="false"
       split_items="false"
       link_styles="false" />
    <inkscape:path-effect
       effect="copy_rotate"
       starting_point="0,0"
       origin="80,220"
       id="path-effect3"
       is_visible="true"
       lpeversion="1.2"
       lpesatellites=""
       method="normal"
       num_copies="12"
       starting_angle="6.6"
       rotation_angle="34.1"
       gap="0.05"
       copies_to_360="true"
       mirror_copies="false"
       split_items="false"
       link_styles="false" />
    <inkscape:path-effect
       effect="skeletal"
       id="path-effect2"
       is_visible="true"
       lpeversion="1"
       pattern="#path1"
       copytype="repeated_stretched"
       prop_scale="0.83"
       scale_y_rel="false"
       spacing="-10"
       normal_offset="0"
       tang_offset="0"
       prop_units="false"
       vertical_pattern="false"
       hide_knot="false"
       fuse_tolerance="0" />
    <inkscape:path-effect
       effect="copy_rotate"
       starting_point="0,0"
       origin="80,220"
       id="path-effect3-6"
       is_visible="true"
       lpeversion="1.2"
       lpesatellites=""
       method="normal"
       num_copies="12"
       starting_angle="10.8"
       rotation_angle="30"
       gap="0.05"
       copies_to_360="true"
       mirror_copies="false"
       split_items="false"
       link_styles="false" />
    <inkscape:path-effect
       effect="copy_rotate"
       starting_point="0,0"
       origin="50,76.085747"
       id="path-effect87-8"
       is_visible="true"
       lpeversion="1.2"
       lpesatellites=""
       method="normal"
       num_copies="27"
       starting_angle="0"
       rotation_angle="13.333333"
       gap="-0.01"
       copies_to_360="true"
       mirror_copies="false"
       split_items="false"
       link_styles="false" />
  </defs>
  <g
     inkscape:label="Layer 1"
     inkscape:groupmode="layer"
     id="layer1">
    <circle
       style="fill:none;stroke:#d1d100;stroke-width:3;stroke-dasharray:none;stroke-opacity:0.989542"
       id="path1"
       cx="34.386139"
       cy="182.22246"
       r="20.829502"
       transform="translate(29.848903,29.326113)" />
    <circle
       style="fill:none;stroke:#ffff3f;stroke-width:3;stroke-dasharray:none;stroke-opacity:0.989542"
       id="path1-3"
       cx="62.120365"
       cy="212.74075"
       r="20.829502"
       transform="rotate(-1.3027039)" />
    <path
       style="fill:#ffff00;fill-opacity:1;stroke:none;stroke-width:3.766;stroke-dasharray:none;stroke-opacity:1"
       id="path87"
       inkscape:path-effect="#path-effect87"
       sodipodi:type="arc"
       sodipodi:cx="77.179382"
       sodipodi:cy="76.085747"
       sodipodi:rx="3.5933719"
       sodipodi:ry="3.5933719"
       d="m 80.772754,76.085747 c 0,1.984564 -1.608807,3.593372 -3.593372,3.593372 -1.984564,0 -3.593372,-1.608808 -3.593372,-3.593372 0,-1.984565 1.608808,-3.593372 3.593372,-3.593372 1.984565,0 3.593372,1.608807 3.593372,3.593372 z m -0.829483,-7.096686 c 0.457672,1.931071 -0.736754,3.867529 -2.667824,4.325201 -1.93107,0.457672 -3.867528,-0.736753 -4.325201,-2.667824 -0.457672,-1.93107 0.736754,-3.867528 2.667824,-4.3252 1.93107,-0.457672 3.867529,0.736753 4.325201,2.667823 z M 77.499537,62.27496 c 0.890671,1.773472 0.17502,3.933186 -1.598452,4.823857 -1.773471,0.890671 -3.933185,0.175019 -4.823856,-1.598452 -0.890671,-1.773472 -0.17502,-3.933186 1.598452,-4.823857 1.773471,-0.890671 3.933186,-0.17502 4.823856,1.598452 z m -3.92624,-5.969558 c 1.275654,1.520264 1.077357,3.786804 -0.442907,5.062457 -1.520265,1.275654 -3.786804,1.077357 -5.062458,-0.442907 -1.275653,-1.520265 -1.077357,-3.786804 0.442908,-5.062458 1.520264,-1.275653 3.786804,-1.077357 5.062457,0.442908 z m -5.197083,-4.903195 c 1.591866,1.1851 1.921614,3.436275 0.736514,5.02814 -1.185099,1.591865 -3.436274,1.921614 -5.028139,0.736514 -1.591866,-1.1851 -1.921614,-3.436275 -0.736514,-5.02814 1.185099,-1.591865 3.436274,-1.921614 5.028139,-0.736514 z m -6.187749,-3.572499 c 1.822259,0.786046 2.662276,2.900495 1.87623,4.722754 -0.786046,1.822259 -2.900495,2.662276 -4.722754,1.87623 -1.822259,-0.786046 -2.662276,-2.900495 -1.87623,-4.722754 0.786046,-1.822259 2.900495,-2.662275 4.722754,-1.87623 z M 55.343632,45.7805 c 1.954415,0.344616 3.259414,2.208349 2.914798,4.162763 -0.344616,1.954414 -2.208348,3.259414 -4.162762,2.914798 -1.954415,-0.344616 -3.259415,-2.208348 -2.914798,-4.162763 0.344616,-1.954414 2.208348,-3.259414 4.162762,-2.914798 z m -7.132909,-0.415445 c 1.981207,-0.115392 3.680837,1.39715 3.796229,3.378357 0.115392,1.981207 -1.39715,3.680836 -3.378357,3.796228 -1.981207,0.115393 -3.680836,-1.397149 -3.796228,-3.378356 -0.115392,-1.981207 1.397149,-3.680836 3.378356,-3.796229 z m -7.036449,1.240716 c 1.901192,-0.569179 3.903824,0.51063 4.473004,2.411822 0.569179,1.901192 -0.51063,3.903824 -2.411822,4.473003 -1.901192,0.56918 -3.903824,-0.51063 -4.473004,-2.411821 -0.569179,-1.901192 0.51063,-3.903824 2.411822,-4.473004 z m -6.560651,2.829989 c 1.718683,-0.992282 3.916355,-0.403418 4.908637,1.315266 0.992282,1.718683 0.403418,3.916355 -1.315265,4.908637 -1.718684,0.992282 -3.916355,0.403418 -4.908638,-1.315266 -0.992282,-1.718683 -0.403418,-3.916355 1.315266,-4.908637 z m -5.731168,4.266697 c 1.443519,-1.361891 3.717754,-1.295717 5.079645,0.147802 1.361891,1.44352 1.295717,3.717755 -0.147803,5.079646 -1.44352,1.361891 -3.717754,1.295717 -5.079645,-0.147803 -1.361891,-1.44352 -1.295717,-3.717754 0.147803,-5.079645 z m -4.592716,5.473385 c 1.090536,-1.658079 3.318729,-2.118164 4.976808,-1.027628 1.65808,1.090536 2.118165,3.318729 1.027629,4.976809 -1.090536,1.658079 -3.318729,2.118164 -4.976809,1.027628 -1.658079,-1.090536 -2.118164,-3.318729 -1.027628,-4.976809 z m -3.206669,6.385003 c 0.678761,-1.86488 2.74079,-2.82642 4.60567,-2.147659 1.864881,0.678761 2.826421,2.74079 2.14766,4.605671 -0.678761,1.86488 -2.74079,2.82642 -4.605671,2.147659 -1.86488,-0.678761 -2.82642,-2.74079 -2.147659,-4.605671 z m -1.64775,6.952404 c 0.230394,-1.971146 2.015094,-3.382304 3.98624,-3.15191 1.971145,0.230394 3.382304,2.015094 3.15191,3.98624 -0.230394,1.971145 -2.015095,3.382303 -3.98624,3.151909 -1.971146,-0.230394 -3.382304,-2.015094 -3.15191,-3.986239 z m 0,7.144997 c -0.230394,-1.971146 1.180764,-3.755846 3.15191,-3.98624 1.971146,-0.230394 3.755846,1.180764 3.98624,3.15191 0.230394,1.971145 -1.180764,3.755846 -3.15191,3.98624 -1.971146,0.230394 -3.755846,-1.180764 -3.98624,-3.15191 z m 1.64775,6.952403 c -0.678761,-1.864881 0.282779,-3.92691 2.14766,-4.605671 1.86488,-0.678761 3.926909,0.282779 4.60567,2.14766 0.678761,1.86488 -0.282779,3.926909 -2.147659,4.60567 -1.864881,0.678762 -3.92691,-0.282778 -4.605671,-2.147659 z m 3.206669,6.385003 c -1.090536,-1.65808 -0.630451,-3.886273 1.027628,-4.976809 1.65808,-1.090536 3.886273,-0.630451 4.976809,1.027629 1.090536,1.658079 0.630451,3.886272 -1.027628,4.976808 -1.65808,1.090536 -3.886273,0.630451 -4.976809,-1.027628 z m 4.592716,5.473385 c -1.44352,-1.36189 -1.509693,-3.636125 -0.147803,-5.079645 1.361891,-1.44352 3.636126,-1.509693 5.079646,-0.147803 1.44352,1.361891 1.509693,3.636126 0.147802,5.079646 -1.36189,1.44352 -3.636125,1.509693 -5.079645,0.147802 z m 5.731168,4.266693 c -1.718683,-0.99228 -2.307548,-3.18995 -1.315265,-4.908633 0.992282,-1.718684 3.189954,-2.307548 4.908637,-1.315266 1.718683,0.992283 2.307548,3.189954 1.315265,4.908639 -0.992282,1.71868 -3.189954,2.30755 -4.908637,1.31526 z m 6.560652,2.82999 c -1.901192,-0.56918 -2.981002,-2.57181 -2.411822,-4.473 0.569179,-1.901192 2.571811,-2.981002 4.473003,-2.411822 1.901192,0.569179 2.981002,2.571812 2.411822,4.473002 -0.569179,1.90119 -2.571811,2.981 -4.473003,2.41182 z m 7.036449,1.24072 c -1.981207,-0.11539 -3.493749,-1.81502 -3.378357,-3.79623 0.115392,-1.98121 1.815022,-3.493748 3.796229,-3.378356 1.981207,0.115392 3.493748,1.815026 3.378356,3.796226 -0.115392,1.98121 -1.815021,3.49375 -3.796228,3.37836 z m 7.132909,-0.41545 c -1.954415,0.34462 -3.818147,-0.96038 -4.162763,-2.91479 -0.344616,-1.95442 0.960383,-3.818151 2.914798,-4.162767 1.954414,-0.344616 3.818147,0.960387 4.162763,2.914797 0.344616,1.95442 -0.960384,3.81815 -2.914798,4.16276 z m 6.844832,-2.0492 c -1.822259,0.78604 -3.936707,-0.054 -4.722753,-1.87623 -0.786046,-1.82226 0.05397,-3.936713 1.87623,-4.722758 1.822259,-0.786046 3.936708,0.05397 4.722754,1.87623 0.786045,1.822258 -0.05397,3.936708 -1.876231,4.722758 z m 6.18775,-3.5725 c -1.591865,1.1851 -3.84304,0.85535 -5.02814,-0.73652 -1.1851,-1.591863 -0.855351,-3.843037 0.736514,-5.028137 1.591865,-1.1851 3.84304,-0.855351 5.02814,0.736514 1.1851,1.591865 0.855351,3.84304 -0.736514,5.028143 z m 5.197082,-4.903198 c -1.275653,1.520265 -3.542192,1.718561 -5.062457,0.442908 -1.520265,-1.275654 -1.718561,-3.542193 -0.442908,-5.062458 1.275654,-1.520264 3.542193,-1.718561 5.062458,-0.442908 1.520264,1.275654 1.718561,3.542193 0.442907,5.062458 z m 3.926241,-5.969558 c -0.890671,1.773471 -3.050385,2.489123 -4.823857,1.598452 -1.773472,-0.890671 -2.489123,-3.050385 -1.598452,-4.823857 0.890671,-1.773472 3.050385,-2.489123 4.823857,-1.598452 1.773471,0.890671 2.489123,3.050385 1.598452,4.823857 z m 2.443733,-6.714102 c -0.457672,1.931071 -2.394131,3.125496 -4.325201,2.667824 -1.93107,-0.457672 -3.125496,-2.394131 -2.667823,-4.325201 0.457672,-1.93107 2.39413,-3.125495 4.3252,-2.667823 1.93107,0.457672 3.125496,2.39413 2.667824,4.3252 z"
       transform="matrix(1.7653585,0,0,1.7653585,15.555002,-24.141913)" />
    <path
       d="m 144.52855,243.84561 -13.61984,-48.53088 -14.39861,0.002 z"
       style="fill:#d4d4ff;fill-opacity:1;stroke-width:3.766"
       id="path111" />
    <path
       d="m 158.14838,195.31473 h -5.1e-4 l -13.61932,48.53088 28.01895,-48.53088 z"
       style="fill:#e8e8ff;stroke-width:3.766"
       id="path110" />
    <path
       d="m 161.24794,184.26734 -3.10007,11.04739 h 5.1e-4 c 1.18623,-4.22908 3.02296,-10.83839 3.09956,-11.04739 z"
       style="fill:#e8e8ff;stroke-width:3.766"
       id="path109" />
    <path
       d="m 127.80864,184.26734 c 0.59842,2.1746 2.07068,7.46795 2.8205,10.05107 z"
       style="fill:#e8e8ff;stroke-width:3.766"
       id="path97" />
    <path
       d="m 158.00266,195.31473 h 0.14521 l 3.10007,-11.04739 h -16.71939 z"
       style="fill:#dedeff;fill-opacity:1;stroke-width:3.766"
       id="path107" />
    <path
       d="m 130.91284,195.31473 h -0.004 l 13.61981,48.53088 13.61932,-48.53088 h -0.14521 l 0.11523,0.0946 -23.8373,-0.0832 c 2.46561,0.0246 5.85635,0.0496 10.22574,0.0682 7.42347,0.0316 13.50867,0.0687 13.52268,0.0827 0.0264,0.0263 -0.28023,1.14571 -1.62729,5.93762 -0.76977,2.73829 -1.3377,4.76011 -3.76101,13.39712 -0.64492,2.29858 -1.48787,5.3038 -1.87378,6.67866 -0.38592,1.37485 -1.06708,3.80069 -1.51309,5.39037 -0.44602,1.58967 -1.44752,5.15752 -2.2257,7.92871 -0.77819,2.77119 -1.64701,5.87324 -1.93115,6.89364 -0.28415,1.0204 -0.53834,1.85518 -0.56483,1.85518 -0.0265,0 -2.24056,-7.81242 -4.92011,-17.36121 -2.67955,-9.54879 -6.39706,-22.79228 -8.26099,-29.43025 -0.22034,-0.78467 -0.19484,-0.70557 -0.40411,-1.45211 z"
       style="fill:#bcbcff;stroke-width:3.766"
       id="path100" />
    <path
       d="m 130.62914,194.31841 0.27957,0.99632 h 0.004 c -0.0576,-0.19307 -0.20769,-0.73444 -0.28371,-0.99632 z"
       style="fill:#bcbcff;stroke-width:3.766"
       id="path99" />
    <path
       d="m 127.80864,184.26734 2.8205,10.05107 c 0.076,0.26188 0.22605,0.80325 0.2837,0.99632 h 0.0341 c -1.56108,-5.56887 -3.00049,-10.72771 -3.01532,-10.8319 l -0.031,-0.21497 h 8.28114 8.28064 l -0.22118,0.185 c -0.12144,0.10172 -3.13847,2.5661 -6.7045,5.47615 -3.56603,2.91005 -6.49339,5.31735 -6.50555,5.34954 -1e-5,4e-5 0.009,-3e-5 0.009,0 l 13.48808,-11.01121 z"
       style="fill:#bcbcff;stroke-width:3.766"
       id="path96" />
    <path
       d="m 133.49925,195.31473 c 0.32889,0.004 0.36694,0.007 0.78134,0.0114 l 23.8373,0.0832 -0.11523,-0.0946 z"
       style="fill:#e8e8ff;stroke-width:0.264583px"
       id="path106" />
    <path
       d="m 133.49925,195.31473 h 24.50341 l -13.47411,-11.04739 -13.48807,11.01121 c 6.6e-4,0.01 1.4238,0.0235 2.45877,0.0362 z"
       style="fill:#9b9bff;fill-opacity:1;stroke-width:0.264583px"
       id="path105" />
    <path
       d="m 130.99656,195.31473 3.28403,0.0114 c -0.4144,-0.004 -0.45245,-0.007 -0.78134,-0.0114 z"
       style="fill:#bcbcff;stroke-width:4.20242"
       id="path104" />
    <path
       d="m 130.99656,195.31473 h 2.50269 c -1.03497,-0.0127 -2.45811,-0.0261 -2.45877,-0.0362 z"
       style="fill:#bcbcff;stroke-width:4.20242"
       id="path103" />
    <path
       d="m 130.94695,195.31473 c 0.20927,0.74654 0.18377,0.66744 0.40411,1.45211 1.86393,6.63796 5.58144,19.88145 8.26099,29.43024 2.67955,9.54879 4.89362,17.36121 4.92011,17.36121 0.0265,0 0.28068,-0.83478 0.56483,-1.85518 0.28414,-1.0204 1.15296,-4.12245 1.93115,-6.89364 0.77818,-2.77118 1.77968,-6.33903 2.2257,-7.92871 0.44601,-1.58967 1.12717,-4.01551 1.51309,-5.39037 0.38591,-1.37485 1.22886,-4.38007 1.87378,-6.67866 2.42331,-8.63701 2.99124,-10.65883 3.76101,-13.39712 1.34706,-4.7919 1.65367,-5.91129 1.62729,-5.93762 -0.014,-0.014 -6.09921,-0.0511 -13.52268,-0.0827 -4.36939,-0.0186 -7.76013,-0.0436 -10.22574,-0.0682 l -3.28403,-0.0114 z"
       style="fill:#afaffb;fill-opacity:1;stroke-width:4.20242"
       id="path102" />
    <path
       d="m 130.94695,195.31473 h 0.0496 l 0.0439,-0.0362 c -1e-5,-4e-5 -0.009,4e-5 -0.009,0 0.0122,-0.0322 2.93952,-2.43949 6.50554,-5.34955 3.56603,-2.91005 6.58306,-5.37443 6.7045,-5.47615 l 0.22118,-0.185 h -8.28063 -8.28115 l 0.031,0.21498 c 0.0148,0.10418 1.45424,5.26302 3.01532,10.83189 z"
       style="fill:#b1b1ff;fill-opacity:1;stroke-width:4.20242"
       id="path101" />
    <path
       d="m 116.5101,195.31628 14.39861,-0.002 h -14.39809 c -3.5e-4,3.3e-4 -6.9e-4,7e-4 -0.001,0.001 z"
       style="fill:#9a81ff;stroke-width:0.0557942;stroke-linejoin:round"
       id="path112" />
    <path
       d="m 127.80864,184.26734 c -3.71398,3.69225 -7.52439,7.41537 -11.29802,11.04739 h 14.39809 l -0.27957,-0.99632 c -0.74982,-2.58312 -2.22208,-7.87647 -2.8205,-10.05107 z"
       style="fill:#b5a2ff;fill-opacity:1;stroke-width:0.0557942;stroke-linejoin:round"
       id="path98" />
    <path
       d="m 161.24794,184.26734 c -0.0766,0.209 -1.91333,6.81831 -3.09956,11.04739 h 14.39912 l -0.26251,-0.262 c -3.48853,-3.40588 -11.03705,-10.78539 -11.03705,-10.78539 z"
       style="fill:#f1f1ff;fill-opacity:1;stroke-width:0.0148372;stroke-linejoin:round"
       id="path108" />
  </g>
</svg>
