<?xml version="1.0" encoding="UTF-8" standalone="no"?>
<!-- Created with Inkscape (http://www.inkscape.org/) -->

<svg
   width="90.673714mm"
   height="32.285835mm"
   viewBox="0 0 90.673714 32.285835"
   version="1.1"
   id="svg1"
   inkscape:version="1.3.2 (091e20e, 2023-11-25, custom)"
   sodipodi:docname="police_front.svg"
   xmlns:inkscape="http://www.inkscape.org/namespaces/inkscape"
   xmlns:sodipodi="http://sodipodi.sourceforge.net/DTD/sodipodi-0.dtd"
   xmlns="http://www.w3.org/2000/svg"
   xmlns:svg="http://www.w3.org/2000/svg">
  <sodipodi:namedview
     id="namedview1"
     pagecolor="#ffffff"
     bordercolor="#666666"
     borderopacity="1.0"
     inkscape:showpageshadow="2"
     inkscape:pageopacity="0.0"
     inkscape:pagecheckerboard="0"
     inkscape:deskcolor="#d1d1d1"
     inkscape:document-units="mm"
     inkscape:zoom="0.5"
     inkscape:cx="-52"
     inkscape:cy="737"
     inkscape:window-width="1480"
     inkscape:window-height="853"
     inkscape:window-x="1916"
     inkscape:window-y="2152"
     inkscape:window-maximized="1"
     inkscape:current-layer="layer26"
     showguides="false" />
  <defs
     id="defs1">
    <clipPath
       clipPathUnits="userSpaceOnUse"
       id="clipPath29">
      <path
         id="path30"
         style="fill:#ff0000;fill-opacity:1;fill-rule:nonzero;stroke:none;stroke-width:0.264583"
         d="M 88.419408,82.695211 V 111.60352 H 131.95267 V 82.695211 Z m 18.922362,18.073319 0.002,5.3e-4 c 0.32922,0.0148 0.18197,0.0121 0.44235,0.0119 0.28762,-0.0179 0.55812,0.0524 0.84388,0.0785 0.30119,0.0277 0.61104,0.0147 0.91363,0.0227 0.19559,0.0841 0.24222,0.0344 0.44701,0.0274 0.0484,-0.002 0.0963,0.0121 0.14469,0.014 0.55043,0.0234 -0.0476,-0.0197 0.38912,0.0139 l 0.2651,-0.006 c 0.056,0.006 0.11165,0.0164 0.16795,0.0165 0.0397,1e-4 0.0783,-0.012 0.11782,-0.016 0.11143,-0.0107 0.25262,0.021 0.36587,0.031 0.18167,-0.0268 0.353,0.057 0.53124,0.062 0.33189,0.009 0.0326,-0.0456 0.27957,-0.016 0.41471,0.0499 0.0933,0.0368 0.45682,0.0408 0.28101,-0.013 0.56646,-0.0319 0.84749,-0.006 0.40085,0.0382 0.032,0.0255 0.35398,0.0315 0.26197,0.0452 0.52842,0.0273 0.7922,0.0403 0.15716,0.008 0.31366,0.023 0.47077,0.031 0.44847,0.007 0.0993,-0.003 0.44907,0.016 0.0426,0.002 0.0861,-0.007 0.12764,0.003 0.36594,0.0886 0.16009,0.0601 0.44339,0.0863 0.39413,0.0475 0.7926,0.0177 1.18752,0.046 0.0891,0.006 0.17629,0.027 0.26459,0.0408 0.2354,0.043 0.47185,0.0827 0.7059,0.13281 0.051,0.011 0.0998,0.0392 0.15192,0.0372 0.016,-5.3e-4 -0.0251,-0.0247 -0.0253,-0.0408 -1e-4,-0.008 0.0168,-0.003 0.0248,-0.004 0.1292,0.0224 0.40499,0.0744 0.55915,0.0889 0.12342,0.0117 0.25077,0.004 0.37257,0.0341 0.29063,0.0721 0.0215,0.0405 0.2527,0.0594 0.0666,0.0108 0.2953,0.0518 0.38499,0.0558 0.0595,0.002 0.20364,-0.0136 0.27235,0.003 0.35816,0.0835 0.0367,0.0537 0.30953,0.0708 0.0447,0.004 0.0434,0.002 0.0501,0.002 -0.0117,0.003 0.0269,0.0188 0.38914,0.0925 0.0696,0.0142 0.14254,0.011 0.21134,0.0289 0.48849,0.1274 0.008,0.0557 0.33849,0.0982 0.10936,-0.0126 0.13956,0.0189 0.24288,0.0429 0.0254,0.006 0.0522,0.001 0.078,0.005 0.0356,0.005 0.29987,0.0523 0.37207,0.0651 0.0238,0.0271 0.0598,0.002 0.0863,0.0135 0.10379,0.0464 0.002,0.0289 0.006,0.0294 0.10705,0.0211 0.0614,0.021 0.14882,0.008 0.0959,0.0576 0.19654,0.002 0.29404,0.0145 0.0686,0.009 0.13501,0.0323 0.20309,0.0444 0.0745,0.0128 0.15348,0.016 0.22944,0.0217 0.0945,-0.004 0.19252,0.006 0.28423,0.004 0.27311,0.0632 0.13924,0.0367 0.37465,0.0775 0.0907,0.016 0.10839,0.0201 0.10439,0.0181 -0.1109,-0.0463 -0.16604,-0.0266 -0.092,-0.046 0.13981,0.0639 0.29806,0.009 0.44132,0.0455 0.0938,0.0241 0.1808,0.0685 0.2713,0.10284 0.0451,0.0171 0.095,0.0247 0.13539,0.0512 0.0308,0.0201 -0.0692,-0.0245 -0.10542,-0.0315 -0.0437,-0.008 -0.0885,-0.008 -0.13281,-0.0124 0.0434,0.003 -0.0856,0.003 -0.0646,0.007 0.16289,0.0328 0.32791,0.0556 0.49041,0.0904 0.053,0.0113 0.10822,0.0207 0.15503,0.0481 0.1229,0.12437 0.0576,0.0826 0.18552,0.14004 0.13146,0.0942 0.28458,0.14378 0.43614,0.19638 0.0987,0.0374 0.20653,0.0825 0.30334,0.13435 0.0313,0.0168 0.0586,0.0437 0.0925,0.0543 0.0305,0.01 -0.0534,-0.0343 -0.0806,-0.0512 0.0312,0.005 0.0622,0.007 0.093,0.0145 0.0135,0.003 0.0313,0.005 0.0398,0.0134 0.099,-10e-4 0.21074,-0.006 0.29455,0.0491 0.1772,0.034 0.34691,0.0964 0.51263,0.16537 0.0614,0.0363 0.0931,0.0623 0.12816,0.0847 0.0187,0.004 0.007,0.002 0.0553,0.0114 0.0738,0.0253 0.15511,0.0437 0.22169,0.0863 0.0559,0.0357 0.0547,0.0526 0.12816,0.0765 0.005,0.006 0.015,0.009 0.0243,0.0145 0.0118,-4e-5 0.006,2.5e-4 0.0284,0 0.0132,0.002 0.0271,0.002 0.0398,0.006 0.0538,0.0166 0.13499,0.048 0.2098,0.0765 0.0959,-6e-5 0.16824,0.026 0.29197,0.0997 -0.0487,-0.0178 -0.0753,-0.0241 0.0367,0.0217 0.002,2.1e-4 0.003,2.5e-4 0.004,5.3e-4 -0.002,-0.001 -0.003,-0.003 -0.005,-0.004 -0.009,-0.006 -0.016,-0.009 -0.0233,-0.0129 0.0174,0.007 0.0355,0.0142 0.0522,0.0217 -0.008,-0.002 -0.0164,-0.003 -0.0243,-0.005 0.0219,0.0147 0.0422,0.042 0.0661,0.0346 0.0108,-0.004 -0.0107,-0.0154 -0.0372,-0.0279 0.003,5.3e-4 0.006,7.9e-4 0.009,0.002 0.0657,0.0179 0.11445,0.0318 0.17415,0.0594 0.0225,0.0103 0.0444,0.022 0.0661,0.0336 0.0935,0.0139 0.15884,0.0425 0.28318,0.0858 0.0186,0.0177 0.03,0.0209 0.0486,0.0341 0.0707,0.007 0.1356,0.0206 0.20981,0.0522 0.0196,0.005 0.0509,0.0132 0.0708,0.0202 0.0521,-0.002 0.10915,-0.002 0.16847,0.0108 0.21507,-0.0133 0.44144,0.0619 0.57619,0.23203 l 0.009,0.006 c 0.0278,0.0242 0.0267,0.0283 0.016,0.0253 0.002,0.004 0.005,0.006 0.008,0.0104 0.0175,0.0272 -0.0377,-0.002 -0.0816,-0.0253 0.0324,0.0328 0.0653,0.0654 0.0997,0.0961 0.0163,0.0145 0.0423,0.0187 0.0532,0.0377 0.0443,0.0775 0.0707,0.16386 0.10697,0.24546 0.008,0.008 0.0164,0.0101 0.0351,0.0305 0.0169,0.0279 0.0187,0.0407 0.03,0.0615 0.059,-0.054 0.11702,-0.10949 0.17777,-0.16123 0.11025,0.0505 0.11403,0.0453 0.23047,0.15555 0.0333,0.0315 0.11137,0.0751 0.11783,0.108 0.0686,5.3e-4 0.13774,0.005 0.20619,0.003 0.009,0.0212 0.0201,0.0423 0.0289,0.0636 0.004,-2.6e-4 0.007,-0.001 0.0103,-0.002 0.0315,-0.003 0.0438,0.0334 0.0558,0.0698 0.004,0.001 0.006,0.002 0.0103,0.003 0.002,7.9e-4 0.0144,0.0326 0.0274,0.0677 0.002,-0.004 0.004,0.002 0.006,0.0176 0.01,0.026 0.0198,0.0543 0.0232,0.0636 0.033,0.0926 0.0706,0.18351 0.10801,0.27441 0.002,0.006 0.005,0.0117 0.007,0.0176 0.0236,2.6e-4 0.0354,0.0127 0.0527,0.0362 0.0239,0.0211 0.0372,0.0438 0.047,0.0734 0.007,0.002 0.009,0.0147 0.0129,0.0222 0.007,0.0115 0.009,0.0245 0.0119,0.0377 0.006,0.007 0.0102,0.0149 0.0139,0.0238 0.0123,-0.0174 0.0273,-0.0266 0.0574,-0.0274 0.0106,-2.6e-4 0.0198,0.009 0.03,0.0119 0.001,0 -0.003,-0.005 -0.002,-0.004 0.008,0.006 0.0147,0.0129 0.0217,0.0202 0.007,0.012 0.0136,0.0243 0.0207,0.0367 0.0129,0.0236 0.0146,0.0511 0.0165,0.0775 0.001,0.004 0.004,0.0195 0.005,0.0444 0.002,0.0152 5.3e-4,0.031 0.004,0.046 0.003,0.0149 0.002,0.03 0.003,0.045 7e-5,0.002 -1.1e-4,0.004 5.3e-4,0.006 0,10e-4 0.002,10e-4 0.002,0.002 0.004,0.005 0.003,0.0131 0.004,0.0191 0.003,0.0181 -0.002,0.004 0.002,0.015 0.003,0.0103 0.002,0.0211 0.002,0.0315 7.9e-4,0.003 0.001,0.004 0.007,0.0227 0.004,0.012 0.005,0.0242 0.006,0.0367 2.6e-4,0.002 -0.001,-0.0119 -5.3e-4,-0.009 0.001,0.004 0.002,0.009 0.003,0.0134 0.003,0.0151 0.005,0.0303 0.005,0.0455 7.9e-4,0.002 0.003,0.0105 0.004,0.0134 0.001,0.005 0.004,0.0187 0.004,0.0217 8e-5,8e-4 -5e-5,10e-4 0,0.002 1.4e-4,2.6e-4 2.6e-4,7.9e-4 5.3e-4,0.001 0.002,0.005 0.004,0.0108 0.005,0.0155 0.004,0.0135 0.005,0.027 0.007,0.0408 l 5.3e-4,-5.3e-4 c 0.006,0.0127 0.002,0.0273 0.006,0.0403 1.9e-4,0.002 0.001,0.003 0.001,0.004 0,0.003 -2.2e-4,0.0118 5.2e-4,0.017 v 5.3e-4 c 2.7e-4,7.9e-4 8e-4,10e-4 0.001,0.002 1.8e-4,0.001 2.2e-4,0.003 5.3e-4,0.004 9e-5,8e-4 5.3e-4,10e-4 5.3e-4,0.002 2.6e-4,0.001 0.002,0.004 0.002,0.005 0,-0.002 0.002,0.002 0.002,0.003 0.009,0.0136 0.0136,0.0291 0.0186,0.0444 0.006,0.0188 0.0137,0.0377 0.0165,0.0574 8e-4,0.005 -0.004,0.0158 5.3e-4,0.016 0.005,2.2e-4 5.3e-4,-0.011 0.001,-0.016 -0.002,-0.011 -0.002,-0.007 0.01,0.0119 -2.6e-4,0.002 6e-5,0.004 5.3e-4,0.005 l 5.3e-4,-5.3e-4 c 0.001,-0.002 0.002,0.003 0.003,0.005 1.7e-4,7.9e-4 -0.002,-10e-4 -0.004,-0.004 l -0.001,-5.3e-4 c -0.008,0.0117 -0.0145,0.0238 -0.0217,0.0357 -0.0173,0.005 -0.0348,0.008 -0.0522,0.0114 0.006,0.0147 0.0212,0.0304 0.0124,0.0424 -0.0493,0.0696 -0.0943,0.17124 -0.1788,0.18293 -0.13754,0.019 -0.18218,-0.057 -0.21911,-0.13539 -0.10114,0.008 -0.19396,0.0266 -0.2651,0.0191 -0.0839,0.0617 -0.15657,0.0138 -0.27285,-0.0372 -0.0197,-0.009 -0.0286,-0.032 -0.0429,-0.0481 -0.004,-0.008 -0.008,-0.0152 -0.0114,-0.0227 -0.002,0.007 -0.004,0.0136 -0.007,0.0222 -0.0136,0.0351 -0.0219,0.0735 -0.0455,0.10284 -0.024,0.0297 -0.0543,0.0667 -0.0925,0.0677 -0.18737,0.005 -0.20091,-0.0259 -0.29301,-0.11368 -0.0405,-0.0607 -0.0995,-0.14338 -0.13384,-0.21188 -0.0301,-0.0602 -0.0572,-0.12163 -0.0848,-0.18293 -0.006,-0.0127 -0.0113,-0.0256 -0.017,-0.0382 -0.0131,0.0507 -0.0325,0.0932 -0.0703,0.14211 -0.0222,0.0288 -0.054,0.0491 -0.0811,0.0734 -0.0723,-6e-5 -0.14584,0.0122 -0.21704,-5.3e-4 -0.0694,-0.0124 -0.13483,-0.11679 -0.16744,-0.16019 -0.0639,-0.0852 -0.0683,-0.10498 -0.12815,-0.21808 -0.0186,-0.0351 -0.0365,-0.0706 -0.0548,-0.10594 -0.0647,-0.13364 -0.11615,-0.27114 -0.16175,-0.41134 5.3e-4,0.0418 0.003,0.0836 -0.009,0.12247 -0.0198,0.0604 -0.0815,0.0896 -0.14935,0.0987 -1.7e-4,0.0286 -2.5e-4,0.0572 -5.3e-4,0.0858 -0.003,0.17855 0.0303,0.44313 -0.3142,0.34933 -0.0588,-0.016 -0.0744,-0.12599 -0.0827,-0.20412 v -5.3e-4 c -0.001,-0.0132 -0.003,-0.0276 -0.004,-0.0382 0.002,-0.007 0.004,-0.0149 0.006,-0.0222 0.003,-0.0842 0.009,-0.2727 0.002,-0.0858 0.001,-0.26787 -0.002,-0.0425 0.017,-0.42685 0.002,-0.0469 0.003,-0.0941 0.004,-0.14109 -0.0619,-0.0203 -0.12217,-0.0383 -0.1881,-0.0734 -0.0144,-0.008 -0.0269,-0.0189 -0.0403,-0.0279 -0.005,-0.003 -0.0128,-0.006 -0.0196,-0.008 0.13638,0.0358 -0.0615,-0.004 -0.11679,-0.0263 -0.0223,-0.009 -0.0351,-0.0151 -0.0667,-0.0274 -0.0194,0.0181 -0.0741,0.008 -0.13798,-0.0145 0.0207,-0.005 0.0414,-0.009 0.062,-0.0134 -0.0338,-8e-4 -0.0675,-0.002 -0.10128,-0.003 v 5.3e-4 c 0.0147,0.007 0.0224,0.01 0.0362,0.015 -0.0198,0.004 -0.0395,0.009 -0.0594,0.0129 -0.005,8e-4 -0.0162,0.003 -0.0134,-5.3e-4 0.0207,-0.0271 0.0315,-0.0197 0.009,-0.0294 0.009,8e-5 0.0182,5.3e-4 0.0274,5.3e-4 -0.0654,-0.0271 -0.13402,-0.0591 -0.15297,-0.0708 -0.0145,-0.009 0.0307,0.0152 0.046,0.0232 0.061,0.042 0.0641,0.0407 0.0775,0.0465 -0.07,-5.3e-4 -0.14009,2.7e-4 -0.20981,-0.005 -0.0384,-0.003 -0.0737,-0.022 -0.11007,-0.0346 -0.013,-0.005 -0.0503,-0.0125 -0.0372,-0.0165 0.0112,-0.003 0.0891,0.0203 0.0336,0.009 -0.0465,-0.031 0.004,-10e-4 -0.10077,-0.0238 -0.10674,-0.023 -0.21294,-0.0563 -0.31626,-0.0879 -0.0291,-0.0143 -0.14847,-0.087 -0.20412,-0.0873 0.009,0.003 0.0127,0.004 0.0372,0.0181 0.0565,0.0157 -0.0801,-0.011 -0.0527,-0.0222 -0.0159,-0.005 -0.0299,-0.008 -0.1235,-0.0336 -0.20007,-0.0932 -0.20648,-0.10324 -0.25115,-0.12971 -0.0619,-0.0162 -0.13036,-0.034 -0.15865,-0.0367 0.004,-7.9e-4 0.0337,-0.002 0.0238,-0.002 -0.01,-2.4e-4 -0.0187,0.001 -0.0279,0.001 7.9e-4,2.7e-4 5.3e-4,2.7e-4 0.002,5.3e-4 -2.7e-4,1e-4 -0.002,-8e-5 -0.003,0 -5.3e-4,-1.8e-4 -10e-4,-5.3e-4 -0.002,-5.3e-4 v 5.3e-4 c -0.0109,0.002 -0.0323,3e-5 -0.0568,5.3e-4 0.0189,-5.3e-4 0.0379,-0.002 0.0568,-0.002 -5.3e-4,-2e-5 -0.003,-5.3e-4 -0.003,-5.3e-4 -0.0343,-0.001 -0.0693,-0.0124 -0.10284,-0.004 -0.0154,0.004 -0.009,0.005 -0.006,0.007 -2.7e-4,-1.2e-4 -0.002,1.2e-4 -0.002,0 -0.12069,0.005 -0.24172,0.0113 -0.35967,-0.0274 -0.12777,-0.0388 -0.25515,-0.0775 -0.38292,-0.11627 0.01,0.004 0.0333,0.0146 0.0403,0.0196 0.043,0.0318 -0.19225,-0.0761 -0.15555,-0.0372 -0.13062,-0.0455 -0.26065,-0.0924 -0.39067,-0.13901 h -5.3e-4 c 8e-4,2.7e-4 -0.002,2.2e-4 -0.002,5.3e-4 0.0614,0.0243 -0.41969,0.0184 -0.24649,0.0388 -0.27612,-0.0111 -0.20892,-5.3e-4 -0.47491,-0.063 0.0454,0.0145 0.0697,0.003 0.11834,0.0553 -0.21643,0.0324 -0.44431,0.0412 -0.66094,-0.005 0.008,0.006 0.0126,0.0128 0.005,0.0217 -0.0822,0.002 -0.0917,0.009 -0.11937,0.015 -0.0898,0.0295 -0.16634,0.0374 -0.38757,0.0553 -0.0253,-0.002 -0.0511,-0.004 -0.0765,-0.006 -0.0409,-0.004 -0.13976,-0.0512 -0.12196,-0.0139 0.005,0.0108 0.0186,0.0201 0.0165,0.032 -0.003,0.0159 -0.0713,-0.033 -0.0341,0.0341 -0.28248,0.0434 0.21614,-0.039 -0.19068,0.0589 -0.0491,0.0119 -0.10048,0.009 -0.15038,0.0165 -0.0774,0.0127 -0.15291,0.038 -0.231,0.046 -0.14723,0.0146 -0.29661,-0.0468 -0.44339,-0.0181 -0.19329,-0.0376 -0.38431,0.0364 -0.57722,-0.0279 -0.33876,-0.0436 0.13671,0.008 -0.37207,0.005 -0.0597,-2.6e-4 -0.11765,-0.0273 -0.17725,-0.0243 -0.0239,0.001 -0.0387,0.0317 -0.062,0.0367 -0.0748,0.0178 -0.15669,-0.029 -0.23049,-0.003 -0.32036,-0.0201 0.11326,-0.004 -0.3271,0.0289 -0.23619,0.0175 -0.4686,-0.0941 -0.70641,-0.0687 -0.4831,-0.0417 0.26058,0.0163 -0.43357,-0.007 -0.148,-0.005 -0.29011,-0.0913 -0.43616,-0.0853 -0.0265,10e-4 -0.0518,0.0131 -0.0775,0.0191 -0.0833,-0.001 -0.16691,0.005 -0.2496,-0.004 -0.35861,-0.0404 -0.69623,-0.15435 -1.05161,-0.20825 -0.80395,-0.12881 0.43974,0.0837 -0.3912,-0.10491 -0.0557,-0.013 -0.11425,-0.005 -0.17104,-0.0103 -0.23361,-0.0223 -0.46683,-0.0534 -0.69969,-0.0822 -0.32116,-0.0305 0.038,-0.0195 -0.20516,0.0315 -0.0385,0.008 -0.0785,-0.001 -0.11782,-0.002 -0.19685,-0.007 -0.39379,-0.018 -0.5886,-0.0486 -0.16316,-0.009 -0.32596,-0.002 -0.48937,0 -0.14762,0.002 -0.29527,-0.004 -0.44287,-0.001 -0.0799,0.002 -0.15946,0.009 -0.23926,0.0134 -0.40768,-0.008 0.11105,-0.003 -0.43151,0.0129 -0.24951,0.007 -0.50229,-0.0313 -0.75189,-0.0243 -0.76545,-0.009 0.45158,-7.9e-4 -0.58188,0.0217 -0.30478,0.007 -0.59854,-0.10171 -0.89864,-0.13901 -0.12162,-0.0106 -0.25581,-0.006 -0.37517,-0.0315 -0.048,-0.0101 -0.0934,-0.0308 -0.14161,-0.0398 -0.0479,-0.009 -0.0967,-0.009 -0.1452,-0.0145 -0.0731,-0.0169 -0.14599,-0.0338 -0.21911,-0.0506 -0.33909,-0.0262 -0.0108,0.003 -0.43459,-0.0517 -0.0444,-0.006 -0.0899,-10e-4 -0.13333,-0.0124 -0.0565,-0.0144 -0.10815,-0.0724 -0.16486,-0.0589 -0.0375,0.009 -0.0738,0.0231 -0.11058,0.0346 -0.30249,-0.008 -0.61147,-0.0407 -0.91364,-0.0295 -0.25953,0.01 -0.51414,0.0634 -0.77462,0.0429 -0.11644,-7.9e-4 -0.22529,0.025 -0.34158,0.0289 -0.1938,0.006 -0.38287,0.002 -0.57206,0.0605 -0.20772,2.6e-4 0.0432,-0.004 -0.26563,0.0191 -0.27824,0.0205 -0.55912,0.004 -0.83663,0.0408 -0.40984,-0.0107 0.0704,0.009 -0.71314,-0.0925 -0.11633,-0.0151 0.2321,0.0354 0.34624,0.0625 0.02,0.004 -0.0409,0.005 -0.0615,0.005 -0.12718,0.001 -0.25419,-0.009 -0.38137,-0.008 -0.2515,0.0147 -0.10069,0.008 -0.39119,0.0155 -0.0303,10e-4 -0.0607,-0.009 -0.091,-0.006 -0.0783,0.007 -0.3077,0.0626 -0.3576,0.0739 -0.20614,0.0197 0.13268,-0.006 -0.16123,-0.0124 -0.2048,-0.004 -0.53121,0.25093 -0.71831,0.20723 -0.31242,0.0633 0.0657,-0.007 -0.36639,0.0455 -0.28578,0.0343 -0.54121,0.20889 -0.83146,0.22789 -0.20392,0.0421 -0.0899,0.0234 -0.34314,0.0465 -0.64191,0.1123 0.38629,-0.003 -0.53796,0.0847 -0.0685,0.008 -0.13512,0.0391 -0.20411,0.0351 -0.11456,-0.006 -0.22574,-0.0426 -0.33849,-0.0636 -0.36282,0.0249 -0.0786,0.0196 -0.54879,-0.0305 -0.0477,-0.005 -0.09743,0.007 -0.143667,-0.006 -0.06166,-0.0173 -0.112843,-0.0625 -0.173636,-0.0827 -0.06285,-0.0209 -0.1403,0.0367 -0.195852,-0.0331 -0.433234,0.0275 -0.867035,0.0105 -1.295527,-0.0553 -0.285533,0.009 0.184655,0.005 -0.126609,-0.0331 -0.03246,-0.004 -0.06429,0.0105 -0.09663,0.0155 -0.138353,0.021 -0.276674,0.0429 -0.417031,0.0439 -0.203091,0.0227 -0.4051,0.0579 -0.60358,0.10593 0.02193,-0.006 0.03648,-0.013 -0.0016,-0.015 -0.318164,0.0525 -0.632698,0.13836 -0.953944,0.17156 -0.16042,0.0485 -0.138772,0.0401 -0.290939,0.0672 7.94e-4,-1.8e-4 -0.0045,10e-4 -0.0041,10e-4 0.01458,-0.004 -0.196551,0.0447 -0.144177,0.0496 -0.0498,0.0166 -0.353772,0.12755 -0.389123,0.12455 -0.0054,-5.3e-4 0.008,-0.007 0.01188,-0.0114 -0.236194,0.13091 -0.166169,0.10341 -0.48886,0.2098 -0.0804,0.0265 -0.169079,0.0174 -0.250629,0.0393 -0.03007,0.008 -0.05884,0.0193 -0.08837,0.0294 -0.04391,0.007 -0.02193,0.007 -0.06666,0 -0.145497,0.0181 -0.267986,0.13338 -0.426331,0.0868 -0.03923,0.009 -0.07751,0.0272 -0.117822,0.0279 -0.06826,10e-4 -0.135427,-0.0182 -0.203605,-0.0222 -0.02694,-10e-4 -0.172283,0.005 -0.175183,-5.3e-4 -0.0042,-0.009 0.0048,-0.0194 0.0072,-0.0284 -0.168965,0.0532 -0.338137,0.0891 -0.515731,0.0951 -0.02773,0.003 -0.296558,0.0196 -0.173114,-0.004 -0.140073,0.0389 -0.282014,0.0573 -0.425299,0.0672 -0.03559,0.0117 -0.07091,0.0248 -0.106453,0.0367 -0.04001,0.009 -0.100631,0.0206 -0.108003,0.009 -0.01463,-0.0233 0.05474,-0.0143 0.07803,-0.0295 0.0035,-0.002 0.0056,-0.006 0.0088,-0.009 h 5.29e-4 c 7.94e-4,-6e-5 0.0019,5e-5 0.0026,0 0.02387,-0.0188 0.04439,-0.0421 0.06667,-0.063 -0.03707,0.0219 -0.07208,0.0483 -0.111107,0.0661 -7.93e-4,2e-5 -0.0016,0 -0.0026,0 -0.0055,0.002 -0.0098,0.007 -0.0155,0.009 -0.111855,0.0378 -0.228277,0.061 -0.344165,0.0837 -0.03694,0.008 -0.184182,-10e-4 -0.211873,-0.004 -0.0095,-0.001 0.01953,10e-4 0.02842,-0.002 0.141126,-0.0542 0.280619,-0.11258 0.420645,-0.1695 -0.03682,-0.0257 -0.07608,-0.0495 -0.113686,-0.0744 -0.0075,0.005 -0.0227,0.0147 -0.02739,0.0176 -0.01638,0.0103 -0.0337,0.0184 -0.05064,0.0274 -0.03561,-0.004 -0.07408,-0.0255 -0.106971,-0.0114 -0.04263,0.0184 -0.06506,0.0662 -0.09767,0.0992 -0.05057,0.0512 -0.101277,0.10228 -0.151929,0.15348 -0.129577,0.1309 -0.274973,0.24179 -0.404108,0.37311 -0.117594,0.0659 -0.235133,0.13103 -0.352436,0.1974 5.29e-4,5.3e-4 0.0011,5.3e-4 0.0016,0.002 0.0049,0.005 -0.02392,0.0119 -0.0181,0.008 0.0055,-0.003 0.01103,-0.006 0.01654,-0.009 -0.01805,-0.0167 -0.03841,-0.0312 -0.05684,-0.0476 -0.142539,0.18329 -0.288051,0.3642 -0.446484,0.53279 -0.192844,0.18685 -0.240615,0.24696 -0.337447,0.18293 -0.182774,0.0644 -0.47326,0.15429 -0.625284,-0.0103 -0.110189,-0.11926 -0.191067,-0.22539 -0.234612,-0.3359 -0.0029,0.009 -0.0033,0.0198 -0.0052,0.0294 -0.0027,0.0131 -0.0065,0.0257 -0.0093,0.0388 -0.0032,0.0146 -0.0081,0.029 -0.01188,0.0434 -0.0047,0.0134 -0.0088,0.027 -0.01241,0.0408 -0.0033,0.0126 -0.0069,0.025 -0.0098,0.0377 -0.0036,0.0135 -0.0077,0.0272 -0.01241,0.0403 -0.0016,0.005 -0.005,0.009 -0.0067,0.0145 -1.37e-4,2.3e-4 5.3e-4,5.3e-4 5.3e-4,0.001 -7.94e-4,0.004 -0.0016,0.006 -0.0026,0.01 -0.0024,0.0116 -0.0065,0.0231 -0.01188,0.0336 -0.0024,0.009 -0.0084,0.0173 -0.01291,0.0253 -0.0079,0.0144 -0.0026,0.007 -0.01035,0.017 -0.0039,0.007 -0.0095,0.0147 -0.01497,0.0207 -0.0021,0.003 -0.0041,0.005 -0.0062,0.007 -0.0013,0.001 -0.0024,0.002 -0.0036,0.003 -0.0051,0.005 -0.0035,0.006 -0.01085,0.009 -0.0016,5.3e-4 -0.0051,0.002 -0.0088,0.003 h -5.3e-4 v 5.3e-4 c -7.93e-4,2.3e-4 -0.0016,5.3e-4 -0.0021,5.3e-4 -7.94e-4,1.1e-4 -0.0019,-4e-5 -0.0026,0 0.0011,-2.6e-4 0.0029,-5.3e-4 0.0047,-10e-4 -0.006,4e-5 -0.01206,8e-4 -0.0181,10e-4 -0.0026,-10e-4 -0.005,-0.002 -0.0072,-0.003 -0.0024,2.1e-4 -0.005,6e-5 -0.0072,-5.3e-4 -0.0075,-0.003 -0.01429,-0.008 -0.02119,-0.0119 -0.0068,-0.007 -0.01114,-0.023 -0.0078,-0.0331 7.94e-4,-0.005 5.29e-4,-0.011 0.0011,-0.016 -5.29e-4,-0.008 2.65e-4,-0.0152 0.0021,-0.0233 7.94e-4,-0.006 0.0024,-0.01 0.0047,-0.0129 1.72e-4,-2.5e-4 2.64e-4,-7.9e-4 5.29e-4,-10e-4 2.64e-4,-0.001 7.93e-4,-0.003 0.0011,-0.003 0.0024,-0.006 0.0036,-0.0126 0.0067,-0.0186 0.0033,-0.009 0.0062,-0.0173 0.01035,-0.0253 7.93e-4,-0.005 0.0062,-0.006 0.0083,-0.0104 2.33e-4,-2.4e-4 -7.94e-4,8e-4 -0.0011,5.3e-4 l -5.29e-4,5.3e-4 c 7.94e-4,-0.009 0.0047,-0.0173 0.0093,-0.0253 1.74e-4,-0.003 0.0021,-0.007 0.0026,-0.01 0.0016,-0.004 0.0027,-0.009 0.0041,-0.0145 0.0013,-0.006 0.0044,-0.0126 0.0067,-0.0186 0.0011,-0.003 0.0034,-0.006 0.0047,-0.009 2.65e-4,-0.001 5.29e-4,-0.005 5.29e-4,-0.005 0.0016,-0.007 0.0036,-0.0119 0.0062,-0.0181 2.65e-4,-0.001 7.94e-4,-0.002 0.0011,-0.003 5.29e-4,-0.002 2.64e-4,-5.3e-4 5.29e-4,-0.001 7.94e-4,-0.003 -7.94e-4,0.002 0.0011,-0.005 5.29e-4,-0.001 0.0051,-0.0178 0.0011,-0.008 0,-0.008 -1.12e-4,-0.008 0,-0.007 1.82e-4,-5.2e-4 5.29e-4,-0.002 0.0011,-0.005 2.64e-4,-10e-4 2.41e-4,-0.002 5.29e-4,-0.004 0.0016,-0.004 0.0031,-0.009 0.0036,-0.0145 7.94e-4,-0.006 0.0029,-0.0121 0.0047,-0.0181 0.0021,-0.0117 0.0047,-0.0234 0.0088,-0.0346 5.29e-4,-0.001 0.0011,-0.002 0.0016,-0.003 3.2e-5,-5.3e-4 -3.2e-5,-0.001 0,-0.002 0.0016,-0.009 0.0057,-0.0179 0.0083,-0.0269 5.29e-4,-0.003 0.0021,-0.006 0.0021,-0.009 -1.3e-5,-10e-4 -7.94e-4,-10e-4 -0.0011,-0.002 -6.8e-5,-2.3e-4 7.94e-4,-8e-4 5.3e-4,-0.001 -1.7e-4,-2.7e-4 -5.3e-4,1.2e-4 -0.0011,0 -0.0013,-0.009 -5.29e-4,-0.0189 5.29e-4,-0.0279 0.0013,-0.006 0.0011,-0.0126 0.0011,-0.0186 -5.29e-4,-0.004 0.0016,-0.008 0.0011,-0.0124 -1e-4,-0.001 -7.94e-4,-0.001 -0.0011,-0.002 -7.94e-4,-0.002 -5.29e-4,-0.005 -5.29e-4,-0.007 -2.33e-4,-0.006 3.7e-5,-0.0131 5.29e-4,-0.0191 0.0011,-0.006 0.0019,-0.0121 0.0026,-0.0181 2.64e-4,-0.003 7.93e-4,-0.005 0.0011,-0.008 v -5.3e-4 c -1.77e-4,-10e-4 -7.94e-4,-0.002 -0.0011,-0.002 -0.0011,-0.005 -7.94e-4,-0.009 -0.0016,-0.0145 -7.94e-4,-0.006 0.0013,-0.0126 0.0021,-0.0186 1.11e-4,-10e-4 -5e-5,-0.002 0,-0.003 4.5e-5,-10e-4 5.29e-4,-10e-4 5.29e-4,-0.002 -2.6e-5,-2.1e-4 -7.94e-4,5.3e-4 -0.0011,5.3e-4 -7.94e-4,-0.005 2.64e-4,-0.011 0.0016,-0.016 l 5.29e-4,5.3e-4 c 7.94e-4,-0.003 0.0011,-0.004 0.0016,-0.006 -5.29e-4,7.9e-4 -0.0011,0.002 -0.0016,0.003 7.94e-4,-0.003 0.0013,-0.006 0.0026,-0.008 0.0011,-0.004 0.0026,-0.008 0.0057,-0.014 -2.65e-4,0.001 2.64e-4,-5.2e-4 5.29e-4,-0.001 1.56e-4,-2.6e-4 2.64e-4,-8e-4 5.29e-4,-10e-4 5.29e-4,-0.001 5.29e-4,-0.002 0.0011,-0.003 0.0011,-0.002 0.0013,-0.003 0.0011,-0.002 -5.29e-4,0.001 2.64e-4,-2.6e-4 5.29e-4,-10e-4 v -5.3e-4 -5.3e-4 -5.3e-4 c 5.29e-4,-0.003 0.0013,-0.006 0.0021,-0.008 v -5.3e-4 c 3.1e-5,-5.3e-4 -7.7e-5,-0.001 0,-0.002 3.4e-5,-5.3e-4 -3.8e-5,-5.3e-4 0,-10e-4 5.29e-4,-0.006 0.0011,-0.0112 0.0026,-0.0176 -2.64e-4,0.002 0.0011,-0.005 0.0016,-0.005 2.64e-4,-0.001 1.85e-4,-0.002 -5.29e-4,-0.002 -7.94e-4,0 1.29e-4,-0.002 0.0011,-0.005 -2.04e-4,8e-4 5.29e-4,-7.9e-4 0.0011,-0.003 1.62e-4,-8e-4 -2.64e-4,1.4e-4 0,-0.001 -1.98e-4,-7.9e-4 0.0013,-0.006 0.0026,-0.01 5.6e-5,0.002 5.29e-4,0.005 5.29e-4,0.004 3.2e-5,-0.002 5.9e-5,-0.004 0,-0.006 -1.58e-4,5.3e-4 -2.64e-4,7.9e-4 -5.29e-4,0.002 -1.6e-5,-8e-4 -1.6e-5,-0.001 0,-0.002 1.1e-5,-5.3e-4 0.0011,-0.004 5.29e-4,-10e-4 2.65e-4,0 5.3e-4,10e-4 5.3e-4,10e-4 -1.01e-4,-0.002 8.7e-5,-7.9e-4 0,-0.002 -8.8e-5,-0.001 -5.3e-4,-0.001 -5.3e-4,-0.002 1.4e-5,-5.3e-4 -1.11e-4,-0.002 0,-0.003 -3.9e-5,-5.3e-4 3.2e-5,-0.001 0,-0.002 v -5.3e-4 c -1.21e-4,-2.6e-4 -2.64e-4,-7.9e-4 -5.29e-4,-10e-4 v -5.3e-4 c -9.5e-5,-2.7e-4 4e-5,-5.3e-4 0,-10e-4 -3.9e-5,-2.7e-4 3.7e-5,-8e-4 0,-0.001 -5e-6,-2.7e-4 -8e-6,-7.9e-4 0,-0.001 -5.29e-4,-0.005 -0.0011,-0.009 -0.0016,-0.0145 0.0019,-0.01 0.0021,-0.0111 0.0062,-0.0202 2.2e-4,-5.3e-4 7.94e-4,-0.002 0.0016,-0.004 5.3e-4,-0.002 0.0011,-0.004 0.0021,-0.005 h 5.29e-4 v -5.3e-4 c -5.29e-4,8e-4 5.29e-4,-10e-4 5.29e-4,-10e-4 1.27e-4,-2.6e-4 5.3e-4,-7.9e-4 5.3e-4,-0.001 7.93e-4,-0.003 0.0016,-0.005 0.0026,-0.008 2.04e-4,-5.3e-4 2.07e-4,-0.001 5.3e-4,-0.002 7.93e-4,-0.002 0.0013,-0.004 0.0026,-0.006 1.3e-4,-2.5e-4 7.94e-4,-10e-4 0.0011,-0.002 5.29e-4,-0.001 0.0011,-0.003 0.0016,-0.004 5.29e-4,-5.3e-4 0.0011,-10e-4 0.0016,-0.002 1.74e-4,-2.2e-4 7.94e-4,-0.001 0.0021,-0.004 7.94e-4,-0.002 0.0011,-0.002 0.0011,-0.002 2.64e-4,-2.3e-4 0.0013,-5.3e-4 0.0021,-0.002 2.65e-4,0 2.49e-4,-5.3e-4 5.3e-4,-0.001 0.0045,-0.001 0.0091,-0.001 0.01344,-0.003 0.0013,0 0.0019,-0.004 0.0031,-0.003 0.0019,8e-4 0.0034,0.002 0.0052,0.003 0.0016,-0.005 0.0035,-0.0107 0.0052,-0.016 5.29e-4,-8e-4 0.0044,-0.012 0.0062,-0.014 0.01241,-0.0114 0.01887,-0.0161 0.03049,-0.0155 5.29e-4,-0.006 0.0019,-0.0146 0.0052,-0.0176 0.0117,-0.0105 0.01619,-0.0148 0.02119,-0.0155 0.0032,-5.2e-4 0.0075,8e-4 0.01291,0.003 0.004,-0.006 0.0072,-0.012 0.01085,-0.0181 0.08274,-0.16183 0.194477,-0.30878 0.297656,-0.46044 0.03434,-0.059 0.06991,-0.11718 0.107487,-0.17415 0.01979,-0.0346 0.04125,-0.0683 0.05839,-0.10438 0.233429,-0.33948 0.463428,-0.68601 0.786516,-0.94827 0.08908,-0.036 -0.128003,0.0926 -0.111622,0.10542 0.02734,0.0214 0.05366,0.0447 0.08062,0.0667 0.01487,-0.0148 0.02882,-0.0302 0.04392,-0.045 0.03623,-0.0818 0.08144,-0.12333 0.133842,-0.13023 0.04762,-0.0523 0.09102,-0.093 0.134361,-0.13746 0.08645,-0.12804 -0.07802,0.0175 0.02842,-0.0754 0.07494,-0.0478 0.124214,-0.0733 0.178285,-0.10284 0.06551,-0.0428 0.138845,-0.0835 0.235643,-0.12144 0.05725,-0.0224 0.148286,-0.0407 0.215492,-0.031 0.0043,-0.004 0.0098,-0.006 0.01394,-0.009 0.01595,-0.0141 0.02053,-0.0379 0.03359,-0.0548 0.04118,-0.0533 0.116073,-0.068 0.175183,-0.10025 0.417227,-0.17581 0.566402,-0.14699 0.695566,0.0765 0.01614,-0.001 0.0323,-0.002 0.04857,-0.002 0.01355,-0.004 0.0021,-0.002 0.05943,-0.0176 0.153289,-0.0753 0.317055,-0.0188 0.474906,-0.0383 0.0073,-7.9e-4 0.0098,-0.013 0.01707,-0.0139 0.09976,-0.0121 0.110538,-0.0261 0.134358,-0.0341 0.06463,-0.0209 0.129662,-0.0416 0.194305,-0.0625 0.03745,-0.005 0.0756,-0.006 0.112136,-0.0155 0.02601,-0.007 0.04789,-0.0251 0.07338,-0.0341 0.01482,-0.005 0.03478,0.004 0.04651,-0.007 0.13484,-0.11901 -0.04534,-0.0553 0.132808,-0.0982 0.01762,-0.021 0.03279,-0.0453 0.05323,-0.0636 0.03985,-0.0356 0.448551,-0.13611 0.507979,-0.14781 0.08219,0.005 0.15856,-0.0148 0.236162,-0.0336 0.229616,-0.10831 0.468384,-0.19612 0.709001,-0.27647 0.126106,-0.0154 0.244266,-0.0637 0.367938,-0.0894 0.04006,-0.008 0.08303,-0.003 0.12092,-0.0186 0.01844,-0.008 -0.06035,0.0126 -0.05943,-0.007 0.0011,-0.0208 0.04079,-0.0126 0.06098,-0.0186 0.39257,-0.12928 0.807236,-0.16534 1.212844,-0.23254 0.05727,-0.008 0.270719,-0.0481 0.353468,-0.0284 0.01836,0.004 0.02215,0.0353 0.04031,0.0403 0.02453,0.007 0.05049,-0.007 0.07596,-0.007 0.25523,-0.006 0.04756,0.0127 0.251148,-0.0103 0.136276,-0.0381 0.280871,-0.0341 0.418063,-0.0667 0.29387,-0.0703 0.122417,-0.0529 0.351398,-0.0636 0.118182,-0.0452 0.239496,-0.002 0.358635,-0.0124 0.10196,-0.009 0.201808,-0.0354 0.303858,-0.0434 0.08843,-0.007 0.177504,0.003 0.266134,-0.001 0.10255,-0.004 0.204613,-0.0163 0.306956,-0.0243 0.07107,-0.013 0.142354,-0.0257 0.213424,-0.0388 0.04472,2e-5 0.08985,0.008 0.133842,0 0.08341,-0.0152 0.161089,-0.0567 0.244946,-0.0692 0.05539,-0.008 0.112755,0.0173 0.167955,0.007 0.18434,-0.0778 0.0944,-0.058 0.26665,-0.0718 0.0476,-0.0435 0.0876,-0.0978 0.14314,-0.13074 0.0327,-0.0196 0.0766,-0.007 0.11214,-0.0207 0.0579,-0.0222 0.10787,-0.0621 0.16536,-0.0853 0.0433,-0.0175 0.0907,-0.0225 0.13539,-0.0362 0.41364,-0.12638 0.14229,-0.0628 0.46871,-0.13126 0.25568,-0.1263 0.54509,-0.14208 0.81597,-0.21807 0.49437,-0.13864 0.0232,-0.0362 0.38706,-0.11007 0.20322,-0.1142 0.44206,-0.13948 0.66507,-0.19637 0.38192,-0.0975 0.1555,-0.0617 0.45631,-0.0977 0.035,-2.4e-4 0.0696,0.002 0.10438,-5.3e-4 0.11549,-0.009 0.22905,-0.0389 0.34417,-0.0517 0.18369,-0.0204 0.37047,-0.0287 0.555,-0.0393 0.25865,0.002 0.52155,-0.0265 0.77877,0.016 0.12602,0.0208 0.24852,0.0748 0.3762,0.0718 -0.27132,-0.0887 -0.31176,-0.0778 -0.10284,-0.0729 0.22138,0.0193 0.44278,-0.0231 0.66456,-0.0191 0.81239,0.0134 -0.17111,0.0144 0.35502,0.0124 0.0273,0.008 0.0538,0.0218 0.0822,0.0248 0.1116,0.0136 0.27376,-0.0471 0.40204,-0.0465 z m -18.410763,5.15059 c -4.5e-5,-2.3e-4 1.11e-4,5.3e-4 5.29e-4,-0.006 1.8e-5,0 -5.29e-4,5.3e-4 -5.29e-4,10e-4 1.3e-5,-5.3e-4 5e-6,7.9e-4 0,0.001 -8.3e-5,0.002 2.9e-5,0.003 0,0.004 z m 35.966793,-1.70223 c -0.0709,-0.0254 -0.14153,-0.0522 -0.2129,-0.076 0.0277,0.009 0.0337,0.0145 -0.0259,0.0398 0.0805,0.008 0.162,0.0121 0.23874,0.0362 z m -1.69085,-1.96887 c -0.0279,5.3e-4 -0.0564,-0.003 -0.0832,0.005 -0.14383,0.0392 -0.56844,0.16402 -0.41961,0.15503 0.1754,-0.0102 0.33337,-0.11316 0.50281,-0.15968 z m -30.872534,1.25729 v 5.3e-4 c 0.0016,-1e-4 0.0029,-5.3e-4 0.0047,-5.3e-4 -0.0021,-9e-5 -0.0024,7e-5 -0.0047,0 z m 35.307924,0.17777 c -0.005,10e-4 -0.0215,0.003 -0.0165,0.003 0.009,-0.001 0.0138,-0.001 0.0227,-0.002 -0.002,-1.2e-4 -0.004,-2.3e-4 -0.006,-5.3e-4 z m 1.30328,0.40927 c -0.0149,0.003 -0.0601,0.0112 -0.045,0.01 0.041,-0.005 0.0645,-0.005 0.0971,-0.009 -0.0178,1.3e-4 -0.0324,-0.001 -0.0522,-0.001 z m 0.15348,0.003 -5.3e-4,5.3e-4 c 0.0109,0.007 0.0203,0.0159 0.0305,0.0238 0.002,-5.3e-4 0.004,-0.001 0.007,-0.002 0.009,-0.004 0.003,-0.009 -0.0186,-0.0165 l -5.3e-4,-5.3e-4 c -0.004,-0.002 -0.0129,-0.004 -0.0181,-0.005 z m 0.0465,0.031 c -0.002,2.6e-4 -0.005,1.7e-4 -0.007,5.3e-4 0.0384,0.0308 0.0758,0.0628 0.11679,0.0899 0.0396,0.0262 -0.0639,-0.0537 -0.10955,-0.0904 z m -0.11369,0.0191 c -7.9e-4,2.6e-4 -0.002,7.9e-4 -0.003,0.001 8e-4,-1.6e-4 0.002,-2.2e-4 0.003,-5.3e-4 z m -0.003,0.001 c -0.004,7.9e-4 -0.009,0.001 -0.014,0.002 -0.0123,0.003 -0.0461,0.0195 -0.0341,0.0155 0.0162,-0.005 0.0322,-0.0114 0.048,-0.0176 z m -39.028624,0.32402 c -0.04051,0.0221 -0.0614,0.0436 -0.05116,0.062 0.0074,-0.006 0.01294,-0.0141 0.02066,-0.0196 l 5.3e-4,-5.3e-4 c 0.0096,-0.0176 0.01998,-0.0269 0.02997,-0.0413 z m 39.960874,0.17053 v 5.3e-4 c -0.002,-0.002 0.004,0.003 0.006,0.004 -0.003,-0.002 -0.001,-0.002 -0.006,-0.005 z m 0.006,0.005 c 0.0101,0.008 0.0134,0.0129 0.0222,0.0191 -0.004,-0.003 -0.005,-0.006 -0.009,-0.009 -0.004,-0.004 -0.01,-0.008 -0.0135,-0.0103 z m -38.452942,0.34417 c -0.01767,0.004 -0.05559,0.0205 -0.10387,0.0429 -0.0087,0.011 -0.01622,0.0228 -0.02532,0.0336 0.0368,-0.0147 0.0873,-0.0454 0.138491,-0.076 -0.0039,-10e-6 -0.0019,-0.003 -0.0093,-5.2e-4 z m 37.811642,0.077 c 0.037,0.062 0.0256,0.0498 0.0367,0.093 0.001,-0.009 0.005,-0.0165 0.008,-0.0248 -0.0151,-0.0214 -0.0311,-0.0399 -0.045,-0.0682 z m -37.216332,0.0532 c -0.01611,0.002 -0.03327,5.3e-4 -0.04909,0.005 -0.01101,0.003 -0.01831,0.0152 -0.02791,0.0212 -0.05097,0.0327 -0.100894,0.0665 -0.153996,0.0956 -0.03275,0.018 -0.06861,0.03 -0.102835,0.045 0.06087,-0.0225 0.240178,-0.0862 0.333827,-0.16639 z m 37.196692,0.12506 -5.3e-4,5.3e-4 c -0.0127,-0.003 -0.0125,0.007 0.008,0.0382 0.0351,0.017 0.0217,0.0327 0.0563,0.0377 0.0114,0.002 0.0241,-2.5e-4 0.0367,-0.001 -0.003,-0.005 -0.006,-0.0108 -0.008,-0.016 -0.0152,-0.001 -0.0303,-0.002 -0.0455,-0.004 0.0123,-0.0612 0.006,-0.0309 0.005,-0.0269 -0.0207,-0.0128 -0.0419,-0.0262 -0.0522,-0.0284 z m -0.009,0.062 c 0.002,0.007 0.004,0.0144 0.006,0.0217 0.0271,0.002 0.0544,0.005 0.0806,0.003 -0.0279,-0.007 -0.056,-0.0162 -0.0863,-0.0248 z m 0.12505,0.0362 -5.3e-4,5.3e-4 c 0.003,0.0282 0.008,0.0467 0.0191,0.0393 0.003,-0.002 0.005,-0.004 0.008,-0.006 -0.009,-0.0112 -0.0196,-0.0227 -0.0264,-0.0336 z m -0.0186,0.005 c -0.0306,0.007 -0.0616,0.007 -0.0925,0.0103 0.003,0.01 0.005,0.0195 0.008,0.0289 0.0111,0.0374 0.10304,0.26404 0.10904,0.27854 0.009,0.0166 0.0117,0.0227 0.0181,0.0351 7.9e-4,-0.0204 0.003,-0.0412 0.005,-0.0615 0,-0.0373 3e-5,-0.0389 0,-0.0558 -0.009,-9e-5 -0.0162,0 -0.0284,0 -0.002,-0.0105 -0.003,-0.053 -0.006,-0.076 -0.001,-2.4e-4 -0.003,-2.6e-4 -0.004,-5.3e-4 -0.008,-10e-4 -0.0109,-0.0242 -0.003,-0.0243 0.002,-1e-5 0.003,1e-5 0.005,0 -0.005,-0.0458 -0.0111,-0.0795 -0.0109,-0.13487 z m 0.67024,0.0305 c -0.008,5.3e-4 -0.016,0.002 -0.0238,0.002 0.008,5.3e-4 0.0159,5.3e-4 0.0238,5.3e-4 -3e-5,-5.3e-4 10e-6,-0.002 0,-0.003 z m 0.0165,5.3e-4 c -0.001,0.001 -0.002,0.002 -0.003,0.003 0.002,2.6e-4 0.005,2.6e-4 0.007,5.3e-4 -0.002,-0.002 -0.003,-0.002 -0.004,-0.003 z m -0.0155,0.0176 c -0.007,0.009 -0.0133,0.0177 -0.0202,0.0264 0.007,2e-5 0.0148,-5.3e-4 0.0222,-5.3e-4 -1.7e-4,-0.003 -0.002,-0.0206 -0.002,-0.0259 z m -0.65836,0.0858 v 5.3e-4 c 7.9e-4,0.009 0.001,0.0177 0.002,0.0253 0.0108,0.002 0.0216,0.004 0.0326,0.007 5e-5,-0.004 5.2e-4,-0.0198 5.2e-4,-0.0243 -7.9e-4,-0.002 -0.002,-0.005 -0.003,-0.008 -0.0106,2e-5 -0.0213,-5.3e-4 -0.032,-5.3e-4 z m -38.359417,0.0703 c -0.01042,0.008 -0.01939,0.0156 -0.03101,0.0233 -0.0032,0.006 -0.0058,0.0122 -0.0093,0.0181 -0.02011,0.0339 -0.08273,0.13296 -0.06718,0.0966 0.0205,-0.0477 0.09031,-0.0943 0.107487,-0.13797 z m 37.361027,0.0259 c -0.008,-0.009 -0.047,0.18329 0.001,0.0196 2.6e-4,-0.0108 1e-4,-0.0183 -0.001,-0.0196 z m 2.81843,0.0651 c -5.3e-4,2.6e-4 -7.9e-4,2.3e-4 -0.001,5.3e-4 5.3e-4,0.003 0.002,0.005 0.002,0.008 2e-4,-0.002 1.6e-4,-0.005 0,-0.008 -2.5e-4,-1.9e-4 -8e-4,-2.4e-4 -0.001,-5.3e-4 z m -2.84117,0.1204 c -0.008,0.0131 -0.012,0.0304 -0.0139,0.0506 0.005,-0.0168 0.009,-0.0339 0.0139,-0.0506 z m -39.470971,0.21188 c -1.88e-4,8e-4 -7.94e-4,10e-4 -0.0011,0.002 -6e-5,2.6e-4 5.9e-5,7.9e-4 0,0.001 2.65e-4,-8e-4 7.94e-4,-0.002 0.0011,-0.003 z m 40.492621,0.0305 c -0.005,0.006 -0.009,0.0109 -0.0124,0.0171 -0.002,0.004 0.002,0.0179 0.004,0.0139 0.005,-0.01 0.007,-0.0204 0.009,-0.031 z m -39.120614,0.15658 c -0.005,0.006 -0.01003,0.0124 -0.01497,0.0186 1.11e-4,7.9e-4 -0.0024,0.005 -0.0021,0.005 0.0039,0.009 0.03306,-0.0121 0.02479,-0.0181 -0.0024,-0.002 -0.0053,-0.004 -0.0078,-0.006 z m -1.402498,0.0708 c -1.08e-4,2.7e-4 -5.29e-4,5.3e-4 -5.29e-4,10e-4 -2.33e-4,0.001 5.3e-5,0.003 0,0.005 1.32e-4,-0.002 5.29e-4,-0.004 5.29e-4,-0.006 z m 41.243482,0.0444 c -0.0267,0.0175 -0.0511,0.0528 -0.0305,0.0816 0.005,0.007 0.006,-0.0142 0.009,-0.0222 0.007,-0.0198 0.0147,-0.0396 0.0217,-0.0594 z m 1.40766,0.15503 c 0.002,2.7e-4 0.002,0.003 0.001,0.005 -0.0156,0.032 -0.0275,0.068 -0.0501,0.0956 -0.006,0.008 -0.0205,0.003 -0.0305,0.004 0.0176,-0.0295 0.0355,-0.059 0.0532,-0.0884 0.004,-10e-4 0.007,-0.002 0.0109,-0.003 0.001,-2.6e-4 -0.002,-0.003 -10e-4,-0.004 0.005,-0.004 0.0103,-0.008 0.0165,-0.009 z m -0.20515,0.0305 c 0,-0.002 0.003,0.008 0.003,0.008 0,-10e-4 -0.002,-0.007 -0.002,-0.008 z m -42.504385,0.0491 c -5.3e-4,0 -0.0019,7.9e-4 -0.0031,0.002 -2.33e-4,4e-5 -2.65e-4,5.3e-4 -5.29e-4,5.3e-4 0.0016,-2.7e-4 0.0024,1.6e-4 0.0036,0 v -5.3e-4 l 5.29e-4,-5.3e-4 h 5.29e-4 c 2.57e-4,-5.3e-4 2.65e-4,-7.9e-4 5.29e-4,-0.001 -5.29e-4,5e-5 -0.0011,-2e-5 -0.0016,0 z m 0.03049,0.007 c -2.64e-4,2.7e-4 -7.94e-4,7.9e-4 -0.0011,0.001 v 5.3e-4 c 7.4e-5,2.4e-4 5.29e-4,7.9e-4 5.29e-4,10e-4 5.29e-4,-5.3e-4 7.94e-4,-0.002 0.0011,-0.002 z m 0.0021,0.002 c -2.22e-4,0.002 -5.29e-4,0.003 -5.29e-4,0.005 0.0021,0.003 0.006,0.009 0.01344,0.0165 0.0027,0.003 -0.0021,-0.008 -0.0041,-0.0108 -0.0029,-0.005 -0.0057,-0.008 -0.0088,-0.0103 z m -0.0072,0.004 c -0.0013,0.002 -0.0024,0.004 -0.0031,0.006 -0.0011,0.003 0.0016,-5.3e-4 0.0047,-0.005 -5.29e-4,-2.6e-4 -0.0011,-7.9e-4 -0.0016,-0.001 z m 0.0088,0.0176 c 1.22e-4,0.001 -1.85e-4,0.002 0,0.002 9.6e-5,2.6e-4 0.0011,7.9e-4 0.0011,5.3e-4 1.56e-4,-10e-4 -2.65e-4,-10e-4 -5.29e-4,-0.002 z m 0,0.0294 c -0.0021,0.001 -0.0043,0.003 -0.0062,0.005 7.94e-4,-5.3e-4 0.0016,-5.3e-4 0.0026,-0.001 0.0013,-0.001 0.005,-0.005 0.0036,-0.004 z m -0.0062,0.005 c -0.0037,0.002 -0.0072,0.004 -0.01085,0.005 0.0035,-0.001 0.0068,-0.003 0.01085,-0.005 z" />
    </clipPath>
  </defs>
  <g
     inkscape:groupmode="layer"
     id="layer26"
     inkscape:label="Sheriff Hat"
     transform="translate(-87.603327,-69.48406)">
    <ellipse
       style="fill:#626239;fill-opacity:1;stroke:#5b4e2a;stroke-width:0.968262;stroke-linecap:round;stroke-miterlimit:1;paint-order:markers fill stroke"
       id="path10"
       cx="132.94019"
       cy="94.427719"
       rx="44.852726"
       ry="6.858048" />
    <path
       id="path13"
       style="fill:none;stroke:#000000;stroke-width:0.264583px;stroke-linecap:butt;stroke-linejoin:miter;stroke-opacity:1"
       d="m 127.10674,86.37055 4.71375,20.5707 m -38.555212,-20.5707 -4.71375,20.5707 M 127.10674,86.370552 a 16.920732,3.5428996 0 0 1 -16.92073,3.5429 16.920732,3.5428996 0 0 1 -16.92073,-3.5429 16.920732,3.5428996 0 0 1 16.92073,-3.5429 16.920732,3.5428996 0 0 1 16.92073,3.5429 z m 4.71376,20.570698 a 21.634483,4.5298753 0 0 1 -21.63449,4.52988 21.634483,4.5298753 0 0 1 -21.634481,-4.52988 21.634483,4.5298753 0 0 1 21.634481,-4.52987 21.634483,4.5298753 0 0 1 21.63449,4.52987 z"
       clip-path="url(#clipPath29)"
       transform="translate(22.75414,-13.211302)" />
    <path
       style="fill:#626239;fill-opacity:1;stroke:#464629;stroke-width:0.5;stroke-linecap:round;stroke-miterlimit:1;stroke-dasharray:none;stroke-opacity:1;paint-order:markers fill stroke"
       d="m 149.75248,73.668931 c -1.41885,1.38592 -3.50088,1.68745 -5.35058,2.13398 -6.68447,1.16302 -13.56821,1.15691 -20.30367,0.39894 -2.49779,-0.38209 -5.15625,-0.65347 -7.3639,-1.96862 -0.30688,-0.18984 -0.80498,-0.92116 -0.8736,-0.1921 -1.46249,6.56054 -3.08173,13.08943 -4.44985,19.66895 -0.0277,0.9553 1.08094,1.40349 1.78723,1.79963 3.75225,1.58377 7.87571,1.95583 11.88826,2.36781 5.41476,0.5052 10.8698,0.33321 16.28647,-0.0428 3.84913,-0.41189 7.80375,-0.80672 11.38902,-2.36247 0.80533,-0.40746 2.03256,-1.10974 1.6353,-2.20168 -1.50193,-6.50099 -2.96831,-13.01021 -4.45115,-19.5156 l -0.0752,-0.0915 z"
       id="path42" />
    <path
       style="fill:#626239;fill-opacity:1;stroke:#4a4a2b;stroke-width:0.3;stroke-linecap:round;stroke-linejoin:bevel;stroke-miterlimit:1;stroke-dasharray:none;stroke-opacity:1;paint-order:markers fill stroke"
       d="m 132.44813,69.649671 c -4.20246,0.0547 -8.44141,0.29032 -12.5403,1.27835 -1.20159,0.34559 -2.50381,0.64779 -3.45628,1.5083 -0.37172,0.3035 -0.56365,0.89279 -0.18733,1.27046 0.80546,0.89336 2.04095,1.20356 3.14843,1.54942 3.33002,0.87296 6.78054,1.1841 10.20994,1.34588 3.80358,0.068 7.62072,0.0955 11.4039,-0.36495 2.49541,-0.31654 5.04704,-0.65022 7.36459,-1.68286 0.56788,-0.30219 1.36899,-0.64105 1.42873,-1.37717 -0.0532,-0.78807 -0.89741,-1.14651 -1.50857,-1.45573 -2.43329,-1.04327 -5.09419,-1.37179 -7.70113,-1.68585 -2.71001,-0.28811 -5.43737,-0.39909 -8.16198,-0.38585 z"
       id="path43" />
    <path
       sodipodi:type="star"
       style="fill:#d1b94a;fill-opacity:1;stroke:none;stroke-width:0.499999;stroke-linecap:round;stroke-linejoin:bevel;stroke-miterlimit:1;stroke-dasharray:none;stroke-opacity:1;paint-order:markers fill stroke"
       id="path44-4"
       inkscape:flatsided="true"
       sodipodi:sides="3"
       sodipodi:cx="39.551189"
       sodipodi:cy="88.680023"
       sodipodi:r1="19.688025"
       sodipodi:r2="9.8440123"
       sodipodi:arg1="0.52359878"
       sodipodi:arg2="1.5707963"
       inkscape:rounded="0"
       inkscape:randomized="0"
       d="M 56.601519,98.524036 22.50086,98.524035 39.55119,68.991999 Z"
       inkscape:transform-center-y="-1.3391051"
       transform="matrix(0.27206485,0,0,0.27206485,123.36504,63.61512)" />
    <path
       sodipodi:type="star"
       style="fill:#d1b94a;fill-opacity:1;stroke:none;stroke-width:0.499999;stroke-linecap:round;stroke-linejoin:bevel;stroke-miterlimit:1;stroke-dasharray:none;stroke-opacity:1;paint-order:markers fill stroke"
       id="path44-0-4"
       inkscape:flatsided="true"
       sodipodi:sides="3"
       sodipodi:cx="39.551189"
       sodipodi:cy="88.680023"
       sodipodi:r1="19.688025"
       sodipodi:r2="9.8440123"
       sodipodi:arg1="0.52359878"
       sodipodi:arg2="1.5707963"
       inkscape:rounded="0"
       inkscape:randomized="0"
       d="M 56.601519,98.524036 22.50086,98.524035 39.55119,68.991999 Z"
       inkscape:transform-center-y="1.3391019"
       transform="matrix(0.27206485,0,0,-0.27206485,123.36504,111.78948)" />
    <circle
       style="fill:#d1b94a;fill-opacity:1;stroke:none;stroke-width:0.136032;stroke-linecap:round;stroke-linejoin:bevel;stroke-miterlimit:1;stroke-dasharray:none;stroke-opacity:1;paint-order:markers fill stroke"
       id="path46-51"
       cx="134.12553"
       cy="82.385406"
       r="0.50235277" />
    <circle
       style="fill:#d1b94a;fill-opacity:1;stroke:none;stroke-width:0.136032;stroke-linecap:round;stroke-linejoin:bevel;stroke-miterlimit:1;stroke-dasharray:none;stroke-opacity:1;paint-order:markers fill stroke"
       id="path46-3-2"
       cx="138.76431"
       cy="84.984558"
       r="0.50235277" />
    <circle
       style="fill:#d1b94a;fill-opacity:1;stroke:none;stroke-width:0.136032;stroke-linecap:round;stroke-linejoin:bevel;stroke-miterlimit:1;stroke-dasharray:none;stroke-opacity:1;paint-order:markers fill stroke"
       id="path46-8-2"
       cx="138.76431"
       cy="90.420052"
       r="0.50235277" />
    <circle
       style="fill:#d1b94a;fill-opacity:1;stroke:none;stroke-width:0.136032;stroke-linecap:round;stroke-linejoin:bevel;stroke-miterlimit:1;stroke-dasharray:none;stroke-opacity:1;paint-order:markers fill stroke"
       id="path46-4-0"
       cx="134.12553"
       cy="92.803024"
       r="0.50235277" />
    <circle
       style="fill:#d1b94a;fill-opacity:1;stroke:none;stroke-width:0.136032;stroke-linecap:round;stroke-linejoin:bevel;stroke-miterlimit:1;stroke-dasharray:none;stroke-opacity:1;paint-order:markers fill stroke"
       id="path46-89-5"
       cx="129.48674"
       cy="90.420052"
       r="0.50235277" />
    <circle
       style="fill:#d1b94a;fill-opacity:1;stroke:none;stroke-width:0.136032;stroke-linecap:round;stroke-linejoin:bevel;stroke-miterlimit:1;stroke-dasharray:none;stroke-opacity:1;paint-order:markers fill stroke"
       id="path46-5-6"
       cx="129.48674"
       cy="84.984558"
       r="0.50235277" />
  </g>
</svg>
