<?xml version="1.0" encoding="UTF-8" standalone="no"?>
<!-- Created with Inkscape (http://www.inkscape.org/) -->

<svg
   width="70.271103mm"
   height="53.175098mm"
   viewBox="0 0 70.271103 53.175098"
   version="1.1"
   id="svg1"
   xmlns:inkscape="http://www.inkscape.org/namespaces/inkscape"
   xmlns:sodipodi="http://sodipodi.sourceforge.net/DTD/sodipodi-0.dtd"
   xmlns:xlink="http://www.w3.org/1999/xlink"
   xmlns="http://www.w3.org/2000/svg"
   xmlns:svg="http://www.w3.org/2000/svg">
  <sodipodi:namedview
     id="namedview1"
     pagecolor="#ffffff"
     bordercolor="#666666"
     borderopacity="1.0"
     inkscape:showpageshadow="2"
     inkscape:pageopacity="0.0"
     inkscape:pagecheckerboard="0"
     inkscape:deskcolor="#d1d1d1"
     inkscape:document-units="mm" />
  <defs
     id="defs1">
    <radialGradient
       inkscape:collect="always"
       xlink:href="#linearGradient10"
       id="radialGradient11"
       cx="134.08763"
       cy="142.81519"
       fx="134.08763"
       fy="142.81519"
       r="15.609234"
       gradientTransform="matrix(1,0,0,0.98818945,0,1.6867251)"
       gradientUnits="userSpaceOnUse" />
    <linearGradient
       id="linearGradient10"
       inkscape:collect="always">
      <stop
         style="stop-color:#ffffff;stop-opacity:1;"
         offset="0"
         id="stop10" />
      <stop
         style="stop-color:#c2b9f2;stop-opacity:0.33695653;"
         offset="1"
         id="stop11" />
    </linearGradient>
  </defs>
  <g
     inkscape:label="Layer 1"
     inkscape:groupmode="layer"
     id="layer1"
     transform="translate(-134.56159,-100.03456)">
    <path
       id="path708"
       style="display:inline;fill:#deaa87;stroke:#040404;stroke-width:0.121778;stroke-opacity:1"
       inkscape:label="Head"
       d="m 158.41611,104.20107 a 20.230475,20.230475 0 0 0 -20.23044,20.23043 20.230475,20.230475 0 0 0 20.23044,20.23044 20.230475,20.230475 0 0 0 19.51417,-15.00623 2.9054793,3.8811793 33.348975 0 1 -1.88538,0.19236 2.9054793,3.8811793 33.348975 0 1 -1.74827,-2.659 3.4564852,4.3685227 37.114317 0 0 1.7411,1.3537 3.4564852,4.3685227 37.114317 0 0 2.16973,-0.15981 20.230475,20.230475 0 0 0 0.43909,-3.95146 20.230475,20.230475 0 0 0 -20.23044,-20.23043 z" />
    <ellipse
       style="display:inline;fill:#deaa87;stroke:#040404;stroke-width:0.121778;stroke-opacity:1"
       id="path7-9-9"
       cx="146.12602"
       cy="131.3728"
       rx="3.5023"
       ry="3.8272557"
       inkscape:label="Hand" />
    <ellipse
       style="display:inline;fill:#deaa87;stroke:#040404;stroke-width:0.121778;stroke-opacity:1"
       id="path7-9-9-5"
       cx="190.89098"
       cy="122.80949"
       rx="3.5023"
       ry="3.8272557"
       inkscape:label="Hand" />
    <ellipse
       style="display:inline;fill:#272727;stroke-width:0.164717"
       id="path3-6"
       cx="171.26201"
       cy="119.54784"
       rx="6.4268126"
       ry="7.481657"
       inkscape:label="EyePatch" />
    <path
       d="m 192.25753,123.55263 -3.22087,-11.47673 -3.40503,4.7e-4 z"
       style="display:inline;fill:#d4d4ff;fill-opacity:1;stroke-width:0.890597"
       id="path111" />
    <path
       d="m 195.47839,112.0759 h -1.3e-4 l -3.22073,11.47673 6.62601,-11.47673 z"
       style="display:inline;fill:#e8e8ff;stroke-width:0.890597"
       id="path110" />
    <path
       d="m 196.21138,109.46337 -0.73312,2.61253 h 1.3e-4 c 0.28052,-1.00011 0.71488,-2.5631 0.73299,-2.61253 z"
       style="display:inline;fill:#e8e8ff;stroke-width:0.890597"
       id="path109" />
    <path
       d="m 188.30355,109.46337 c 0.14151,0.51426 0.48968,1.76605 0.667,2.37691 z"
       style="display:inline;fill:#e8e8ff;stroke-width:0.890597"
       id="path97" />
    <path
       d="m 195.44392,112.0759 h 0.0343 l 0.73312,-2.61253 h -3.95386 z"
       style="display:inline;fill:#dedeff;fill-opacity:1;stroke-width:0.890597"
       id="path107" />
    <path
       d="m 189.03764,112.0759 h -0.001 l 3.22086,11.47673 3.22073,-11.47673 h -0.0343 l 0.0272,0.0224 -5.63712,-0.0196 c 0.58308,0.006 1.38493,0.0117 2.41822,0.0161 1.75552,0.007 3.19457,0.0162 3.19788,0.0195 0.006,0.006 -0.0663,0.27094 -0.38482,1.40414 -0.18204,0.64756 -0.31634,1.12569 -0.88942,3.1682 -0.15251,0.54357 -0.35186,1.25426 -0.44312,1.57939 -0.0913,0.32513 -0.25234,0.8988 -0.35782,1.27473 -0.10547,0.37593 -0.34231,1.21966 -0.52634,1.875 -0.18402,0.65535 -0.38948,1.38893 -0.45668,1.63023 -0.0672,0.24131 -0.12731,0.43872 -0.13357,0.43872 -0.006,0 -0.52986,-1.8475 -1.16353,-4.10563 -0.63367,-2.25813 -1.5128,-5.38999 -1.95358,-6.95976 -0.0521,-0.18556 -0.0461,-0.16686 -0.0956,-0.3434 z"
       style="display:inline;fill:#bcbcff;stroke-width:0.890597"
       id="path100" />
    <path
       d="m 188.97055,111.84028 0.0661,0.23562 h 0.001 c -0.0136,-0.0457 -0.0491,-0.17369 -0.0671,-0.23562 z"
       style="display:inline;fill:#bcbcff;stroke-width:0.890597"
       id="path99" />
    <path
       d="m 188.30355,109.46337 0.667,2.37691 c 0.018,0.0619 0.0535,0.18996 0.0671,0.23562 h 0.008 c -0.36917,-1.31695 -0.70956,-2.53693 -0.71307,-2.56157 l -0.007,-0.0509 h 1.95835 1.95823 l -0.0523,0.0438 c -0.0287,0.0241 -0.74219,0.60684 -1.58549,1.29502 -0.84331,0.68818 -1.53558,1.25747 -1.53846,1.26508 0,0 0.002,-1e-5 0.002,0 l 3.1897,-2.60397 z"
       style="display:inline;fill:#bcbcff;stroke-width:0.890597"
       id="path96" />
    <path
       d="m 189.64928,112.0759 c 0.0778,10e-4 0.0868,0.002 0.18477,0.003 l 5.63713,0.0196 -0.0273,-0.0224 z"
       style="display:inline;fill:#e8e8ff;stroke-width:0.0625694px"
       id="path106" />
    <path
       d="m 189.64928,112.0759 h 5.79464 l -3.18639,-2.61253 -3.18971,2.60397 c 1.6e-4,0.002 0.33671,0.006 0.58146,0.009 z"
       style="display:inline;fill:#9b9bff;fill-opacity:1;stroke-width:0.0625694px"
       id="path105" />
    <path
       d="m 189.05744,112.0759 0.77661,0.003 c -0.098,-0.001 -0.10699,-0.002 -0.18477,-0.003 z"
       style="display:inline;fill:#bcbcff;stroke-width:0.993802"
       id="path104" />
    <path
       d="m 189.05744,112.0759 h 0.59184 c -0.24475,-0.003 -0.5813,-0.006 -0.58146,-0.009 z"
       style="display:inline;fill:#bcbcff;stroke-width:0.993802"
       id="path103" />
    <path
       d="m 189.04571,112.0759 c 0.0495,0.17654 0.0435,0.15783 0.0956,0.34339 0.44079,1.56977 1.31992,4.70163 1.95359,6.95976 0.63366,2.25813 1.15726,4.10564 1.16352,4.10564 0.006,0 0.0664,-0.19742 0.13357,-0.43872 0.0672,-0.24131 0.27266,-0.97489 0.45669,-1.63023 0.18403,-0.65534 0.42086,-1.49908 0.52634,-1.87501 0.10547,-0.37593 0.26655,-0.9496 0.35782,-1.27473 0.0913,-0.32513 0.2906,-1.03581 0.44311,-1.57939 0.57307,-2.04251 0.70738,-2.52063 0.88942,-3.1682 0.31856,-1.1332 0.39107,-1.39792 0.38483,-1.40415 -0.003,-0.003 -1.44236,-0.0121 -3.19789,-0.0195 -1.03328,-0.005 -1.83514,-0.0103 -2.41822,-0.0161 l -0.77661,-0.003 z"
       style="display:inline;fill:#afaffb;fill-opacity:1;stroke-width:0.993802"
       id="path102" />
    <path
       d="m 189.04571,112.0759 h 0.0117 l 0.0104,-0.009 c 0,-1e-5 -0.002,10e-6 -0.002,0 0.003,-0.008 0.69515,-0.5769 1.53846,-1.26508 0.8433,-0.68818 1.55678,-1.27096 1.58549,-1.29502 l 0.0523,-0.0438 h -1.95823 -1.95835 l 0.007,0.0509 c 0.003,0.0246 0.3439,1.24462 0.71307,2.56156 z"
       style="display:inline;fill:#b1b1ff;fill-opacity:1;stroke-width:0.993802"
       id="path101" />
    <path
       d="m 185.63163,112.07626 3.40503,-4.7e-4 h -3.40491 c -8e-5,8e-5 -1.6e-4,1.6e-4 -2.4e-4,2.3e-4 z"
       style="display:inline;fill:#9a81ff;stroke-width:0.0131944;stroke-linejoin:round"
       id="path112" />
    <path
       d="m 188.30355,109.46337 c -0.8783,0.87316 -1.77939,1.75361 -2.6718,2.61253 h 3.40491 l -0.0661,-0.23562 c -0.17732,-0.61086 -0.52549,-1.86265 -0.667,-2.37691 z"
       style="display:inline;fill:#b5a2ff;fill-opacity:1;stroke-width:0.0131944;stroke-linejoin:round"
       id="path98" />
    <path
       d="m 196.21138,109.46337 c -0.0181,0.0494 -0.45247,1.61242 -0.73299,2.61253 h 3.40515 l -0.0621,-0.062 c -0.82498,-0.80543 -2.61008,-2.55057 -2.61008,-2.55057 z"
       style="display:inline;fill:#f1f1ff;fill-opacity:1;stroke-width:0.00350875;stroke-linejoin:round"
       id="path108" />
    <path
       sodipodi:type="star"
       style="display:inline;fill:url(#radialGradient11);fill-opacity:1;stroke:none;stroke-width:0.264583;stroke-opacity:0.989542"
       id="path10"
       inkscape:flatsided="false"
       sodipodi:sides="7"
       sodipodi:cx="134.29996"
       sodipodi:cy="143.40096"
       sodipodi:r1="2.5662498"
       sodipodi:r2="16.039062"
       sodipodi:arg1="0.73272488"
       sodipodi:arg2="1.1815238"
       inkscape:rounded="0"
       inkscape:randomized="0"
       d="m 136.20759,145.11751 4.17944,13.12255 -6.23974,-12.2774 -7.65379,11.44939 5.70845,-12.53326 -13.72355,1.15461 13.35805,-3.35132 -9.4592,-10.00962 10.94878,8.35424 1.92811,-13.6364 0.29485,13.76888 11.86353,-6.99469 -10.58111,8.81527 12.86546,4.91416 z"
       inkscape:transform-center-x="-0.12272672"
       inkscape:transform-center-y="0.33858411"
       transform="matrix(0.57801356,0,0,0.57801356,118.30586,26.401239)" />
    <ellipse
       style="display:inline;fill:none;stroke:#000000;stroke-width:0.202927;stroke-opacity:0.989542"
       id="ellipse697"
       cx="158.38765"
       cy="124.52673"
       rx="20.270046"
       ry="20.31539" />
    <path
       style="display:inline;fill:#ffffff;fill-opacity:1;stroke:#010100;stroke-width:0.0320626;stroke-opacity:0.989542"
       d="m 156.01291,139.50454 c -5.62354,-0.23444 -10.17093,-1.08113 -12.6923,-2.36323 -0.86746,-0.44109 -1.25369,-0.76209 -1.68096,-1.39703 -0.39736,-0.59049 -1.06489,-1.71767 -1.06489,-1.79814 0,-0.0118 0.073,0.0362 0.16226,0.10672 1.06625,0.84282 3.33963,1.67968 6.08995,2.24178 3.71471,0.7592 8.06523,1.10539 12.88918,1.02565 7.08713,-0.11716 13.36656,-1.30896 15.98011,-3.03293 0.19336,-0.12755 0.43502,-0.36382 0.44003,-0.3588 0.0315,0.0315 -0.73204,1.48656 -1.13766,2.07027 -0.27639,0.39773 -0.46379,0.47357 -0.80621,0.71241 -1.37474,0.95884 -4.11449,1.77923 -7.61487,2.28022 -1.60631,0.22989 -2.99746,0.36151 -5.11399,0.48386 -0.74648,0.0432 -4.61864,0.0639 -5.45065,0.0292 z"
       id="path697"
       sodipodi:nodetypes="ssssssssssssss" />
    <path
       style="display:inline;fill:#ffffff;fill-opacity:1;stroke:#010100;stroke-width:0.0320626;stroke-opacity:0.989542"
       d="m 156.67019,143.09346 c -4.03325,-0.15102 -7.51364,-0.7981 -9.34296,-1.73707 -0.42777,-0.21957 -1.1231,-0.71924 -1.85642,-1.33402 -0.15513,-0.13006 -0.54762,-0.379 -0.53968,-0.38694 0.008,-0.008 0.34382,0.15083 0.41388,0.18657 0.23781,0.12132 0.91896,0.38069 1.42987,0.54448 4.76962,1.52904 13.29428,1.88504 19.67442,0.82164 1.76652,-0.29444 3.38757,-0.71154 4.49485,-1.15655 0.19582,-0.0787 0.72518,-0.31239 0.733,-0.30458 0.0173,0.0173 -1.15926,0.84317 -1.55669,1.1294 -0.84494,0.60852 -1.0757,0.7302 -1.92966,1.01753 -2.69419,0.90648 -7.185,1.38188 -11.52061,1.21954 z"
       id="path698"
       sodipodi:nodetypes="ssssssssssss" />
    <path
       style="display:inline;fill:#ffffff;fill-opacity:1;stroke:#010100;stroke-width:0.0320626;stroke-opacity:0.989542"
       d="m 156.94273,144.63204 c -0.98383,-0.0233 -3.14861,-0.42255 -4.06491,-0.62555 -0.49397,-0.10943 0.17383,-0.0803 0.45084,-0.038 2.57337,0.39322 6.25543,0.53954 8.99535,0.21703 0.65374,-0.0769 1.64039,-0.27071 1.22562,-0.0948 -0.78064,0.18599 -2.67256,0.5347 -3.64311,0.60306 -0.53503,0.0377 -2.44362,-0.0234 -2.96379,-0.0617 z"
       id="path699"
       sodipodi:nodetypes="cssscscc" />
    <path
       style="display:inline;fill:#000000;fill-opacity:1;stroke:#010100;stroke-width:0.0320626;stroke-opacity:0.989542"
       d="m 157.42367,144.22991 c -2.99237,-0.0734 -6.12165,-0.67773 -7.64751,-1.36394 -0.45642,-0.20527 -1.62191,-0.90717 -1.6051,-0.92398 0.007,-0.007 0.66036,0.26341 0.96735,0.35116 4.88058,1.39508 13.36056,1.32519 18.25577,-0.0461 0.2257,-0.0632 0.81357,-0.16517 0.82146,-0.15727 0.0241,0.024 -1.58373,0.92867 -2.08394,1.13284 -1.69418,0.69152 -5.15676,1.09439 -8.70803,1.00734 z"
       id="path700"
       sodipodi:nodetypes="ssssssss" />
    <path
       style="display:inline;fill:#000000;fill-opacity:1;stroke:#010100;stroke-width:0.0320626;stroke-opacity:0.989542"
       d="m 156.04497,141.52236 c -4.32938,-0.18616 -8.09137,-0.76182 -10.38828,-1.73575 -0.826,-0.35023 -1.40312,-0.759 -1.97764,-1.35042 -0.46563,-0.47933 -1.41033,-1.59678 -1.38064,-1.62647 0.0102,-0.0102 0.40841,0.27002 0.51084,0.33173 2.0737,1.24943 6.55654,2.21232 11.74481,2.52273 2.4317,0.14548 5.4877,0.13911 7.91947,-0.0165 4.79583,-0.30694 8.86522,-1.14799 11.0917,-2.29242 0.23698,-0.12181 0.68577,-0.48803 0.6925,-0.4813 0.0125,0.0125 -0.44165,0.5352 -0.81452,0.96379 -0.11507,0.13226 -0.35187,0.5312 -0.64379,0.82775 -0.46569,0.47308 -0.66429,0.51227 -0.93154,0.66385 -2.06101,1.16892 -6.20989,2.04648 -11.22192,2.25896 -0.86992,0.0369 -3.72742,-0.0284 -4.60099,-0.0659 z"
       id="path701"
       sodipodi:nodetypes="sssscssssssssss" />
    <g
       inkscape:label="Lines of Latitude"
       id="g707"
       style="display:inline;stroke:#e4ed2f;stroke-opacity:0.989542"
       transform="matrix(0.76611195,0,0,0.76782576,158.38766,124.52672)">
      <path
         sodipodi:cx="0"
         sodipodi:cy="24.17205"
         sodipodi:rx="8.5910072"
         sodipodi:ry="2.2245162"
         sodipodi:type="arc"
         sodipodi:arc-type="arc"
         sodipodi:start="0.89548015"
         sodipodi:end="2.2461125"
         d="m 5.3706177,25.908306 a 8.5910072,2.2245162 0 0 1 -10.7412354,0"
         style="fill:none;stroke:#010100;stroke-width:0.264583;stroke-opacity:0.989542"
         id="path702"
         sodipodi:open="true" />
      <path
         sodipodi:cx="0"
         sodipodi:cy="22.476524"
         sodipodi:rx="12.592774"
         sodipodi:ry="3.2602499"
         sodipodi:type="arc"
         sodipodi:arc-type="arc"
         sodipodi:start="0.5179807"
         sodipodi:end="2.623612"
         d="M 10.940864,24.090761 A 12.592774,3.2602499 0 0 1 0,25.736774 12.592774,3.2602499 0 0 1 -10.940864,24.090761"
         style="fill:none;stroke:#010100;stroke-width:0.264583;stroke-opacity:0.989542"
         id="path703"
         sodipodi:open="true" />
      <path
         sodipodi:cx="0"
         sodipodi:cy="20.167896"
         sodipodi:rx="16.251045"
         sodipodi:ry="4.2070799"
         sodipodi:type="arc"
         sodipodi:arc-type="arc"
         sodipodi:start="0.3514517"
         sodipodi:end="2.790141"
         sodipodi:open="true"
         d="M 15.257683,21.61623 A 16.251045,4.2070799 0 0 1 0,24.374976 16.251045,4.2070799 0 0 1 -15.257683,21.61623"
         style="fill:none;stroke:#010100;stroke-width:0.264583;stroke-opacity:0.989542"
         id="path704" />
      <path
         sodipodi:cx="0"
         sodipodi:cy="17.309141"
         sodipodi:rx="19.466028"
         sodipodi:ry="5.0391788"
         sodipodi:type="arc"
         sodipodi:arc-type="arc"
         sodipodi:start="0.249237"
         sodipodi:end="2.8923557"
         sodipodi:open="true"
         d="M 18.864546,18.552128 A 19.466028,5.0391788 0 0 1 0,22.34832 19.466028,5.0391788 0 0 1 -18.864546,18.552128"
         style="fill:none;stroke:#010100;stroke-width:0.264583;stroke-opacity:0.989542"
         id="path705" />
      <path
         sodipodi:cx="0"
         sodipodi:cy="13.978238"
         sodipodi:rx="22.15003"
         sodipodi:ry="5.7338495"
         sodipodi:type="arc"
         sodipodi:arc-type="arc"
         sodipodi:start="0.17596665"
         sodipodi:end="2.965626"
         d="M 21.807984,14.982005 A 22.15003,5.7338495 0 0 1 0,19.712088 22.15003,5.7338495 0 0 1 -21.807984,14.982005"
         style="fill:none;stroke:#010100;stroke-width:0.264583;stroke-opacity:0.989542"
         id="path706"
         sodipodi:open="true" />
      <path
         sodipodi:cx="0"
         sodipodi:cy="10.266045"
         sodipodi:rx="24.229836"
         sodipodi:ry="6.2721429"
         sodipodi:type="arc"
         sodipodi:arc-type="arc"
         sodipodi:start="0.11780571"
         sodipodi:end="3.0237869"
         d="M 24.061897,11.003231 A 24.229836,6.2721429 0 0 1 0,16.538188 24.229836,6.2721429 0 0 1 -24.061897,11.003231"
         style="fill:none;stroke:#010100;stroke-width:0.264583;stroke-opacity:0.989542"
         id="path707"
         sodipodi:open="true" />
    </g>
    <ellipse
       style="display:inline;fill:#ffffff;stroke-width:0.147043"
       id="path2-4-2"
       cx="172.00984"
       cy="119.45662"
       rx="5.2169223"
       ry="6.4269009" />
    <ellipse
       style="display:inline;fill:#1a1a1a;stroke-width:0.0511844"
       id="path2-0-1-6"
       cx="174.51834"
       cy="118.93423"
       rx="1.7859923"
       ry="2.2746897" />
    <ellipse
       style="display:inline;fill:#ffffff;stroke-width:0.0160914"
       id="path2-0-7-3-7-0-1"
       cx="175.14638"
       cy="118.17738"
       rx="1.0109731"
       ry="0.39716804" />
    <path
       id="path5-5"
       style="display:inline;fill:#28170b;stroke-width:0.075792"
       inkscape:transform-center-x="-0.23796474"
       inkscape:transform-center-y="-1.0656959"
       d="m 177.95455,119.42888 0.005,0.16873 2.62606,6.11468 -1.95895,0.24418 -0.0833,0.44243 2.37571,-0.24664 z"
       sodipodi:nodetypes="ccccccc" />
    <path
       style="display:inline;fill:#deaa87;fill-opacity:1;stroke:#e1af88;stroke-width:0.0320626;stroke-opacity:1"
       d="m 178.67532,125.85499 c 0.0122,-0.0451 0.0223,-0.60141 0.0224,-1.23625 3e-4,-1.49328 -0.0814,-2.35127 -0.35179,-3.69673 -0.0613,-0.30504 -0.11109,-0.57196 -0.11062,-0.59317 4.5e-4,-0.0212 0.52055,1.17153 1.15576,2.65052 0.6352,1.479 1.14666,2.69734 1.13656,2.70744 -0.0101,0.0101 -0.43598,0.0705 -0.94642,0.13428 l -0.92806,0.11592 z"
       id="path9" />
    <ellipse
       style="display:inline;fill:#d38d5f;stroke:#040404;stroke-width:0.121778;stroke-opacity:1"
       id="path7-2-2"
       cx="174.27397"
       cy="149.32152"
       rx="3.5023"
       ry="3.8272557" />
    <ellipse
       style="display:inline;fill:#deaa87;stroke:#040404;stroke-width:0.121778;stroke-opacity:1"
       id="path7-2-2-0"
       cx="138.12477"
       cy="144.72282"
       rx="3.5023"
       ry="3.8272557" />
    <path
       style="fill:#272727;fill-opacity:1;stroke:#000000;stroke-width:0.152933px;stroke-linecap:butt;stroke-linejoin:miter;stroke-opacity:1"
       d="m 165.46151,118.59446 -26.28783,-0.43076 -0.69149,3.15137 27.07001,0.44209 z"
       id="path6-3"
       sodipodi:nodetypes="ccccc"
       inkscape:label="RightStrap" />
  </g>
</svg>
