<?xml version="1.0" encoding="UTF-8" standalone="no"?>
<!-- Created with Inkscape (http://www.inkscape.org/) -->

<svg
   width="210mm"
   height="297mm"
   viewBox="0 0 210 297"
   version="1.1"
   id="svg1"
   sodipodi:docname="jail2.svg"
   inkscape:version="1.3.2 (091e20e, 2023-11-25, custom)"
   xmlns:inkscape="http://www.inkscape.org/namespaces/inkscape"
   xmlns:sodipodi="http://sodipodi.sourceforge.net/DTD/sodipodi-0.dtd"
   xmlns="http://www.w3.org/2000/svg"
   xmlns:svg="http://www.w3.org/2000/svg">
  <sodipodi:namedview
     id="namedview1"
     pagecolor="#ffffff"
     bordercolor="#666666"
     borderopacity="1.0"
     inkscape:showpageshadow="2"
     inkscape:pageopacity="0.0"
     inkscape:pagecheckerboard="0"
     inkscape:deskcolor="#d1d1d1"
     inkscape:document-units="mm"
     inkscape:zoom="1.9269913"
     inkscape:cx="385.05623"
     inkscape:cy="417.49022"
     inkscape:window-width="1973"
     inkscape:window-height="1161"
     inkscape:window-x="367"
     inkscape:window-y="2152"
     inkscape:window-maximized="1"
     inkscape:current-layer="layer3" />
  <defs
     id="defs1" />
  <g
     inkscape:label="Back"
     inkscape:groupmode="layer"
     id="layer1"
     style="display:none">
    <rect
       style="fill:#4d4d4d;fill-opacity:1;stroke:#010100;stroke-width:0.1163;stroke-linecap:round;stroke-linejoin:round;stroke-dasharray:none;stroke-opacity:0.989542"
       id="rect11-4"
       width="148.97061"
       height="79.416023"
       x="30.596016"
       y="81.497864"
       inkscape:label="Back" />
    <path
       style="fill:none;stroke:#393939;stroke-width:0.264583px;stroke-linecap:butt;stroke-linejoin:miter;stroke-opacity:1"
       d="m 44.174666,85.809666 c -0.374785,-0.03951 -0.747721,-0.105468 -1.124358,-0.118533 -0.483962,-0.01678 -0.96865,0.06137 -1.452292,0.03704 -0.522227,-0.02627 -1.038667,-0.122756 -1.559378,-0.170391 -0.344424,-0.03151 -0.69165,0.01167 -1.037352,0.02223 -0.442804,0.01355 -0.66032,0.02844 -1.137742,0.01482 -0.607822,-0.01733 -0.500351,-0.05615 -1.02397,-0.03704 -0.180834,0.0066 -0.357542,0.05433 -0.535408,0.08149 -0.534347,0.08158 -0.694703,0.05573 -1.177896,0.474134 -0.156948,0.135903 -0.349501,0.75302 -0.388172,0.874183 -0.374388,1.173035 -0.500407,1.743361 -0.274397,3.007783 0.008,0.04498 0.0893,0.01945 0.133853,0.02963 0.227467,0.05196 0.239014,0.03329 0.394864,0.118534 0.606684,0.331832 1.201359,0.696209 1.85385,0.93345 0.165325,0.06011 0.329804,0.126748 0.501944,0.162983 0.509577,0.107268 1.019876,0.229651 1.539298,0.2667 0.526688,0.15653 1.052738,-0.103672 1.579454,-0.08149 1.476338,0.06217 0.758518,0.119814 2.784123,0.377825 0.195763,0.02492 1.153851,-0.02508 1.291672,-0.02223 0.950688,0.01974 1.90078,0.06188 2.85105,0.09631 0.784339,0.02841 1.56437,0.07408 2.349103,0.07408 0.448402,0 0.897059,0.01503 1.34521,0 0.448792,-0.01505 0.03896,-0.05393 0.287782,-0.07408 0.219742,-0.01781 0.378783,0.02855 0.58895,-0.07408 0.03237,-0.0158 0.01127,-0.192762 0.01339,-0.259291 0.0049,-0.153173 0.02082,-0.306068 0.02008,-0.459317 -0.0043,-0.884087 -0.111418,-1.775706 -0.06023,-2.659591 0.014,-0.241906 0.05294,-0.483508 0.06693,-0.726017 0.0097,-0.167389 0.161565,-0.764114 0,-0.896408 -0.488995,-0.400408 -0.821026,-0.495531 -1.325134,-0.726017 -0.06568,-0.03003 -0.123878,-0.07937 -0.194085,-0.09631 -0.576477,-0.139108 -1.15933,-0.250389 -1.740078,-0.370417 -0.311041,-0.06429 -0.631602,-0.108686 -0.950348,-0.0889 -0.174303,0.01082 -0.349036,0.0205 -0.522023,0.04445 -0.162751,0.02252 -0.318649,0.0849 -0.481867,0.103717 -0.225799,0.02603 -0.462175,0.03075 -0.689338,0.02223 -0.08041,-0.003 -0.160623,-0.01977 -0.240935,-0.01482 -0.562869,0.03462 -1.124357,0.0889 -1.686536,0.13335 z"
       id="path12" />
    <path
       style="fill:none;stroke:#393939;stroke-width:0.264583px;stroke-linecap:butt;stroke-linejoin:miter;stroke-opacity:1"
       d="m 35.828467,94.682732 c 0.06023,0.185208 0.156832,0.362336 0.1807,0.555625 0.06151,0.498115 0.0476,1.002671 0.07362,1.503891 0.05206,1.00267 0.103068,2.00541 0.160623,3.00778 0.0031,0.0546 0.03259,0.766582 0.1807,0.881602 0.494318,0.38384 1.151712,0.28346 1.733386,0.28892 0.723611,0.007 1.453113,0.0654 2.175094,0.0296 0.07612,-0.004 0.151382,-0.0196 0.227547,-0.0222 0.308489,-0.0104 0.621922,0.0183 0.930273,0 0.77026,-0.0457 1.538054,-0.12561 2.308947,-0.16298 0.557112,-0.027 1.115438,0.03 1.673151,0.0222 0.846494,-0.0117 0.405714,-0.0392 0.890116,-0.0815 0.09347,-0.008 0.187817,-0.005 0.281088,-0.0148 0.06547,-0.007 0.128434,-0.0318 0.194085,-0.037 0.52953,-0.0425 1.061816,0.0372 1.59284,0.0519 0.185092,0.005 0.370353,0.003 0.555487,0 0.102722,-0.002 0.205235,-0.0197 0.307859,-0.0148 0.259664,0.0123 0.518403,0.0418 0.776343,0.0741 0.209396,0.0262 0.430829,0.066 0.642487,0.0593 0.09639,-0.003 0.191376,-0.0274 0.287782,-0.0296 0.219385,-0.005 0.361244,0.006 0.555488,0.0667 0.01185,0.004 0.186394,0.0903 0.200776,0.0519 0.123656,-0.33079 0.0531,-0.20969 0.02008,-0.68156 -0.01363,-0.19482 -0.0235,-0.390002 -0.02677,-0.585262 -0.0089,-0.53001 0,-1.06229 0,-1.59279 0,-0.5855 -5.3e-4,-1.15831 -0.03346,-1.74096 -0.0067,-0.16545 -0.01339,-0.33091 -0.02008,-0.496361 -0.0067,-0.04445 -0.01696,-0.08851 -0.02008,-0.13335 -0.01701,-0.244795 0.0181,-0.318487 -0.06023,-0.518584 -0.04771,-0.121867 -0.181446,-0.189261 -0.281088,-0.274108 -0.26262,-0.223618 -0.450249,-0.27781 -0.789728,-0.318558 -0.79029,-0.09486 -1.272622,-0.156049 -2.088092,-0.06668 -1.096746,0.120203 -0.65637,0.145589 -1.264902,0.237066 -0.613666,0.09225 -1.236625,0.152776 -1.85385,0.207434 -1.419731,0.125724 -1.442715,0.108878 -3.172294,0.155575 -0.238614,0.0065 -0.477797,0.01371 -0.716108,0 -0.250343,-0.01439 -0.494209,-0.08623 -0.742878,-0.118534 -0.260234,-0.0338 -0.522298,-0.05181 -0.783034,-0.08149 -0.129702,-0.01476 -0.258123,-0.04055 -0.388171,-0.05186 -0.182509,-0.01588 -0.366048,-0.01677 -0.548793,-0.02963 -0.294331,-0.02074 -0.588336,-0.06774 -0.883423,-0.08149 -0.758153,-0.03534 -1.516739,-0.0485 -2.275485,-0.05927 z"
       id="path13" />
    <path
       style="fill:none;stroke:#393939;stroke-width:0.264583px;stroke-linecap:butt;stroke-linejoin:miter;stroke-opacity:1"
       d="m 76.481579,149.98911 c 0.245949,1.92793 0.129736,3.87439 0.247627,5.80814 0.01505,0.24695 0.07635,1.06814 0.321246,1.30386 0.05429,0.0523 0.187939,0.0639 0.240932,0.0593 0.342615,-0.0297 0.680408,-0.1108 1.02397,-0.12594 0.163888,-0.007 0.324543,0.0624 0.488558,0.0593 3.222643,-0.0615 0.663183,-0.11762 2.824279,-0.13335 1.279353,-0.009 2.586408,0.16791 3.861631,0.0815 0.185742,-0.0126 0.364034,-0.0808 0.548793,-0.10372 1.216903,-0.1506 2.449883,-0.23906 3.67424,-0.31115 1.305451,-0.0769 0.4593,-0.0383 1.278286,-0.0148 0.127106,0.004 0.254691,-0.01 0.381477,0 0.690798,-0.0764 1.346729,0.15033 2.021165,0.21485 1.002525,0.0959 0.239551,-0.034 0.997199,0.11112 0.315809,0.0605 0.636304,0.0845 0.943657,0.18521 0.154768,0.0507 0.304467,0.11587 0.455097,0.1778 0.0062,0.003 0.0122,0.0214 0.01339,0.0148 0.02981,-0.16497 -0.06577,-0.39778 -0.087,-0.526 -0.02844,-0.17168 -0.04933,-0.3449 -0.06023,-0.51858 -0.02927,-0.46624 -0.06346,-0.93303 -0.06023,-1.40017 0.0035,-0.50447 0.04819,-1.00785 0.08031,-1.5113 0.0037,-0.0582 0.22438,-1.48401 -0.0067,-1.75578 -0.02965,-0.0349 -0.0826,-0.0414 -0.127159,-0.0519 -0.134482,-0.0316 -0.30707,8e-4 -0.448405,-0.0148 -0.298109,-0.033 -0.597427,-0.0854 -0.896808,-0.11854 -0.728228,-0.0806 -1.453163,-0.1879 -2.181788,-0.2667 -1.082837,-0.11711 -2.16729,-0.21983 -3.252605,-0.31115 -0.340556,-0.0286 -0.682938,-0.0295 -1.023967,-0.0519 -0.832961,-0.0545 -1.661141,-0.1709 -2.496341,-0.20002 -0.793803,-0.0277 -1.588553,-0.0162 -2.382565,-0.037 -1.282737,-0.0336 0.369208,-0.0299 -0.883425,-0.0444 -0.55149,-0.006 -1.126236,0.0322 -1.679842,0 -0.266994,-0.0156 -0.122849,-0.0188 -0.381479,-0.0741 -0.272881,-0.0583 -0.560361,-0.11037 -0.836576,-0.14816 -0.388739,-0.0532 -0.781918,-0.0781 -1.171204,-0.12594 -0.267356,-0.0329 -0.534157,-0.0886 -0.803111,-0.11854 -0.206912,-0.023 -0.414944,-0.0346 -0.622414,-0.0519 z"
       id="path14" />
    <path
       style="fill:none;stroke:#393939;stroke-width:0.264583px;stroke-linecap:butt;stroke-linejoin:miter;stroke-opacity:1"
       d="m 56.986222,150.63682 c 0.127159,1.35078 0.03932,2.73945 0.381479,4.05236 0.168913,0.64813 0.542687,1.31979 1.110972,1.67428 0.953368,0.5947 3.38827,0.29385 4.370269,0.23707 0.833742,-0.0482 1.757579,-0.0741 2.590035,-0.23707 0.187457,-0.0367 0.370324,-0.0938 0.555488,-0.14076 0.901268,-0.16051 1.798097,-0.34836 2.703811,-0.48154 0.848386,-0.12476 1.469578,-0.008 2.349103,0.0741 0.679659,0.0631 1.376312,0.0909 2.047936,0.21484 0.204547,0.0377 0.40077,0.11165 0.602334,0.16299 0.150054,0.0382 0.32583,0.0405 0.468482,0.10371 0.125423,0.0555 0.215398,0.1617 0.234241,0.12595 0.03786,-0.0719 0.01413,-0.22739 0.0067,-0.30375 -0.06627,-0.67916 -0.205774,-1.35492 -0.200776,-2.03729 0.0062,-0.84813 0.159205,-1.68882 0.234241,-2.53365 0.0049,-0.0551 0.02183,-0.20144 -0.02677,-0.24447 -0.0038,-0.003 -0.0086,0.009 -0.01339,0.007 -0.01087,-0.004 -0.01537,-0.0201 -0.02677,-0.0222 -0.0065,-0.001 -0.007,0.0168 -0.01339,0.0148 -0.02257,-0.007 -0.0368,-0.0345 -0.06023,-0.037 -0.162079,-0.0175 -0.325538,-0.0222 -0.488559,-0.0222 -0.383696,0 0.289036,0.1015 -0.368093,0 -0.110242,-0.017 -0.218626,-0.0444 -0.327938,-0.0667 -0.370324,-0.0667 -0.738569,-0.14617 -1.110972,-0.20003 -0.0729,-0.0106 -0.147236,0.01 -0.220856,0.007 -0.147484,-0.005 -0.295455,-0.01 -0.441711,-0.0296 -1.000707,-0.13428 -0.03909,-0.007 -0.669261,-0.20003 -0.0665,-0.0204 -0.138904,-0.0106 -0.207471,-0.0222 -0.199493,-0.034 -0.51798,-0.14275 -0.689337,-0.14817 -0.584962,-0.1492 -1.164328,0.0611 -1.746769,0.0519 -0.756586,-0.012 -1.508132,-0.1778 -2.2621,-0.1778 -0.06488,0 -0.129389,0.01 -0.194085,0.0148 -0.142774,-0.005 -0.285477,-0.013 -0.428326,-0.0148 -0.637995,-0.008 -1.27772,0.0315 -1.914083,-0.0148 -0.351226,-0.0256 -0.689755,-0.14356 -1.037354,-0.20002 -0.06386,-0.0104 -0.129525,0.004 -0.194086,0 -1.603734,-0.10342 0.08371,0.0138 -0.689337,-0.0889 -0.138396,-0.0184 -0.318662,0.033 -0.441711,0.0444 -0.792753,0.0739 0.233452,-0.0832 -0.903502,0.0741 -0.04373,0.006 -0.08309,0.0344 -0.127159,0.037 -0.167026,0.01 -0.334724,-0.006 -0.501946,0 -0.276871,0.009 -0.553374,0.0276 -0.829882,0.0444 -0.04702,0.003 -0.09416,0.0231 -0.140546,0.0148 -0.08139,-0.0145 -0.153771,-0.0625 -0.234241,-0.0815 -0.206939,-0.0487 0.03303,0.0444 -0.140544,0.0444 -0.07245,0 -0.141997,-0.0434 -0.214162,-0.0371 -0.04572,0.004 -0.07524,0.0589 -0.120467,0.0667 -0.05956,0.0103 -0.124775,-0.0377 -0.1807,-0.0148 -0.175086,0.0717 -0.325708,0.19262 -0.488561,0.28893 z"
       id="path15" />
    <path
       style="fill:none;stroke:#393939;stroke-width:0.264583px;stroke-linecap:butt;stroke-linejoin:miter;stroke-opacity:1"
       d="m 38.372351,150.54898 c -0.671446,-0.40541 -1.976823,-1.22652 -2.65027,-1.46685 -0.218514,-0.078 -0.592921,-0.20784 -0.696032,0 -0.474128,0.9557 -0.553331,2.06071 -0.836575,3.08927 -0.209783,0.76181 -0.444796,1.51673 -0.642488,2.28177 -0.07687,0.29746 -0.123949,0.60187 -0.180699,0.90381 -5.3e-4,0.003 -0.04389,0.2614 -0.02677,0.31115 0.0075,0.0219 0.03038,0.0457 0.05354,0.0444 0.07827,-0.004 0.151411,-0.0406 0.22755,-0.0593 0.09565,-0.0234 0.19073,-0.05 0.287782,-0.0667 0.279254,-0.0479 0.566634,-0.009 0.849961,-0.007 0.187388,0.001 0.374785,0 0.562178,0 0.207471,0.002 0.414933,0.006 0.622412,0.007 0.803986,0.006 -0.03646,-0.0137 1.432216,-0.0445 0.760312,-0.0159 1.482783,0.0523 2.248714,-0.0296 0.409943,-0.0439 0.812292,-0.1418 1.218055,-0.21484 0.889034,-0.16005 1.767125,-0.37787 2.656961,-0.5334 0.362242,-0.0633 0.735246,-0.0484 1.097587,-0.11113 1.35382,-0.23438 0.631302,-0.19222 1.699922,-0.22225 0.469654,-0.0132 0.819031,-0.0338 1.284978,0.0222 0.102642,0.0123 0.200453,0.0508 0.301167,0.0741 0.222975,0.0517 0.338156,0.0777 0.568873,0.0963 1.159957,0.0935 0.891524,0.005 1.920774,0.23707 0.550696,0.12428 1.085086,0.34308 1.646381,0.42227 0.265991,0.0375 0.537392,0.0273 0.803113,0.0667 0.488045,0.0724 0.961493,0.22342 1.405446,0.43709 0.180295,0.0868 0.34087,0.21136 0.522023,0.29633 0.208846,0.098 0.114805,0.0181 0.28109,0.0741 0.01752,0.006 0.02851,0.0319 0.04685,0.0296 0.0381,-0.005 -0.0084,-0.10242 -0.03346,-0.22966 -0.02961,-0.1501 -0.06801,-0.29941 -0.08031,-0.45191 -0.02125,-0.26346 -0.01151,-0.52851 -0.02008,-0.79269 -0.007,-0.21738 -0.02432,-0.43445 -0.02677,-0.65193 -0.0074,-0.66177 0,-1.32363 0,-1.98544 0,-0.38276 0,-0.76552 0,-1.14829 0,-0.20237 0.05321,-0.51326 -0.06023,-0.70379 -0.05431,-0.0912 -0.116636,-0.17739 -0.174008,-0.2667 -0.06142,-0.0956 -0.0113,-0.0646 -0.147238,-0.0889 -0.395298,-0.0706 -0.0099,-0.044 -0.515329,0.0222 -0.06861,0.009 -0.139174,-0.0186 -0.207471,-0.007 -0.271208,0.0443 -0.182504,0.15318 -0.508637,0.1852 -0.173453,0.017 -0.347737,-0.0296 -0.522023,-0.0296 -0.06324,0 -0.124172,0.0312 -0.187394,0.0296 -0.243705,-0.006 -0.48586,-0.0603 -0.729493,-0.0519 -0.187812,0.007 -0.368597,0.0766 -0.555485,0.0963 -0.04936,0.005 -0.09762,-0.0209 -0.147238,-0.0222 -0.144981,-0.004 -0.290618,-0.006 -0.43502,0.007 -0.71442,0.0666 0.823759,0.17475 -0.856652,0.0889 -0.218853,-0.0112 -0.431065,-0.0826 -0.649182,-0.10372 -0.196027,-0.019 -0.663858,0.0148 -0.856654,0.0148 -0.07601,0 -0.151699,-0.01 -0.227547,-0.0148 -0.214165,0.002 -0.42839,0.002 -0.642491,0.007 -0.156281,0.004 -0.312385,0.0309 -0.468482,0.0222 -1.037526,-0.0574 0.09582,-0.10371 -0.930272,-0.10371 -0.06986,0 -0.138086,0.0215 -0.20747,0.0296 -0.162658,0.019 -0.324993,0.0438 -0.488561,0.0519 -0.135938,0.007 -0.272283,-0.0136 -0.408247,-0.007 -0.245938,0.0111 -0.490159,0.0503 -0.736187,0.0593 -0.170408,0.006 -0.590624,-0.03 -0.79642,-0.0148 -0.02698,0.002 -0.352856,0.0593 -0.441711,0.0593 -0.238755,0 -0.479092,0.0139 -0.716108,-0.0148 -0.980435,-0.11893 0.309575,-0.0121 -0.809805,-0.0741 -0.07609,-0.004 -0.151606,-0.0286 -0.22755,-0.0222 -0.13126,0.0111 -0.257775,0.0554 -0.38817,0.0741 -0.05967,0.009 -0.120467,0.005 -0.1807,0.007 -0.06916,-0.002 -0.138964,-0.0172 -0.20747,-0.007 -0.07191,0.0103 -0.137393,0.0475 -0.207471,0.0667 -0.0929,0.0253 -0.19109,0.0324 -0.28109,0.0667 -0.336312,0.12797 -0.300347,0.20735 -0.622411,0.23706 -0.02228,0.002 -0.03805,-0.0267 -0.06023,-0.0296 -0.108598,-0.0145 -0.218591,-0.0291 -0.327938,-0.0222 -0.206623,0.013 -0.410479,0.0543 -0.615719,0.0815 z"
       id="path16" />
    <path
       style="fill:none;stroke:#393939;stroke-width:0.264583px;stroke-linecap:butt;stroke-linejoin:miter;stroke-opacity:1"
       d="m 150.02592,83.869737 c -0.1227,1.51624 -0.41996,3.02841 -0.36809,4.54872 0.007,0.214118 0.32736,0.304418 0.53541,0.355598 0.5118,0.1259 1.0478,0.11592 1.57276,0.16298 0.52003,0.0466 1.04395,-0.0296 1.56607,-0.0296 0.82095,0.0124 1.64191,0.0247 2.46287,0.037 0.24094,0.01 0.4817,0.0259 0.72281,0.0296 3.0947,0.0484 -1.0936,-0.0519 2.73727,-0.0519 0.2371,0 0.47261,0.04 0.70941,0.0519 0.88608,0.0443 -0.47555,-0.10081 1.03066,0.037 0.33335,0.0305 0.66458,0.081 0.9972,0.11853 0.57887,0.0654 0.0479,7.9e-4 0.64249,0.037 0.41745,0.0254 0.83425,0.0607 1.25152,0.0889 0.20993,0.0142 0.9647,0.0566 1.18459,0.0741 0.18095,0.0144 0.36182,0.0306 0.5421,0.0519 0.092,0.0109 0.18201,0.0374 0.2744,0.0444 0.39211,0.03 0.7852,0.0456 1.17789,0.0667 0.36869,0.0198 0.89317,0.007 1.27829,0.0963 0.11451,0.0265 0.22732,0.0632 0.33463,0.11112 0.023,0.0103 0.0407,0.0837 0.0469,0.0593 0.0132,-0.0521 -0.003,-0.29248 -0.007,-0.37783 -0.0205,-0.48646 -0.0443,-0.972798 -0.0602,-1.459438 -0.0199,-0.60915 0.0321,-1.22129 -0.007,-1.82986 -0.0274,-0.42963 -0.12929,-0.93445 0.087,-1.3335 0.006,-0.0115 -2.6e-4,0.0381 -0.0134,0.037 -0.0558,-0.005 -0.11234,-0.004 -0.16731,-0.0148 -0.035,-0.007 -0.0655,-0.0295 -0.10039,-0.037 -0.10755,-0.0232 -0.21945,-0.0188 -0.32794,-0.037 -0.11432,-0.0192 -0.22757,-0.0443 -0.34132,-0.0667 -0.30119,-0.0591 -0.60102,-0.12564 -0.9035,-0.1778 -0.49098,-0.0847 -0.99312,-0.11115 -1.48576,-0.18521 -0.18627,-0.028 -0.36983,-0.0719 -0.55548,-0.10371 -0.48603,-0.0833 -0.96926,-0.18685 -1.45899,-0.24448 -0.68682,-0.0808 -1.4446,-0.0377 -2.14163,-0.0667 -0.25218,-0.0105 -0.50436,-0.0215 -0.75627,-0.0371 -0.15878,-0.01 -0.31617,-0.0395 -0.47517,-0.0444 -0.3144,-0.01 -0.62948,0.0153 -0.94366,0 -0.64788,-0.0316 -1.29322,-0.1044 -1.94085,-0.14075 -0.4524,-0.0254 -0.9064,-0.0159 -1.3586,-0.0444 -0.13542,-0.009 -0.26737,-0.0466 -0.40156,-0.0667 -0.34964,-0.0524 -0.70966,-0.10452 -1.06412,-0.11853 -0.30245,-0.012 -0.60747,0 -0.9102,0 -0.18243,0 -0.6967,-10e-4 -0.78972,0.007 -0.19853,0.0183 -0.40054,0.10882 -0.60234,0.11853 -0.1992,0.01 -0.40805,0.009 -0.60233,-0.0296 -0.0678,-0.0135 -0.13239,-0.0419 -0.20078,-0.0519 -0.0508,-0.007 -0.10361,0.01 -0.15393,0 -0.0553,-0.011 -0.33591,-0.12596 -0.38148,-0.0963 -0.22794,0.14829 -0.42386,0.34078 -0.6358,0.51117 z"
       id="path17" />
    <path
       style="fill:none;stroke:#393939;stroke-width:0.264583px;stroke-linecap:butt;stroke-linejoin:miter;stroke-opacity:1"
       d="m 53.63325,90.521365 c -0.191958,1.809597 -0.45116,3.586583 -0.267706,5.4229 0.01114,0.111424 0.222653,0.02921 0.334632,0.02963 0.535453,0.0021 1.07092,-0.0093 1.606222,-0.02223 0.283509,-0.0068 0.566378,-0.03517 0.849961,-0.03704 0.09199,-5.29e-4 0.183176,0.0177 0.274397,0.02963 0.658365,0.08607 0.392903,0.05272 0.870039,0.13335 0.141939,0.024 0.642015,0.117684 0.863344,0.125942 0.303228,0.01132 0.607716,-0.0093 0.910196,0.01482 1.365239,0.108792 2.729314,0.237316 4.089177,0.40005 0.961274,0.115036 1.900809,0.371909 2.864435,0.466725 0.465116,0.04577 0.938022,0.03704 1.405445,0.03704 0.167315,0 0.335257,-0.01445 0.501947,0 0.318357,0.02761 0.633142,0.08729 0.950349,0.125942 0.327803,0.03995 0.663961,0.05133 0.990504,0.103716 0.11185,0.01794 0.225455,0.02905 0.33463,0.05927 0.104642,0.02896 0.335629,0.1533 0.46179,0.13335 0.0049,-7.94e-4 -5.29e-4,-0.0099 0,-0.01482 0.01498,-0.111215 0.04148,-0.221286 0.04685,-0.333375 0.01831,-0.382352 0.0069,-0.765556 0.01339,-1.148291 0.01085,-0.636368 0.03988,-1.276221 0.08701,-1.91135 0.02164,-0.29182 0.06015,-0.582258 0.08031,-0.874184 0.0066,-0.09608 -0.004,-0.192701 0,-0.288925 0.02514,-0.596132 0.07779,-1.3873 0.167315,-1.955799 0.0259,-0.164571 0.09045,-0.320697 0.13385,-0.481542 0.0079,-0.02933 0.01074,-0.05999 0.02008,-0.0889 0.0019,-0.0059 0.02437,-0.01749 0.01339,-0.02963 -0.02267,-0.02511 -0.06846,-0.0037 -0.100388,-0.01482 -0.21276,-0.07437 -0.444852,-0.07957 -0.669261,-0.103717 -0.264597,-0.02847 -0.518049,-0.03926 -0.783035,-0.01482 -0.122795,0.01132 -0.244895,0.03162 -0.368093,0.03704 -0.257276,0.01132 -1.061374,0.01267 -1.378675,0.02963 -0.430811,0.02302 -0.37868,0.04499 -0.809805,0.09631 -0.186391,0.02217 -0.522407,0.02024 -0.669261,0.02223 -0.792469,0.01077 -1.583857,0.02032 -2.375874,0.05186 -0.931894,0.0371 -1.858179,0.08149 -2.790814,0.08149 -1.100781,0 -0.07533,0.0083 -2.094786,-0.08149 -0.07577,-0.0034 -0.152257,-0.0092 -0.227547,0 -0.412789,0.05044 -0.817872,0.156425 -1.231439,0.200025 -0.640874,0.06756 -1.445953,0.126884 -2.088092,0.0889 -0.178991,-0.01058 -0.358264,-0.0241 -0.535408,-0.05186 -0.230111,-0.03606 -0.47062,-0.150826 -0.702723,-0.200025 -0.254788,-0.05401 -0.518517,-0.03704 -0.77634,-0.03704 z"
       id="path18" />
    <path
       style="fill:none;stroke:#393939;stroke-width:0.264583px;stroke-linecap:butt;stroke-linejoin:miter;stroke-opacity:1"
       d="m 153.48722,150.98713 c 0.36387,1.91153 0.007,3.90172 0.33463,5.81554 0.027,0.15754 0.22844,0.27574 0.38817,0.28152 0.42342,0.0153 0.83024,-0.17698 1.25152,-0.22225 0.2706,-0.0291 0.54479,0.0158 0.81649,0 0.49419,-0.0287 0.9867,-0.0821 1.47907,-0.13335 0.36217,-0.0377 0.72088,-0.1092 1.0842,-0.13335 0.38067,-0.0253 0.76296,-0.01 1.14443,-0.0148 0.9971,-0.0129 1.81126,-0.007 2.83098,-0.11112 0.52743,-0.0538 1.0485,-0.15805 1.57276,-0.23707 0.61795,-0.0741 1.23404,-0.16579 1.85385,-0.22225 1.32125,-0.12036 0.33536,0.0624 1.59953,-0.0222 0.22488,-0.0151 0.44544,-0.0698 0.66926,-0.0963 0.5085,-0.0602 0.73297,-0.0568 1.25821,-0.0815 0.14281,-0.007 0.28654,-0.0406 0.42832,-0.0222 0.0871,0.0113 1.27169,0.30302 1.42553,0.39264 0.38805,0.22608 0.76991,0.56442 1.21136,0.65934 0.18479,0.0397 0.37455,0.0512 0.56218,0.0741 0.0191,0.002 0.31683,0.0502 0.37478,0.007 0.38548,-0.28446 0.0121,-0.9585 -0.007,-1.43721 -0.0312,-0.79386 -0.13278,-1.58029 -0.20078,-2.37067 -0.0371,-0.43084 -0.0578,-0.86488 -0.087,-1.29646 -0.0337,-0.49896 -0.082,-0.99701 -0.10708,-1.49648 -0.0238,-0.47379 -0.0272,-0.94842 -0.0468,-1.4224 -0.002,-0.0496 -0.0527,-0.0341 -0.087,-0.0445 -0.17547,-0.053 -0.3875,-0.15505 -0.56887,-0.17039 -0.54026,-0.0457 -1.0844,-0.0119 -1.6263,-0.0296 -0.37304,-0.0122 -1.28276,-0.0987 -1.76685,-0.0667 -2.35549,0.15592 -0.99784,0.0831 -2.02116,0.16298 -0.31256,0.0244 -0.99811,0.0825 -1.32514,0.0741 -2.40371,-0.0617 -0.38218,-0.10964 -2.75066,-0.0741 -0.70145,0.0105 -1.41314,0.0742 -2.11486,0.0148 -0.82938,-0.0702 -1.68333,-0.18359 -2.51642,-0.27411 -0.12507,-0.0136 -0.25071,-0.0237 -0.37479,-0.0444 -0.19388,-0.0324 -0.37735,-0.1112 -0.56887,-0.15557 -0.0681,-0.0158 -0.13843,-0.0189 -0.20747,-0.0296 -0.16967,-0.0263 -0.33743,-0.0684 -0.50863,-0.0815 -0.18462,-0.0141 -0.37039,0.005 -0.55549,0 -1.05606,-0.0264 0.90356,-0.0627 -1.21805,-0.0222 -0.25471,0.005 -0.50838,0.0351 -0.76296,0.0445 -0.21154,0.008 -0.31335,-0.0257 -0.57556,-0.0445 -0.0556,-0.004 -0.11167,0.004 -0.16732,0 -0.0647,-0.004 -0.251,-0.0447 -0.32124,-0.0222 -0.16944,0.0543 -0.11588,0.38874 -0.12047,0.52599 -0.0138,0.41255 0.1572,0.81246 0.16062,1.23719 8e-4,0.0971 -0.12658,0.5233 -0.0803,0.63712 0.0643,0.15814 0.16063,0.30127 0.24093,0.45191 z"
       id="path19" />
    <path
       style="fill:none;stroke:#393939;stroke-width:0.264583px;stroke-linecap:butt;stroke-linejoin:miter;stroke-opacity:1"
       d="m 131.69487,129.94323 c -0.0693,1.25928 -0.2312,3.85787 -0.19409,4.96358 0.0191,0.56811 0.0188,1.16309 0.23424,1.6891 0.0613,0.14976 0.32031,0.0499 0.48187,0.0593 2.00249,0.11602 1.46391,0.0887 3.01836,0.0519 0.37253,-0.009 0.74555,-0.003 1.11767,-0.0222 0.24186,-0.0126 0.4812,-0.0571 0.7228,-0.0741 0.64464,-0.0452 1.27585,-0.02 1.92078,-0.0148 0.35915,0.003 0.71855,-0.0123 1.0775,0 1.45622,0.0502 -0.20868,0.0798 1.35191,0.10372 0.40823,0.006 0.8166,-0.025 1.22475,-0.0148 0.18615,0.005 0.36977,0.0457 0.55548,0.0593 0.12578,0.009 0.70611,-0.0145 0.7295,-0.0148 0.21084,-0.002 0.4025,0.0444 0.60902,0.0667 0.21141,0.0228 0.4255,0.0204 0.6358,0.0519 0.12117,0.0181 0.23585,0.0666 0.35471,0.0963 0.62784,0.15693 -0.17467,-0.0821 0.71611,0.22225 0.0939,0.0321 0.37681,0.0949 0.42832,-0.0444 0.0471,-0.12747 0.0102,-0.27161 0.0134,-0.40746 0.0124,-0.53337 0.006,-1.06741 0.0335,-1.6002 0.0233,-0.44659 0.10446,-0.88835 0.14724,-1.3335 0.0951,-0.99006 0.003,-0.10112 0.0803,-1.14088 0.039,-0.52117 0.0462,-0.44496 0.12047,-0.96309 0.11529,-0.80482 0.23954,-1.60847 0.34132,-2.41511 0.01,-0.0784 0.015,-0.16105 -0.007,-0.23707 -0.007,-0.0251 -0.11741,-0.0612 -0.14054,-0.0667 -0.29917,-0.0702 -0.60558,-0.12428 -0.9102,-0.16298 -0.20919,-0.0266 -0.41823,-0.0667 -0.6291,-0.0667 -0.72661,0 -1.45452,0.11871 -2.18179,0.13335 -1.19508,0.0241 -0.56464,-0.006 -1.74008,-0.0519 -0.35001,-0.0138 -0.70178,0.0157 -1.05073,-0.0148 -0.55124,-0.0482 -1.09388,-0.11796 -1.64638,-0.14817 -0.44331,-0.0242 -0.89011,0.0298 -1.33183,-0.0148 -0.4496,-0.0454 -0.89327,-0.13772 -1.33852,-0.21484 -0.33763,-0.0585 -0.67193,-0.13724 -1.01059,-0.19262 -0.33485,-0.0548 -0.67054,-0.0991 -1.00389,-0.16298 -0.70657,-0.13537 -1.48343,-0.32416 -2.17509,-0.037 -0.0109,0.005 -0.11168,0.0595 -0.12716,0.0889 -0.008,0.0154 0.002,0.0365 -0.007,0.0519 -0.0527,0.0993 -0.11347,0.19419 -0.17401,0.28893 -0.0217,0.034 -0.0552,0.0753 -0.0669,0.11853 -0.0136,0.0502 0.005,0.10673 -0.0134,0.15558 -0.0183,0.0497 -0.0537,0.0917 -0.0736,0.14075 -0.0204,0.0502 -0.0312,0.10372 -0.0468,0.15558 -0.0246,0.0667 -0.0463,0.13445 -0.0736,0.20002 -0.0263,0.063 -0.0895,0.11705 -0.087,0.18521 0.007,0.18168 0.0759,0.3556 0.11377,0.5334 z"
       id="path20" />
    <path
       style="fill:none;stroke:#393939;stroke-width:0.264583px;stroke-linecap:butt;stroke-linejoin:miter;stroke-opacity:1"
       d="m 143.42523,141.44308 c 0.14114,2.42719 -0.70172,3.43458 1.70662,4.09681 0.52485,0.14432 1.0894,-0.0359 1.63299,-0.007 4.76383,0.24982 2.14097,0.10942 4.89229,0.49636 0.11057,0.0155 0.22312,0.009 0.33463,0.0148 0.32797,0.0166 0.65618,0.0295 0.98381,0.0519 0.25551,0.0174 0.75887,0.10721 0.95035,0.13335 0.29626,0.0405 0.59342,0.074 0.89012,0.11113 1.02962,0.12878 2.05763,0.27227 3.08529,0.41486 0.20712,0.0287 0.41795,0.0525 0.62241,0.0963 0.16544,0.0355 0.32876,0.0811 0.49525,0.11113 0.0395,0.007 0.093,0.0293 0.12047,0 0.12792,-0.13636 0.0848,-0.63706 0.0803,-0.82974 -0.0257,-1.09025 -0.0625,-1.43841 -0.0268,-2.43734 0.0241,-0.67458 0.1146,-1.34557 0.20078,-2.01506 0.0688,-0.53448 0.21416,-1.22976 0.21416,-1.53353 0,-0.0247 0.009,0.051 0,0.0741 -0.0232,0.0617 -0.065,0.0553 -0.12716,0.0593 -0.12254,0.008 -0.24591,0.003 -0.36809,0.0148 -0.0503,0.005 -0.097,0.0434 -0.14724,0.037 -0.26618,-0.0337 -0.52219,-0.13534 -0.78973,-0.15558 -0.4538,-0.0343 -0.91036,0.005 -1.36528,-0.007 -0.0768,-0.002 -0.15071,-0.037 -0.22755,-0.037 -0.26459,0 -0.65075,0.0593 -0.78304,0.0593 -0.0762,0 -0.15141,-0.019 -0.22755,-0.0222 -2.19553,-0.0939 -0.47681,-0.046 -2.7975,0.0815 -0.0963,0.005 -0.19149,-0.0245 -0.28779,-0.0296 -0.79655,-0.0425 0.59967,0.14162 -1.12435,-0.0519 -0.43596,-0.0489 -0.52706,-0.13788 -0.90351,-0.13335 -0.10308,0.001 -0.205,0.0227 -0.30786,0.0296 -0.30537,0.0206 -0.85411,0.0495 -1.15782,0.0296 -0.37137,-0.0243 -0.74052,-0.0753 -1.11097,-0.11112 -0.81461,-0.0788 -1.62851,-0.1489 -2.43611,-0.28152 -0.26304,-0.0432 -0.52728,-0.0792 -0.78972,-0.12594 -0.1816,-0.0323 -0.36171,-0.0726 -0.5421,-0.11113 -0.0739,-0.0158 -0.1456,-0.0445 -0.22086,-0.0519 -0.0276,-0.003 -0.0525,0.0222 -0.0803,0.0222 -0.0829,0 -0.16543,-0.0116 -0.24763,-0.0222 -0.0142,-0.002 -0.026,-0.0164 -0.0402,-0.0148 -0.0326,0.004 -0.0611,0.0262 -0.0937,0.0296 -0.0843,0.009 -0.18889,-0.0465 -0.25432,0.007 -0.0812,0.067 -0.13895,0.55747 -0.14054,0.68157 -0.0136,1.05699 -0.18064,0.66388 0.38817,1.32609 z"
       id="path21" />
    <path
       style="fill:none;stroke:#393939;stroke-width:0.264583px;stroke-linecap:butt;stroke-linejoin:miter;stroke-opacity:1"
       d="m 158.28198,93.897455 c 0.002,0.17644 -0.0224,3.50908 0.14724,4.29683 0.0188,0.0872 0.13989,0.12432 0.22755,0.14076 0.328,0.0615 0.6675,0.0373 0.99719,0.0889 1.1057,0.17321 2.20194,0.40279 3.30615,0.58526 0.276,0.0456 0.558,0.0411 0.83657,0.0667 0.43499,0.0399 0.87035,0.0758 1.30506,0.11853 0.78915,0.0776 0.28913,0.0561 1.39875,0.12595 0.31187,0.0196 0.62462,0.0206 0.93697,0.0296 1.21358,0.0351 2.42768,0.0547 3.64078,0.10372 0.37787,0.0153 0.75355,0.0661 1.13104,0.0889 0.43116,0.026 0.87297,0 1.30506,0 0.28109,0 0.56218,0 0.84327,0 0.0848,0 0.17003,-0.009 0.25432,0 0.60091,0.0645 1.20001,0.14489 1.80031,0.21484 0.22838,0.0266 0.43155,0.1159 0.66256,0.14076 0.17676,0.019 0.33601,-0.0441 0.50864,-0.0519 0.20616,-0.009 0.41577,0 0.62241,0 0.007,0 -0.0173,0.006 -0.0201,0 -0.006,-0.0137 -0.003,-0.03 -0.007,-0.0444 -0.0294,-0.10425 -0.0702,-0.20543 -0.0937,-0.31115 -0.0546,-0.24534 -0.0973,-0.49324 -0.14054,-0.74084 -0.16567,-0.94856 -0.19512,-1.99596 -0.26771,-2.95592 -0.0402,-0.53177 -0.0854,-1.06233 -0.14054,-1.59279 -0.0688,-0.66235 -0.0111,-1.07975 -0.33463,-1.5928 -0.0368,-0.0583 -0.0838,-0.10943 -0.12716,-0.16298 -0.0147,-0.0181 -0.0248,-0.0443 -0.0468,-0.0519 -0.0753,-0.0259 -0.2955,-0.0108 -0.35471,-0.007 -0.2321,0.0133 -0.46397,0.0585 -0.69603,0.0444 -0.83211,-0.0503 -1.65992,-0.15635 -2.48964,-0.23707 -0.66021,-0.0642 -1.31665,-0.0861 -1.98101,-0.13335 -0.9776,-0.0696 -2.73732,-0.29706 -3.353,-0.37041 -0.47865,-0.057 -0.95476,-0.1337 -1.43222,-0.20003 -0.93046,-0.12925 -1.00974,-0.12558 -2.20186,-0.32596 -0.18138,-0.0305 -0.35484,-0.0984 -0.53541,-0.13335 -0.41005,-0.0794 -0.8257,-0.12664 -1.23813,-0.19262 -0.24544,-0.0393 -0.48985,-0.0854 -0.73619,-0.11853 -0.15766,-0.0212 -0.3174,-0.024 -0.47517,-0.0444 -0.50453,-0.0652 -0.99907,-0.20197 -1.51253,-0.1704 -0.20738,0.0128 -0.64832,0.0229 -0.84996,0.18521 -0.0761,0.0613 -0.16606,0.11175 -0.22085,0.19262 -0.08,0.11807 -0.0937,0.3707 -0.11378,0.50377 -0.0192,0.12739 -0.0585,0.25094 -0.0736,0.37782 -0.0439,0.36777 -0.0456,0.74256 -0.12716,1.10384 -0.08,0.35413 -0.23647,0.68651 -0.35471,1.02977 z"
       id="path23" />
    <path
       style="fill:none;stroke:#393939;stroke-width:0.264583px;stroke-linecap:butt;stroke-linejoin:miter;stroke-opacity:1"
       d="m 135.02649,91.523605 c -0.0602,1.41993 -0.36261,2.85027 -0.1807,4.25979 0.12747,0.9877 1.54438,0.94531 2.10817,0.889 1.98173,-0.19794 3.94845,-0.52493 5.92295,-0.78528 0.34783,-0.0459 0.69446,-0.10371 1.04405,-0.13335 0.1756,-0.0149 0.35251,0.004 0.52871,0 0.1719,-0.004 0.3434,-0.0235 0.51533,-0.0222 0.28292,0.002 0.77949,0.0556 1.05744,0.0741 1.21611,0.0808 2.48515,0.17928 3.701,0.20743 1.11295,0.0258 2.22636,0.0296 3.33961,0.0296 0.0942,0 0.18739,-0.0198 0.28109,-0.0296 0.17624,-0.007 0.35242,-0.0281 0.52872,-0.0222 0.52522,0.0174 1.01631,0.09 1.5326,0.11853 0.16299,0.009 0.3947,-0.0598 0.55549,-0.007 0.0673,0.0219 0.10934,0.12086 0.18739,0.12594 0.002,1.1e-4 0.0251,-0.0546 0.0134,-0.16298 -0.0421,-0.38809 -0.0985,-0.77439 -0.13385,-1.16311 -0.0823,-0.90527 -0.12525,-1.82391 -0.12047,-2.73367 0.001,-0.25933 0.009,-0.51859 0.0134,-0.77788 0.002,-0.121 0.0282,-0.24391 0.007,-0.36301 -0.003,-0.019 -0.0215,0.19003 -0.14724,0.20744 -0.12922,0.0179 -0.18541,-0.0498 -0.30116,-0.10372 -0.0633,-0.0295 -0.16114,-0.0405 -0.22755,-0.0444 -0.73905,-0.0437 -1.47618,-0.031 -2.21525,-0.0667 -1.16178,-0.0561 -2.32578,-0.0641 -3.48685,-0.13335 -0.34299,-0.0204 -0.68199,-0.0852 -1.02397,-0.11853 -0.46848,-0.0395 -0.93696,-0.079 -1.40544,-0.11853 -0.11378,-0.005 -0.22777,-0.006 -0.34133,-0.0148 -0.55489,-0.0417 -1.16752,-0.13261 -1.69992,-0.22966 -0.95946,-0.17488 -1.91455,-0.37298 -2.87112,-0.56303 -0.51325,-0.10197 -1.02102,-0.25887 -1.5393,-0.33338 -1.69654,-0.24389 0.0275,0.0376 -0.7228,-0.0593 -0.0718,-0.009 -0.14278,-0.0247 -0.21417,-0.037 -0.46848,-0.0444 -0.93722,-0.0862 -1.40544,-0.13335 -0.0717,-0.007 -0.14227,-0.0247 -0.21417,-0.0296 -0.44958,-0.0311 -0.90127,0.01 -1.3519,0.0148 -0.29377,0.003 -1.35983,0.14563 -1.55269,0.4445 -0.16119,0.2498 -0.1743,1.59748 -0.1807,1.81504 z"
       id="path24" />
    <path
       style="fill:none;stroke:#393939;stroke-width:0.264583px;stroke-linecap:butt;stroke-linejoin:miter;stroke-opacity:1"
       d="m 88.282557,120.34415 c 0.08031,0.85443 0.160623,1.70886 0.240932,2.56328 0.08254,1.3582 0.122277,2.71967 0.247626,4.07459 0.02671,0.28865 0.09242,0.57847 0.207474,0.84455 0.03735,0.0864 0.266099,-0.0148 0.428326,-0.037 0.821817,-0.11278 1.655963,-0.0472 2.482955,-0.0741 0.990823,-0.0323 1.740601,-0.0688 2.764044,-0.0148 0.735804,0.0388 0.86673,0.1187 1.492449,0.0963 1.024278,-0.0367 2.047644,-0.0963 3.071905,-0.13335 0.316814,-0.0115 0.633833,-0.055 0.950352,-0.037 0.47116,0.0267 0.93693,0.11382 1.40544,0.17039 0.14498,0.0175 0.29171,0.0238 0.43502,0.0519 0.39934,0.0782 0.7912,0.19239 1.19129,0.2667 0.42451,0.0789 0.71403,0.0551 1.09758,0.17039 0.45761,0.13761 0.91191,0.28616 1.36529,0.4371 0.21432,0.0713 0.41463,0.18101 0.62911,0.25188 0.0759,0.0251 0.15633,0.0338 0.23424,0.0519 0.56374,0.13048 0.34772,0.12859 0.78972,0.11112 0.0306,-0.001 0.0994,0.0109 0.11378,-0.037 0.14133,-0.46933 -0.11993,-1.25393 -0.14054,-1.51871 -0.043,-0.55185 -0.0545,-1.10598 -0.0602,-1.65946 -0.007,-0.68022 0.0472,-2.2895 0.0736,-3.00038 0.0111,-0.29913 0.0427,-0.59727 0.0535,-0.89641 0.005,-0.13573 0.0422,-0.27838 0,-0.40746 -0.0533,-0.16283 -0.1704,-0.0935 -0.26102,-0.0889 -0.40586,0.0206 -0.81217,0.0315 -1.21805,0.0519 -0.0872,0.004 -0.17401,0.0148 -0.26101,0.0222 -0.58449,0.0247 -1.16879,0.0543 -1.75346,0.0741 -0.6065,0.0205 -1.21372,-0.008 -1.82039,-0.0222 -1.81808,-0.0435 -4.409131,-0.10237 -6.197349,-0.2593 -1.334415,-0.1171 -3.263328,-0.60923 -4.470656,-0.85195 -0.161139,-0.0324 -0.32698,-0.0366 -0.488561,-0.0667 -0.05115,-0.01 -0.09588,-0.0435 -0.147236,-0.0519 -0.0051,-7.9e-4 -0.528005,-0.0295 -0.528717,-0.0296 -0.264099,-0.0333 -0.526126,-0.0815 -0.789725,-0.11853 -0.03217,-0.005 -0.121627,-0.0142 -0.147238,0 -0.01304,0.007 -0.01881,0.027 -0.03346,0.0296 -0.07939,0.0143 -0.180554,-0.0312 -0.240935,0.0222 -0.06077,0.0538 -0.115276,0.11435 -0.174008,0.1704 -0.01204,0.0115 -0.02392,0.0332 -0.04016,0.0296 -0.0511,-0.0113 0.03718,-0.0572 0.07362,-0.037"
       id="path25" />
    <path
       style="fill:none;stroke:#393939;stroke-width:0.264583px;stroke-linecap:butt;stroke-linejoin:miter;stroke-opacity:1"
       d="m 101.25549,112.78235 c -0.0156,1.08656 -0.0221,2.17329 -0.0468,3.25967 -0.0131,0.57566 -0.0617,1.15035 -0.0669,1.72614 -0.002,0.16618 0.0251,0.33161 0.0468,0.49636 0.005,0.0383 0.008,0.0817 0.0335,0.11113 0.056,0.0655 0.13401,0.10846 0.20077,0.16298 0.0693,0.0566 0.12137,0.14602 0.20747,0.17039 1.89979,0.53778 1.01924,0.22818 2.6302,0.33338 1.10443,0.0721 1.59548,0.24453 2.68373,0.1778 0.56841,-0.0349 1.1318,-0.13109 1.69992,-0.1704 0.10728,-0.007 0.21406,-0.0383 0.32124,-0.0296 0.68884,0.0557 1.3738,0.15215 2.06132,0.22225 0.29554,0.0301 0.60145,0.034 0.89681,0.0741 0.40659,0.0552 0.81316,0.11133 1.21806,0.1778 0.12186,0.02 0.24012,0.0582 0.3614,0.0815 0.33724,0.0647 0.69004,0.12011 1.03066,0.17039 0.21003,0.031 0.14658,-7e-5 0.42832,0.0296 0.13862,0.0146 0.28047,0.0885 0.41494,0.0519 0.34633,0.28358 0.24419,-0.15799 0.38148,-0.20003 0.0908,-0.0278 0.44547,-0.0338 0.53541,-0.13335 0.10766,-0.11916 0.14143,-0.52112 0.15393,-0.60007 0.0386,-0.24372 0.0616,-0.48974 0.10039,-0.73343 0.64864,-4.07446 0.3236,-1.65711 0.50195,-3.16335 0.0442,-0.37295 0.0917,-0.74549 0.13385,-1.11866 0.0151,-0.13379 0.0823,-0.48408 0,-0.65194 -0.0268,-0.0547 -0.31213,-0.023 -0.37479,-0.0222 -0.36314,0.005 -0.72202,-0.0762 -1.0842,-0.0519 -2.25313,0.15146 -0.58087,0.05 -2.42941,0.22225 -0.87073,0.0811 -1.749,0 -2.6235,0 -1.22632,0 1.77097,0.18398 -1.72,-0.0444 -3.33447,-0.30131 0.54878,0.0271 -2.44949,-0.16298 -0.44266,-0.0281 -1.66767,-0.2789 -1.84047,-0.30374 -0.26634,-0.0383 -0.53584,-0.0503 -0.80311,-0.0815 -0.35145,-0.041 -0.66775,-0.13846 -0.9972,-0.2667 -0.0796,-0.031 -0.1516,-0.0822 -0.23424,-0.10371 -0.0714,-0.0186 -0.14758,-0.006 -0.22085,-0.0148 -0.21883,-0.0258 -0.19253,-0.17948 -0.56218,-0.037 -0.22541,0.0869 -0.39264,0.28152 -0.58895,0.42227 z"
       id="path26" />
    <path
       style="fill:none;stroke:#393939;stroke-width:0.264583px;stroke-linecap:butt;stroke-linejoin:miter;stroke-opacity:1"
       d="m 97.206463,119.1387 c 0.204359,-5.51205 -0.203663,-3.70348 0.43502,-6.43043 0.0011,-0.005 0.0033,0.0111 0,0.0148 -0.01775,0.0197 -0.03383,0.0497 -0.06023,0.0519 -0.188984,0.0156 -0.379249,0 -0.568873,0 -0.502745,0 -0.226692,0.016 -0.662567,-0.0371 -0.787064,-0.0957 -1.583563,-0.14935 -2.369182,-0.25188 -0.128934,-0.0168 -0.254318,-0.0543 -0.381476,-0.0815 -0.421635,-0.0519 -0.842243,-0.11288 -1.264902,-0.15558 -0.778766,-0.0787 -0.36595,0.0564 -1.405448,-0.0222 -0.579969,-0.0439 -1.158417,-0.11224 -1.733383,-0.20003 -0.404413,-0.0617 -0.791271,-0.22248 -1.197975,-0.2667 -1.92745,-0.20952 -3.851233,-0.50277 -5.789099,-0.56303 -0.712986,-0.0222 -1.42866,2.6e-4 -2.141633,-0.0148 -0.535556,-0.0114 -1.068462,-0.13191 -1.606225,-0.0148 -0.160861,0.035 -0.478708,0.092 -0.575564,0.25929 -0.1006,0.17372 -0.02916,0.67151 -0.03346,0.83714 -0.03855,1.48445 -0.10405,2.96809 -0.147236,4.45241 -0.0013,0.0496 0.0088,0.0988 0.01339,0.14817 0.0074,0.0803 0.01979,0.63649 0.113774,0.84455 0.04972,0.11007 0.304366,0.12744 0.394864,0.14816 0.507569,0.11625 1.033325,0.22173 1.54599,0.31856 1.206068,0.22781 2.417376,0.34244 3.640775,0.43709 0.109098,0.008 0.218625,0.01 0.327937,0.0148 0.923579,0.0568 1.848761,0.0918 2.770738,0.17039 0.642488,0.0548 1.278483,0.17264 1.920777,0.22966 0.581052,0.0516 1.171811,-0.0202 1.75346,0.0148 0.536083,0.0322 1.070055,0.0952 1.606225,0.12594 0.516924,0.0297 1.035195,0.0273 1.552683,0.0444 0.254289,0.008 0.508593,0.0166 0.762958,0.0222 0.08252,0.002 0.165896,0.0116 0.247626,0 0.233905,-0.0331 0.463825,-0.0899 0.696029,-0.13335 0.09797,-0.0183 0.197974,-0.0269 0.294476,-0.0519 0.201607,-0.0521 0.333589,-0.12507 0.535408,-0.13335 0.0087,-2.6e-4 0.0067,0.0167 0.01339,0.0222 0.04182,0.0347 0.117771,-0.005 0.160623,0.0148 0.0067,0.003 -0.005,0.0167 0,0.0222 0.0031,0.003 0.08614,7.9e-4 0.087,0 0.0074,-0.007 -0.0093,-0.0262 0,-0.0296 0.0376,-0.0139 0.193715,0.003 0.214162,0.0148 0.0595,0.0329 -0.04262,-0.004 0.03346,0.0296 0.01445,0.006 0.03896,-0.005 0.05354,0 0.03123,0.0115 0.216924,0.1785 0.234241,0.1778 0.176372,-0.007 0.352476,-0.0198 0.528715,-0.0296 z"
       id="path27" />
    <path
       style="fill:none;stroke:#393939;stroke-width:0.264583px;stroke-linecap:butt;stroke-linejoin:miter;stroke-opacity:1"
       d="m 90.835109,109.06337 c 0.223086,-1.22484 0.456591,-2.44784 0.669258,-3.67454 0.157673,-0.90947 0.346477,-1.81556 0.441711,-2.73367 0.0073,-0.0705 -0.08076,-0.80702 -0.09369,-1.07421 -0.0048,-0.0996 0.0113,-0.21107 0,-0.31115 -0.0013,-0.0119 -0.01516,-0.0405 -0.02008,-0.0296 -0.01889,0.0418 0.07731,0.0511 0.120468,0.0667 0.211616,0.0766 0.425593,0.14741 0.64249,0.20743 0.752718,0.20831 1.502677,0.33406 2.268792,0.48154 0.377002,0.0726 0.514987,0.12685 0.950348,0.22966 1.596988,0.37713 3.253518,0.78542 4.852134,1.05939 0.64079,0.10982 1.29307,0.13746 1.94086,0.19262 0.39642,0.0338 0.79473,0.0418 1.19128,0.0741 0.58138,0.0473 1.15873,0.13742 1.74008,0.18521 0.41168,0.0338 0.82593,0.025 1.23813,0.0519 0.21601,0.0141 1.67807,0.14248 1.80031,0.15558 0.15244,0.0163 0.30275,0.0494 0.4551,0.0667 0.47254,0.13005 0.95977,0.0786 1.43891,0.12594 0.22395,0.0221 0.44567,0.0633 0.66926,0.0889 0.22079,0.0253 0.44081,0.0594 0.66256,0.0741 0.0846,0.006 0.16954,0.005 0.25432,0.007 0.0112,2.6e-4 0.0446,0 0.0335,0 -0.032,0 -0.13148,-0.0163 -0.15393,0.037 -0.11775,0.27998 -0.17697,0.68236 -0.24094,0.96308 -0.24939,1.0944 -0.58478,2.21254 -0.68264,3.33376 -0.0973,1.11517 -0.0292,0.82444 -0.10708,1.34831 -0.022,0.14821 -0.0126,0.30487 -0.0669,0.4445 -0.0729,0.18734 -0.20324,0.34693 -0.30786,0.51859 -0.0309,0.0507 -0.0781,0.12383 -0.13385,0.15557 -0.16564,0.0943 -0.30186,0.0665 -0.48187,0.0889 -0.13174,0.0164 -0.26215,0.0487 -0.39486,0.0519 -0.31153,0.007 -0.60122,-0.18242 -0.9035,-0.22966 -0.34257,-0.0535 -2.35329,-0.36399 -2.82429,-0.40005 -0.61419,-0.047 -1.27828,-0.0114 -1.90069,-0.0148 -1.13364,-0.006 -2.2664,-0.0148 -3.39984,-0.0148 -0.653649,0 -1.307654,0.0217 -1.960937,0 -0.761198,-0.0253 -1.510477,-0.2007 -2.248715,-0.37042 -0.753536,-0.17324 -1.517816,-0.29832 -2.282176,-0.41487 -0.143434,-0.0219 -0.290452,-0.002 -0.43502,-0.0148 -0.395838,-0.0337 -0.787755,-0.14042 -1.177896,-0.20744 -0.118838,-0.0204 -0.323919,0.0166 -0.428329,-0.0296 -0.09768,0.0414 -0.09876,-0.0714 -0.153929,-0.0963 -0.04821,-0.13829 -0.150289,-0.0305 -0.220856,-0.0593 -0.253164,-0.10337 -0.499713,-0.22225 -0.74957,-0.33338 z"
       id="path28"
       inkscape:export-filename="jail_back.png"
       inkscape:export-xdpi="300"
       inkscape:export-ydpi="300" />
  </g>
  <g
     inkscape:groupmode="layer"
     id="layer3"
     inkscape:label="Front"
     style="display:inline">
    <g
       inkscape:groupmode="layer"
       id="layer2"
       inkscape:label="Bars"
       style="display:inline">
      <rect
         style="fill:#000000;fill-opacity:1;stroke:#010100;stroke-width:0.1163;stroke-linecap:round;stroke-linejoin:round;stroke-dasharray:none;stroke-opacity:0.989542"
         id="rect12"
         width="1.2589065"
         height="67.666229"
         x="60.312237"
         y="87.765541"
         inkscape:label="1" />
      <rect
         style="fill:#000000;fill-opacity:1;stroke:#010100;stroke-width:0.1163;stroke-linecap:round;stroke-linejoin:round;stroke-dasharray:none;stroke-opacity:0.989542"
         id="rect12-2"
         width="1.2589065"
         height="67.666229"
         x="70.765594"
         y="87.765541"
         inkscape:label="3" />
      <rect
         style="fill:#000000;fill-opacity:1;stroke:#010100;stroke-width:0.1163;stroke-linecap:round;stroke-linejoin:round;stroke-dasharray:none;stroke-opacity:0.989542"
         id="rect12-0"
         width="1.2589065"
         height="67.666229"
         x="81.218948"
         y="87.765541"
         inkscape:label="5" />
      <rect
         style="fill:#000000;fill-opacity:1;stroke:#010100;stroke-width:0.1163;stroke-linecap:round;stroke-linejoin:round;stroke-dasharray:none;stroke-opacity:0.989542"
         id="rect12-3"
         width="1.2589065"
         height="67.666229"
         x="91.672302"
         y="87.765541"
         inkscape:label="7" />
      <rect
         style="fill:#000000;fill-opacity:1;stroke:#010100;stroke-width:0.1163;stroke-linecap:round;stroke-linejoin:round;stroke-dasharray:none;stroke-opacity:0.989542"
         id="rect12-9"
         width="1.2589065"
         height="67.666229"
         x="96.898979"
         y="87.765541"
         inkscape:label="8" />
      <rect
         style="fill:#000000;fill-opacity:1;stroke:#010100;stroke-width:0.1163;stroke-linecap:round;stroke-linejoin:round;stroke-dasharray:none;stroke-opacity:0.989542"
         id="rect12-5"
         width="1.2589065"
         height="67.666229"
         x="107.35234"
         y="87.765541"
         inkscape:label="10" />
      <rect
         style="fill:#000000;fill-opacity:1;stroke:#010100;stroke-width:0.1163;stroke-linecap:round;stroke-linejoin:round;stroke-dasharray:none;stroke-opacity:0.989542"
         id="rect12-58"
         width="1.2589065"
         height="67.666229"
         x="112.57902"
         y="87.765541"
         inkscape:label="11" />
      <rect
         style="fill:#000000;fill-opacity:1;stroke:#010100;stroke-width:0.1163;stroke-linecap:round;stroke-linejoin:round;stroke-dasharray:none;stroke-opacity:0.989542"
         id="rect12-8"
         width="1.2589065"
         height="67.666229"
         x="123.03238"
         y="87.765541"
         inkscape:label="13" />
      <rect
         style="fill:#000000;fill-opacity:1;stroke:#010100;stroke-width:0.1163;stroke-linecap:round;stroke-linejoin:round;stroke-dasharray:none;stroke-opacity:0.989542"
         id="rect12-7"
         width="1.2589065"
         height="67.666229"
         x="128.25905"
         y="87.765541"
         inkscape:label="14" />
      <rect
         style="fill:#000000;fill-opacity:1;stroke:#010100;stroke-width:0.1163;stroke-linecap:round;stroke-linejoin:round;stroke-dasharray:none;stroke-opacity:0.989542"
         id="rect12-01"
         width="1.2589065"
         height="67.666229"
         x="133.48572"
         y="87.765541"
         inkscape:label="15" />
      <rect
         style="fill:#000000;fill-opacity:1;stroke:#010100;stroke-width:0.1163;stroke-linecap:round;stroke-linejoin:round;stroke-dasharray:none;stroke-opacity:0.989542"
         id="rect12-6"
         width="1.2589065"
         height="67.666229"
         x="138.7124"
         y="87.765541"
         inkscape:label="16" />
      <rect
         style="fill:#000000;fill-opacity:1;stroke:#010100;stroke-width:0.1163;stroke-linecap:round;stroke-linejoin:round;stroke-dasharray:none;stroke-opacity:0.989542"
         id="rect12-20"
         width="1.2589065"
         height="67.666229"
         x="143.93907"
         y="87.765541"
         inkscape:label="17" />
      <rect
         style="fill:#000000;fill-opacity:1;stroke:#010100;stroke-width:0.1163;stroke-linecap:round;stroke-linejoin:round;stroke-dasharray:none;stroke-opacity:0.989542"
         id="rect12-1"
         width="1.2589065"
         height="67.666229"
         x="149.16576"
         y="87.765541"
         inkscape:label="18" />
      <rect
         style="fill:#000000;fill-opacity:1;stroke:#010100;stroke-width:0.1163;stroke-linecap:round;stroke-linejoin:round;stroke-dasharray:none;stroke-opacity:0.989542"
         id="rect12-4"
         width="1.2589065"
         height="67.666229"
         x="117.80569"
         y="87.765541"
         inkscape:label="12" />
      <rect
         style="fill:#000000;fill-opacity:1;stroke:#010100;stroke-width:0.1163;stroke-linecap:round;stroke-linejoin:round;stroke-dasharray:none;stroke-opacity:0.989542"
         id="rect12-28"
         width="1.2589065"
         height="67.666229"
         x="102.12566"
         y="87.765541"
         inkscape:label="9" />
      <rect
         style="fill:#000000;fill-opacity:1;stroke:#010100;stroke-width:0.1163;stroke-linecap:round;stroke-linejoin:round;stroke-dasharray:none;stroke-opacity:0.989542"
         id="rect12-85"
         width="1.2589065"
         height="67.666229"
         x="86.445625"
         y="87.765541"
         inkscape:label="6" />
      <rect
         style="fill:#000000;fill-opacity:1;stroke:#010100;stroke-width:0.1163;stroke-linecap:round;stroke-linejoin:round;stroke-dasharray:none;stroke-opacity:0.989542"
         id="rect12-48"
         width="1.2589065"
         height="67.666229"
         x="75.992271"
         y="87.765541"
         inkscape:label="4" />
      <rect
         style="fill:#000000;fill-opacity:1;stroke:#010100;stroke-width:0.1163;stroke-linecap:round;stroke-linejoin:round;stroke-dasharray:none;stroke-opacity:0.989542"
         id="rect12-11"
         width="1.2589065"
         height="67.666229"
         x="65.53891"
         y="87.765541"
         inkscape:label="2" />
    </g>
    <path
       id="rect11"
       style="display:inline;fill:#6f6f6f;fill-opacity:1;stroke:#010100;stroke-width:0.1163;stroke-linecap:round;stroke-linejoin:round;stroke-dasharray:none;stroke-opacity:0.989542"
       d="M 30.596207,81.497963 V 160.91379 H 179.56644 V 81.497963 Z m 25.80721,7.71064 H 153.75923 V 153.20315 H 56.403417 Z"
       inkscape:label="Front" />
    <path
       style="display:inline;fill:none;stroke:#5c5c5c;stroke-width:0.264583px;stroke-linecap:butt;stroke-linejoin:miter;stroke-opacity:1"
       d="m 159.37285,93.027499 c -0.78413,-0.293341 -1.53471,-0.120285 -2.32902,-0.111125 -0.13161,0.0016 -0.26352,0.0085 -0.39486,0 -0.21618,-0.01408 -0.34096,-0.134393 -0.51533,0.06667 -0.0529,0.06101 0.023,0.243189 0.0268,0.303741 0.0199,0.321271 0.0166,0.961361 0.007,1.222375 -0.0132,0.347311 -0.0828,0.690454 -0.10708,1.037167 -0.025,0.357198 0.005,0.210116 0.0201,0.496358 0.005,0.08914 0.009,0.227418 0,0.325967 -0.006,0.06768 -0.0471,0.210484 -0.0268,0.259292 0.003,0.0062 0.88207,-0.0013 0.9035,0 0.25244,0.01453 0.50383,0.04456 0.75626,0.05927 0.5309,0.03093 0.37691,-0.02476 1.03066,0.0074 0.0216,0.0011 1.6072,0.139454 1.66646,0.140758 0.61801,0.0136 0.44332,-0.05125 1.01728,-0.148167 0.29978,-0.05062 0.49531,0.006 0.78303,0.03704 0.23439,0.02532 0.46979,-0.0078 0.70272,0.01482 0.32822,0.03179 0.65717,0.148913 0.98382,0.103716 0.0741,-0.01024 0.14008,-0.05653 0.21416,-0.06667 0.17764,-0.02432 0.35647,-0.0404 0.53541,-0.05186 0.28206,-0.01807 0.55005,0.02675 0.82988,0.04445 0.0471,0.003 0.0914,0.0087 0.13385,0.02963 0.0155,0.0076 0.0459,0.03948 0.0469,0.02223 0.0227,-0.4143 0.006,-0.829926 0.0201,-1.2446 0.0201,-0.58039 0.0878,-1.101582 0.1807,-1.681691 0.0527,-0.328748 0.14516,-0.64955 0.20078,-0.9779 0.005,-0.02955 0.006,-0.05994 0.0134,-0.0889 0.004,-0.01357 0.0334,-0.04136 0.0201,-0.03704 -0.0639,0.02061 -0.11726,0.06696 -0.1807,0.0889 -0.0115,0.004 -0.0215,-0.01257 -0.0335,-0.01482 -0.0932,-0.01757 -0.18771,-0.02777 -0.28109,-0.04445 -0.18327,-0.03272 -0.36729,-0.06231 -0.54879,-0.103716 -0.1915,-0.04369 -0.41179,-0.156104 -0.61572,-0.170392 -0.51314,-0.03595 -0.46861,0.02299 -0.92358,0.07408 -0.17078,0.01918 -0.34387,0.0033 -0.51533,0.01482 -0.16254,0.0109 -0.32081,0.05707 -0.48187,0.08149 -0.27922,0.04234 -0.55304,-0.01048 -0.83657,0.05186 -0.19685,0.04327 -0.3865,0.11506 -0.58226,0.162983 -0.0416,0.01019 -0.32711,0.05418 -0.35471,0.05927 -0.18359,0.03387 -0.3701,0.01942 -0.55549,0.02222 -0.26994,0.0041 -0.53986,0.0099 -0.8098,0.01482 z"
       id="path29" />
    <path
       style="display:inline;fill:none;stroke:#5c5c5c;stroke-width:0.264583px;stroke-linecap:butt;stroke-linejoin:miter;stroke-opacity:1"
       d="m 163.10063,98.383724 c -0.0422,0.752686 8e-4,1.505246 -0.0134,2.259546 -0.0122,0.64886 -0.15514,0.19281 0.0736,1.26682 0.0152,0.0716 0.11965,-0.0593 0.12716,-0.0667 0.0449,-0.0442 0.24208,-0.0352 0.26771,-0.037 0.42263,-0.0299 0.84142,-0.0337 1.2649,-0.0148 1.14054,0.0509 -0.51693,0.0395 1.64638,0.0741 0.39919,0.006 0.53094,-0.0298 0.84996,-0.007 0.38708,0.0272 0.77327,0.10087 1.15782,0.14817 0.31974,0.0393 0.47914,0.0452 0.77634,0.0963 0.86585,0.14888 0.92233,0.21796 1.59953,0.1778 0.0528,-0.003 0.17258,-0.0348 0.20078,-0.0296 0.0255,0.005 0.1715,0.0494 0.18739,0.0296 0.0684,-0.0852 0.0134,-0.41995 0.0134,-0.56304 0,-0.45931 0.007,-0.91869 0,-1.37795 -0.002,-0.10654 -0.0208,-0.21216 -0.0268,-0.31855 -0.0181,-0.32092 -0.0231,-0.600363 -0.0268,-0.918638 -7.9e-4,-0.07819 0.005,-0.679855 -0.0134,-0.703792 -0.14751,-0.194394 -0.23215,-0.07874 -0.37478,-0.103716 -0.3646,-0.06384 -0.72595,-0.145622 -1.0909,-0.207434 -0.088,-0.0149 -0.17886,0.0083 -0.2677,0 -0.50723,-0.04758 -1.02789,-0.130582 -1.5393,-0.125941 -0.20748,-0.150638 -0.35978,0.0695 -0.5421,0.07408 -0.2432,0.0061 -0.48691,-0.0039 -0.72949,-0.02223 -0.15069,-0.01138 -0.29757,-0.05763 -0.44841,-0.06668 -0.65322,-0.03918 -1.28975,-0.02982 -1.94085,0 -0.10931,0.005 -0.21858,0.01109 -0.32794,0.01482 -0.0357,0.0013 -0.0753,-0.0163 -0.10708,0 -0.24657,0.126481 -0.47741,0.281516 -0.71611,0.422275 z"
       id="path30" />
    <path
       style="display:inline;fill:none;stroke:#5c5c5c;stroke-width:0.264583px;stroke-linecap:butt;stroke-linejoin:miter;stroke-opacity:1"
       d="m 155.33052,103.85848 c 0.19086,1.28116 0.17198,2.57962 0.38148,3.85974 0.0165,0.10062 0.13406,0.23468 0.0937,0.34079 -0.0119,0.0311 -0.1221,0.20155 -0.0736,0.24447 0.0396,0.0351 0.0879,-0.0688 0.14055,-0.0741 0.28423,-0.0284 0.57101,-0.02 0.85665,-0.0222 0.65139,-0.005 1.30292,-0.0111 1.95424,0 0.93339,0.0159 -1.02083,0.13157 0.7228,0.0963 0.99483,-0.0201 0.88851,-0.0985 1.81369,-0.28892 0.0657,-0.0135 0.13379,-0.0108 0.20078,-0.0148 0.18065,-0.0108 0.36123,-0.0236 0.5421,-0.0296 0.38674,-0.013 0.26399,0.0259 0.60903,-0.037 0.18186,0.0317 0.31834,-0.10118 0.48186,-0.13335 0.13895,-0.0273 0.28173,-0.03 0.42164,-0.0519 0.22355,-0.0349 0.5524,-0.1076 0.79642,-0.0667 0.0994,0.0167 0.18577,0.0785 0.28109,0.11113 0.052,0.0178 0.18604,0.037 0.24762,0.037 0.0202,0 0.0121,-0.0391 0.0134,-0.0593 0.0489,-0.77587 0.0199,-0.35447 0.0268,-0.80751 0.0101,-0.66676 0.007,-1.33393 0.0335,-2.00025 0.0158,-0.39602 0.0543,-0.79094 0.0937,-1.18533 0.003,-0.0333 0.0331,-0.11943 0.0469,-0.0889 0.0215,0.0477 -0.0443,0.10878 -0.0937,0.12594 -0.0984,0.0342 -0.62101,0.0222 -0.64918,0.0222 -0.29526,0 -0.32832,0.004 -0.77634,-0.0741 -0.1924,-0.0337 -0.37556,-0.11263 -0.56887,-0.14075 -0.19893,-0.0289 -0.40146,-0.0221 -0.60234,-0.0296 -0.61467,-0.0231 0.38874,0.0471 -0.47517,-0.0519 -0.0976,-0.0112 -0.19632,-0.01 -0.29448,-0.0148 -0.13385,-0.0124 -0.26811,-0.0208 -0.40155,-0.037 -0.0497,-0.006 -0.0973,-0.0262 -0.14724,-0.0296 -0.49307,-0.0336 -0.16463,0.0546 -0.85665,0.0741 -0.15607,0.004 -1.16479,-0.13038 -1.19798,-0.13335 -0.19464,-0.0175 -0.40001,0.009 -0.59564,0 -0.14297,-0.007 -0.28542,-0.0219 -0.42833,-0.0296 -0.36838,-0.0199 -0.73626,0.0483 -1.10427,0.0741 -0.0477,0.003 -0.21046,0.0137 -0.24094,0.007 -0.0568,-0.0117 -0.10587,-0.0476 -0.16062,-0.0667 -0.0237,-0.008 -0.0491,-0.01 -0.0736,-0.0148 -0.0558,-0.0123 -0.11372,-0.0173 -0.16731,-0.037 -0.0203,-0.007 -0.0423,-0.062 -0.0803,-0.0667 -0.12982,-0.016 -0.32867,-0.0487 -0.46179,-0.007 -0.0282,0.009 -0.0509,0.0349 -0.0803,0.037 -0.16902,0.0121 -0.21686,-0.17706 -0.34802,-0.14076 -0.0115,0.003 -0.0221,0.0179 -0.0201,0.0296 0.0387,0.22626 0.12265,0.44531 0.14054,0.67416 0.0225,0.28813 -0.0134,0.57785 -0.0201,0.86678"
       id="path31" />
    <path
       style="display:inline;fill:none;stroke:#5c5c5c;stroke-width:0.264583px;stroke-linecap:butt;stroke-linejoin:miter;stroke-opacity:1"
       d="m 168.2874,154.88708 c 0.21639,-0.0395 0.43029,-0.0968 0.64918,-0.11853 0.10682,-0.0106 0.21395,0.025 0.32125,0.0222 0.47331,-0.0121 0.94581,-0.0461 1.41883,-0.0667 0.26318,-0.0115 0.52692,-0.0477 0.78973,-0.0296 0.53077,0.0365 1.04835,0.19831 1.57945,0.22966 0.32295,0.0191 0.64746,-0.004 0.97043,0.0148 0.66073,0.0384 1.30385,0.18631 1.96762,0.16298 0.0316,-0.001 0.0625,-0.01 0.0937,-0.0148 0.0915,-0.005 0.18279,-0.0148 0.27439,-0.0148 0.19234,0 0.0926,0.0138 0.24763,0.0444 0.007,0.001 0.11651,0.0269 0.13385,0 0.11759,-0.18223 0.0728,-0.47095 0.0803,-0.65193 0.0315,-0.75903 0.0181,-0.10589 -0.0736,-1.55575 -0.0226,-0.35827 -0.0809,-1.31247 -0.0669,-1.72615 0.0116,-0.34553 0.0641,-0.47355 0.12716,-0.79269 0.009,-0.0441 0.0148,-0.0887 0.0201,-0.13335 0.002,-0.0172 0.0101,-0.0659 0,-0.0519 -0.19391,0.26831 -0.66254,0.23757 -0.97042,0.24448 -0.34355,0.008 -0.68705,0.0261 -1.03067,0.0222 -0.23113,-0.003 -0.45828,-0.034 -0.68933,-0.0296 -0.41179,0.008 -0.0936,0.0157 -0.78304,0.11113 -0.32859,0.0455 -0.65943,0.0755 -0.9905,0.0963 -0.32419,0.0204 -0.6624,-0.0167 -0.98382,-0.0148 -0.65147,0.004 -1.30326,0.0554 -1.95423,0.0296 -0.16374,-0.006 -0.31571,-0.0883 -0.47518,-0.12594 -0.23399,-0.0553 -0.50975,-0.054 -0.74288,-0.0889 -0.15893,-0.0238 -0.31583,-0.0606 -0.47517,-0.0815 -0.0121,-0.002 -0.0223,0.0196 -0.0335,0.0148 -0.0305,-0.013 -0.0425,-0.0781 -0.0736,-0.0667 -0.0209,0.008 0.002,0.0445 0,0.0667 -0.009,0.0982 -0.0489,0.18856 -0.0602,0.28893 -0.007,0.0615 0.01,0.12342 0.0134,0.18521 0.008,0.13277 -0.01,0.26823 -0.0134,0.40005 -0.0166,0.61692 -0.005,-0.0602 0.0469,0.46672 0.0132,0.13278 0.002,0.26711 0.0134,0.40005 0.0206,0.24287 0.0589,0.48391 0.087,0.72602 0.0251,0.21566 0.0809,0.42891 0.10039,0.64452 0.0113,0.12516 0.0316,0.28352 0,0.40005 -0.0102,0.0376 -0.0491,0.0772 -0.0535,0.11854 -0.009,0.0816 -0.0331,0.21717 -0.0268,0.29633 0.009,0.10793 0.0289,0.15382 0.0803,0.22966 0.0223,0.0329 -0.01,0.0789 -0.0134,0.11853 -0.003,0.0369 0,0.0741 0,0.11113 0,0.01 -0.008,-0.0351 0,-0.0296 0.0404,0.0268 0.0541,0.13754 0.0602,0.16299"
       id="path32" />
    <path
       style="display:inline;fill:none;stroke:#5c5c5c;stroke-width:0.264583px;stroke-linecap:butt;stroke-linejoin:miter;stroke-opacity:1"
       d="m 160.60429,144.60431 c 0.002,1.03135 -0.0408,2.06535 -0.0134,3.09669 0.0233,0.8769 0.0574,1.7535 0.0937,2.62996 0.002,0.04 -0.002,0.0852 0.0201,0.11853 0.0198,0.0297 0.0581,0.0542 0.0937,0.0519 0.0208,-10e-4 0.009,-0.0414 0.0201,-0.0593 0.0253,-0.042 0.0587,-0.0785 0.087,-0.11853 0.0275,-0.039 0.0436,-0.0881 0.0803,-0.11854 0.11688,-0.097 0.2422,-0.18513 0.37478,-0.25929 0.13256,-0.0741 0.70749,-0.22192 0.75627,-0.23706 0.20204,-0.0627 0.3915,-0.18245 0.60233,-0.20003 0.33199,-0.0277 0.66467,0.0464 0.9972,0.0667 0.45769,0.0279 0.91352,0.028 1.37198,0.0593 0.10064,0.007 0.20078,0.0198 0.30117,0.0296 0.31009,0.0272 0.6196,0.062 0.93027,0.0815 0.19471,0.0122 0.38729,-0.0524 0.58226,-0.0593 0.1294,-0.005 0.25882,0.0209 0.38817,0.0148 1.02081,-0.0479 -0.0785,-0.0428 0.66257,-0.0889 0.29149,-0.0181 0.70676,-0.008 0.9905,0.0741 0.0234,0.007 0.0433,0.0237 0.0669,0.0296 0.14713,0.037 0.30344,-0.0118 0.45509,-0.007 0.13215,0.004 0.26355,0.0218 0.39487,0.037 0.34518,0.04 0.009,0.046 0.4484,-0.0148 0.0309,-0.004 0.14997,0.0218 0.16732,0.0148 0.0151,-0.006 0.0194,-0.0282 0.0201,-0.0445 0.0367,-0.89474 -0.0832,-1.78832 -0.087,-2.68182 -0.002,-0.41486 0.002,-0.82974 0,-1.2446 -8e-5,-0.0149 -6e-5,-0.18901 -0.0201,-0.22225 -0.038,-0.0631 -0.01,-0.0116 -0.0535,-0.0296 -0.14188,-0.0586 -0.27788,-0.13135 -0.42163,-0.18521 -0.63218,-0.23685 -0.25633,-0.0791 -0.9102,-0.1778 -0.0937,-0.0141 -0.18225,-0.0521 -0.27439,-0.0741 -0.15615,-0.0373 -0.49799,-0.10973 -0.65587,-0.11113 -1.83148,-0.0162 0.91973,0.10202 -1.03067,0.0593 -0.0484,-0.001 -0.0932,-0.0268 -0.14054,-0.037 -1.19723,-0.25769 0.44469,0.1254 -0.6358,-0.1704 -0.32479,-0.0889 -0.8545,-0.1269 -1.12436,-0.17039 -0.13222,-0.0213 -0.25544,-0.0858 -0.38817,-0.10371 -0.15691,-0.0212 -0.32412,0.002 -0.48186,-0.0148 -0.47114,-0.0515 -0.9447,-0.16809 -1.41883,-0.18521 -0.061,-0.002 -0.11996,0.0356 -0.1807,0.0296 -0.26748,-0.0264 -0.53247,-0.0753 -0.79642,-0.12594 -0.1153,-0.0221 -0.51719,-0.16862 -0.68265,-0.0667 -0.20444,0.12596 -0.39263,0.27658 -0.58895,0.41486 z"
       id="path33" />
    <path
       style="display:inline;fill:none;stroke:#5c5c5c;stroke-width:0.264583px;stroke-linecap:butt;stroke-linejoin:miter;stroke-opacity:1"
       d="m 154.70142,139.40366 c 0.18894,0.84759 0.15179,1.72177 0.26101,2.5781 0.0116,0.0908 0.0405,0.44697 0.0937,0.57785 0.0293,0.0721 0.0831,0.13343 0.10708,0.20744 0.0279,0.0858 -0.001,0.19017 0.0469,0.2667 0.0114,0.0182 0.15987,0.026 0.20077,0.0222 0.0982,-0.009 0.23454,-0.0352 0.33463,-0.037 0.21859,-0.004 0.43751,0.0106 0.65588,0 0.13923,-0.007 0.27663,-0.0346 0.41494,-0.0519 0.41494,-0.0519 0.82667,-0.1526 1.24483,-0.15557 0.28496,-0.002 0.56087,0.10244 0.84326,0.14076 0.23444,0.0318 0.47295,-0.0147 0.70942,-0.0222 0.42805,-0.0137 0.85731,0.005 1.28498,0.0148 0.25818,0.006 0.4299,-0.0137 0.68264,-0.037 0.29934,-0.0276 0.60947,0.007 0.9102,0 0.15842,-0.004 0.31786,-0.0339 0.47517,-0.0148 0.21171,0.0257 0.41165,0.11555 0.62241,0.14817 0.20556,0.0318 0.4156,0.0223 0.62242,0.0445 0.60555,0.0649 0.0222,0.002 0.2677,0.0815 0.12036,0.0389 0.24914,0.0447 0.37478,0.0593 0.0577,0.007 0.11613,0.003 0.17401,0.007 0.10924,0.008 0.46366,0.15899 0.51533,-0.007 0.17198,-0.55379 0.14967,-1.25537 0.16732,-1.778 0.0205,-0.60774 0.0134,-1.22104 0.0134,-1.82985 0,-0.12584 -0.0177,-1.01495 0.0535,-1.01495 0.0179,0 -0.008,0.0347 -0.0134,0.0519 -0.0129,0.0446 -0.0268,0.0889 -0.0402,0.13335 -0.013,0.0432 -0.24812,0.13697 -0.28109,0.13335 -0.51244,-0.0563 -1.02596,-0.11216 -1.5326,-0.20743 -0.40073,-0.0753 -0.57935,-0.23612 -0.97712,-0.25929 -0.2876,-0.0168 0.0324,-0.0242 -0.42163,-0.0815 -0.33353,-0.0421 -0.67019,-0.0557 -1.00389,-0.0963 -0.11291,-0.0138 -0.22105,-0.0608 -0.33464,-0.0667 -0.0271,-0.001 -0.52774,0.0218 -0.64248,0.037 -0.11608,0.0154 -0.2482,0.0683 -0.3681,0.0667 -0.34589,-0.005 -0.69212,-0.008 -1.03735,-0.0296 -0.12403,-0.008 -0.24482,-0.0435 -0.3681,-0.0593 -0.2493,-0.0318 -0.5017,-0.0399 -0.74957,-0.0815 -0.13901,-0.0233 -0.27558,-0.0603 -0.41494,-0.0815 -0.0885,-0.0134 -0.17932,-0.008 -0.2677,-0.0222 -0.32783,0.0196 -0.61852,-0.13703 -0.93027,-0.19262 -0.27583,-0.0492 -0.55058,-0.11126 -0.82989,-0.13335 -0.0378,-0.003 -0.0762,0.005 -0.11377,0 -0.0653,-0.008 -0.0922,-0.0444 -0.14054,-0.0741 -0.0248,-0.0152 -0.0584,-0.0126 -0.087,-0.007 -0.0892,0.0222 -0.17847,0.0444 -0.2677,0.0667 -0.002,0.005 -0.002,0.0126 -0.007,0.0148 -0.008,0.004 -0.0201,-0.006 -0.0268,0 -0.0311,0.028 -0.0476,0.0703 -0.0803,0.0963 -0.0756,0.0603 -0.0848,0.002 -0.12046,0.0815 -0.0287,0.0635 -2.1e-4,0.18125 -0.007,0.25189 -0.015,0.16327 -0.0474,0.32511 -0.0535,0.48895 -0.01,0.25699 0.0643,0.51443 0.0402,0.77046 -0.002,0.0203 -0.27064,1.05108 -0.16062,0.80751"
       id="path34" />
    <path
       style="display:inline;fill:none;stroke:#5c5c5c;stroke-width:0.264583px;stroke-linecap:butt;stroke-linejoin:miter;stroke-opacity:1"
       d="m 166.05876,121.86073 c -0.086,-0.94417 0.0156,-1.87139 0.0335,-2.81516 0.0166,-0.87929 -0.0287,-1.75132 -0.0335,-2.62996 -5.3e-4,-0.11609 -0.005,-0.23269 0.007,-0.34819 0.0124,-0.12381 0.0741,-0.23925 0.087,-0.36301 0.007,-0.0688 0,-0.13829 0,-0.20744 0,-0.0123 0.0124,-0.037 0,-0.037 -0.008,0 -0.0123,0.0119 -0.0201,0.0148 -0.0201,0.007 -0.0223,-0.002 -0.0335,-0.0148 -0.0357,0.0296 -0.0642,0.0711 -0.10709,0.0889 -0.033,0.0137 -0.0714,0 -0.10708,0 -0.0335,0 -0.0676,0.007 -0.10039,0 -0.21369,-0.0446 -0.41495,-0.1335 -0.63579,-0.14816 -0.3087,-0.0205 -0.62468,0.032 -0.93027,0.037 -0.25657,0.004 -0.51323,-0.0243 -0.76965,-0.0148 -0.27976,0.0103 -0.55766,0.0501 -0.83658,0.0741 -0.15164,0.013 -0.30461,0.0143 -0.4551,0.037 -0.61191,0.0926 -0.33804,0.13085 -0.96373,0.16298 -0.70223,0.0361 -1.4052,0.0579 -2.10817,0.0741 -0.88832,0.0205 -1.76942,-0.13543 -2.65696,-0.0963 -1.10443,0.0487 -0.21425,0.15405 -0.78973,0.0371 -0.23625,-0.048 -0.36075,-0.0267 -0.58895,0.0222 -0.0417,0.009 -0.10959,-0.0537 -0.12716,-0.0148 -0.0111,0.0247 0.032,0.0676 0.0335,0.0889 0.0168,0.24663 0.0335,0.49364 0.0335,0.74084 0,0.39173 -0.0506,0.78611 -0.0602,1.17792 -0.008,0.34068 0.0122,0.68179 0,1.02235 -0.0165,0.45956 -0.0488,0.91845 -0.0669,1.37795 -0.0109,0.27645 -0.003,0.55361 -0.0201,0.82974 -0.039,0.62873 -0.10217,0.8359 -0.12047,1.39276 -10e-4,0.0304 0.007,-0.0615 0.0201,-0.0889 0.01,-0.021 0.0343,-0.0322 0.0469,-0.0519 0.0146,-0.0228 0.0198,-0.0507 0.0335,-0.0741 0.009,-0.016 0.047,-0.0519 0.0669,-0.0519 0.0134,0 0.0201,0.0215 0.0335,0.0222 0.13397,0.008 0.0525,-0.0254 0.16732,-0.0444 0.064,-0.0106 0.12922,-0.0132 0.19409,-0.0148 0.16529,-0.004 0.35469,-0.006 0.51532,0.0222 0.10884,0.0189 0.21304,0.0592 0.32125,0.0815 0.28356,0.0583 0.63652,0.0635 0.91019,0.0889 0.13385,0.0124 0.26845,0.0183 0.40156,0.037 0.2,0.0281 0.39479,0.0898 0.59564,0.11112 0.14011,0.0149 0.28138,0.0163 0.42164,0.0296 0.14537,0.0138 0.28917,0.0444 0.43502,0.0519 0.14483,0.007 0.29016,-5.3e-4 0.43501,-0.007 0.77658,-0.0375 1.55249,-0.0878 2.32903,-0.12594 3.51169,-0.17252 1.21635,-0.0353 2.66365,-0.12595 0.40191,-0.0252 0.0915,-0.0207 0.56887,0.0296 0.29648,0.0312 -0.10221,-0.0222 0.1807,-0.0222 0.12261,0 0.24566,0.0961 0.37479,0.0741 0.0378,-0.006 0.0582,-0.0522 0.0937,-0.0667 0.0113,-0.005 0.0216,0.0178 0.0335,0.0148 0.021,-0.005 0.0363,-0.0239 0.0535,-0.037 0.14785,-0.1128 0.29448,-0.22719 0.44171,-0.34079 z"
       id="path35" />
    <path
       style="display:inline;fill:none;stroke:#5c5c5c;stroke-width:0.264583px;stroke-linecap:butt;stroke-linejoin:miter;stroke-opacity:1"
       d="m 163.08725,124.16472 c 0.004,0.25189 0.009,0.50377 0.0134,0.75565 0.0201,0.28893 0.0534,0.57724 0.0602,0.86678 0.0155,0.6641 -0.0251,1.32932 0.007,1.99284 0.008,0.17677 0.0728,0.34641 0.11378,0.51858 0.0169,0.0709 0.0736,0.36004 0.19408,0.37783 0.0404,0.006 0.071,-0.0402 0.10708,-0.0593 0.0649,-0.0344 0.1741,-0.0719 0.22755,-0.0815 0.10366,-0.0186 0.20956,-0.0215 0.31455,-0.0296 0.30774,-0.024 0.61524,-0.0526 0.92358,-0.0667 0.28753,-0.0131 0.57552,-0.0148 0.86335,-0.0148 0.0871,0 0.17535,-0.001 0.26101,0.0148 0.68468,0.12796 1.34967,0.34141 2.05463,0.3556 0.51876,0.0105 0.49996,0.003 1.02397,-0.0444 2.21403,-0.20174 1.04738,-0.0668 3.01836,-0.36301 0.34584,-0.052 0.60675,-0.0417 0.98381,-0.0296 0.33535,0.0108 0.71615,0.005 1.05743,0.0741 0.0699,0.0142 0.13832,0.0346 0.20747,0.0519 0.11824,0.0173 0.23694,0.0317 0.35471,0.0519 0.0992,0.017 0.1905,0.0667 0.28778,0.0667 0.0719,0 0.13118,0.0156 0.20078,0.0296 0.0678,0.0137 0.13838,-0.003 0.20747,0 0.1675,0.007 0.19195,0.009 0.34802,0.0667 0.005,0.002 0.0783,0.0207 0.0803,0.0222 0.0113,0.009 0.0977,0.10995 0.12047,0.0444 0.0195,-0.0561 0.007,-0.11876 0.0134,-0.1778 0.0366,-0.31612 0.0233,-0.64422 0.0201,-0.96308 -0.006,-0.62661 -0.0503,-1.2554 -0.0669,-1.88172 -0.004,-0.16046 -0.0173,-0.32196 0,-0.48154 0.0151,-0.13964 0.0565,-0.27547 0.0736,-0.41487 0.008,-0.0613 -0.008,-0.12406 0,-0.18521 0.0429,-0.30995 0.10379,-0.61717 0.15393,-0.92604 0.001,-0.007 0.007,-0.0222 0,-0.0222 -0.0215,0 -0.033,0.0403 -0.0602,0.0222 -0.0181,-0.012 -0.01,-0.0458 -0.0268,-0.0593 -0.036,-0.0285 -0.0751,-0.0595 -0.12046,-0.0667 -0.25435,-0.0402 -0.51323,-0.043 -0.76965,-0.0667 -0.2172,-0.02 -0.43811,-0.0489 -0.65588,-0.0519 -0.48445,-0.007 -0.42865,0.0259 -0.9905,0.0444 -2.86961,0.0945 -0.0638,-0.032 -1.8137,0.0519 -0.261,0.0125 -0.52175,0.0404 -0.78303,0.037 -0.3107,-0.004 -0.6198,-0.047 -0.93027,-0.0593 -0.33924,-0.0134 -0.77833,0.0417 -1.0909,0.0815 -0.0945,0.012 -0.18652,0.0402 -0.28109,0.0519 -0.25649,0.0315 -0.51465,-0.0305 -0.76965,-0.037 -0.45734,-0.0118 -0.91454,0.044 -1.37198,0.037 -0.0821,-0.001 -0.16008,-0.0373 -0.24093,-0.0519 -0.0843,-0.0151 -0.17017,-0.021 -0.25432,-0.037 -0.11008,-0.021 -0.21693,-0.0587 -0.32794,-0.0741 -0.14382,-0.0199 -0.29108,-0.003 -0.43502,-0.0222 -0.3213,-0.0425 -0.6377,-0.13845 -0.95704,-0.19262 -0.0975,-0.0165 -0.19556,-0.0386 -0.29448,-0.037 -0.062,0.001 -0.11955,0.034 -0.1807,0.0444 -0.10425,0.0178 -0.0797,-0.0222 -0.20077,-0.0222 -0.0211,0 -0.30569,0.0346 -0.34133,0.0519 -0.0495,0.0239 -0.0831,0.0752 -0.13385,0.0963 -0.0917,0.0381 -0.21806,-0.006 -0.22085,0.0519 -0.0107,0.2197 0.0528,0.44092 0.0268,0.65934 -0.0346,0.29098 -0.199,0.83056 -0.30117,1.17793"
       id="path36" />
    <path
       style="display:inline;fill:none;stroke:#5c5c5c;stroke-width:0.264583px;stroke-linecap:butt;stroke-linejoin:miter;stroke-opacity:1"
       d="m 33.377153,87.173669 c -0.643128,-0.81838 -0.554937,-0.866415 -0.569587,0.276805 -0.009,0.700627 -0.01733,1.424643 0,2.129856 0.0073,0.297497 0.0084,0.6604 0.04862,0.976506 0.01439,0.113019 0.03487,0.225218 0.04862,0.338317 0.0024,0.02035 -0.01884,0.06962 0,0.06151 0.05208,-0.02241 0.07762,-0.08424 0.125032,-0.115334 0.338632,-0.222131 0.564914,-0.326806 0.951624,-0.461341 0.233783,-0.08133 0.492953,-0.09445 0.736293,-0.115334 0.511895,-0.04393 1.024263,-0.08356 1.535102,-0.138404 0.563642,-0.06051 1.125429,-0.137202 1.68792,-0.207603 0.359037,-0.04494 0.716621,-0.102319 1.076656,-0.138403 0.84465,-0.08465 1.848709,-0.06388 2.653434,-0.0692 0.913755,-0.006 1.80013,0.05981 2.695115,0.269115 0.118972,0.02782 0.358354,0.07347 0.479285,0.107646 0.142234,0.0402 0.280413,0.0945 0.423717,0.130712 0.07029,0.01775 0.143552,0.0205 0.215331,0.03076 0.259323,0.06407 0.522293,0.114866 0.77797,0.192225 0.09291,0.02811 0.173096,0.08885 0.263954,0.123023 0.148055,0.05569 0.302328,0.09347 0.451501,0.146093 0.0617,0.02178 0.117977,0.05793 0.180599,0.07689 0.208759,0.0632 0.419055,0.122417 0.632103,0.169158 0.03817,0.0084 0.162742,0.02561 0.187544,-0.03844 0.06253,-0.161504 -0.0994,-0.991346 -0.111138,-1.207174 -0.03789,-0.696759 -0.06614,-1.394045 -0.0903,-2.091412 -0.0099,-0.285203 0.06155,-0.74317 -0.06252,-1.03033 -0.04318,-0.09995 -0.330565,-0.09368 -0.375092,-0.09996 -0.144868,-0.0204 -0.288573,-0.04975 -0.430663,-0.08458 -0.258505,-0.06337 -0.50597,-0.183358 -0.771024,-0.207602 -1.452314,-0.132834 -2.896254,-0.06487 -4.3483,-0.06151 -1.097495,0.0026 -2.195161,0.02728 -3.292483,0.0077 -0.545923,-0.0097 -0.05993,-0.01198 -0.507072,-0.03844 -0.231362,-0.01368 -0.463378,-0.01513 -0.694616,-0.03076 -0.549764,-0.03716 -1.138451,-0.133916 -1.680972,-0.238357 -0.280953,-0.05409 -0.552743,-0.147355 -0.840486,-0.176848 -0.331618,-0.03399 -0.667411,-0.06439 -1.000249,-0.08458 -0.01463,-7.94e-4 -0.190558,0.0011 -0.201438,0 -0.196871,-0.0172 -0.397401,-0.0701 -0.576532,0.04613 -0.04399,0.02854 -0.09297,0.33713 -0.09725,0.384453 -0.02537,0.280871 -0.0348,0.764027 -0.04168,1.045705 -0.0073,0.299863 -0.01442,0.599731 -0.02082,0.899615 -0.0029,0.133265 -0.02111,0.26729 -0.007,0.39983 0.02984,0.27889 0.05943,0.194059 0.166709,0.09227"
       id="path37" />
    <path
       style="display:inline;fill:none;stroke:#5c5c5c;stroke-width:0.264583px;stroke-linecap:butt;stroke-linejoin:miter;stroke-opacity:1"
       d="m 43.164302,93.701644 c 0.124536,0.981234 0.06493,1.96869 0.02778,2.952581 -0.01887,0.499774 -0.08471,1.00008 -0.05557,1.499359 0.107432,0.691896 0.221787,1.188709 0.257008,1.822296 0.004,0.07303 0.03079,0.45118 0.03473,0.45365 0.04764,0.0298 0.104897,0.0417 0.159761,0.0538 0.0067,0.002 0.0074,-0.0131 0.01389,-0.0154 0.04532,-0.016 0.09158,-0.0302 0.138924,-0.0384 0.08964,-0.0155 0.187511,0.0109 0.277845,0 0.09321,-0.0113 0.185023,-0.0321 0.277847,-0.0461 0.127153,-0.0193 0.254693,-0.0359 0.382039,-0.0538 0.52791,-0.0974 1.053754,-0.20673 1.583727,-0.29218 0.992418,-0.160016 2.168036,-0.146128 3.13272,-0.18454 0.430697,-0.01715 0.861028,-0.06191 1.291987,-0.05382 0.648187,0.01217 1.682408,0.03526 2.424213,0.09996 0.474488,0.04138 0.942623,0.14755 1.417018,0.18453 0.199649,0.0156 0.477504,0.0198 0.673778,0.0231 0.120348,0.002 0.240916,0.008 0.361201,0.008 0.06366,0 0.133601,0.0113 0.125031,-0.008 -0.0029,-0.006 -0.01863,0.007 -0.02085,0 -0.220869,-0.657056 -0.235238,-0.839412 -0.257008,-1.476282 -0.02944,-0.861193 -0.06274,-1.722255 -0.0903,-2.583511 -0.01696,-0.530251 0.15861,-1.274776 -0.194492,-1.676204 -0.0011,-0.0011 -0.194953,0.0011 -0.23617,0 -0.243234,-0.0069 -0.486169,-0.03937 -0.729348,-0.03075 -0.813369,0.02881 -0.353261,0.100533 -1.319771,0.04613 -0.242713,-0.01365 -0.479851,-0.08372 -0.722402,-0.09996 -1.32034,-0.0884 -2.642849,-0.132337 -3.96626,-0.107646 -0.545658,0.01019 -1.106329,0.07127 -1.653188,0.03844 -0.374084,-0.02244 -0.748279,-0.05617 -1.118333,-0.115335 -0.512392,-0.08193 0.202959,-0.05069 -0.555694,-0.09227 -0.187267,-0.01027 -0.376497,-0.02289 -0.562639,0 -0.179565,0.02209 -0.360648,0.141089 -0.534855,0.09227 -0.221544,-0.06208 -0.375095,-0.266552 -0.56264,-0.399827 z"
       id="path38" />
    <path
       style="display:inline;fill:none;stroke:#5c5c5c;stroke-width:0.264583px;stroke-linecap:butt;stroke-linejoin:miter;stroke-opacity:1"
       d="m 32.821459,102.77468 c -0.05557,0.20248 -0.153107,0.39791 -0.166709,0.60743 -0.01471,0.22677 0.06606,0.45005 0.08335,0.67664 0.01053,0.138 0.0013,0.27681 0,0.4152 -0.0127,1.3153 -0.128993,2.63732 -0.0903,3.95216 5.29e-4,0.0203 -0.05377,0.6882 0.208383,0.70739 0.686356,0.0502 1.315799,0.0595 2.014389,0.0154 0.189675,-0.012 0.373701,-0.0717 0.56264,-0.0923 0.588724,-0.064 1.175538,5.3e-4 1.764326,-0.0231 1.259356,-0.0502 0.621096,-0.066 1.875464,-0.2076 0.503661,-0.0569 1.008902,-0.0995 1.514266,-0.13841 0.01244,-10e-4 0.523846,8e-4 0.548746,0 0.560446,-0.0199 1.120418,-0.0527 1.680975,-0.0692 0.778814,-0.023 0.467,0.007 1.104439,0.0154 0.368118,0.005 0.737214,-0.026 1.10444,0 1.261097,0.0893 -0.104095,0.0135 0.951624,0.15378 0.321662,0.0427 0.622538,0.007 0.937734,0.0769 0.08381,0.0185 0.164393,0.0561 0.250063,0.0615 0.04616,0.003 0.0459,-0.073 0.05557,-0.0923 0.05306,-0.10571 -0.01291,0.1015 0.03473,-0.0461 0.05986,-0.18554 0.02614,-0.59646 0.02085,-0.78428 -0.01196,-0.42314 -0.04663,-0.84548 -0.05557,-1.26869 -0.005,-0.23575 0.0089,-0.47176 0,-0.70739 -0.01429,-0.37976 -0.03818,-0.75923 -0.06946,-1.13797 -0.0058,-0.0704 -0.03098,-0.13784 -0.04168,-0.20761 -0.03233,-0.21077 -0.02762,-0.44107 -0.02085,-0.65357 0.0044,-0.1385 0.04548,-0.27883 0.02085,-0.4152 -0.01011,-0.0559 -0.07651,-0.0843 -0.118084,-0.12302 -0.222427,-0.20734 -0.405598,-0.25492 -0.680725,-0.36139 -0.228441,-0.0884 -0.451712,-0.18989 -0.680725,-0.27681 -0.09536,-0.0362 -0.192641,-0.0681 -0.291738,-0.0923 -0.364267,-0.0887 -0.727379,-0.18627 -1.097494,-0.24605 -0.672849,-0.10867 -1.370616,-0.0719 -2.049121,-0.13071 -0.717934,-0.0622 -1.435021,-0.13428 -2.153312,-0.19223 -0.198072,-0.016 -0.655843,0.0325 -0.771022,0.0385 -0.888344,0.0462 -0.953074,0.0562 -1.826842,0 -0.180131,-0.0116 -0.355748,-0.0622 -0.534855,-0.0846 -0.329891,-0.0679 -0.667917,-0.0456 -1.000249,-0.0846 -0.132877,-0.0156 -0.250619,-0.098 -0.38204,-0.12303 -0.583915,-0.11131 -1.125366,-0.20252 -1.708756,-0.2076 -0.305716,-0.003 -0.631407,-0.0863 -0.916895,0.0231 -0.04147,0.0159 -0.05939,0.0763 -0.07641,0.10765 -0.0016,0.003 -0.0046,0.005 -0.007,0.008 0.0024,0.30243 0.05963,0.60948 0.007,0.9073 -0.05781,0.32678 -0.243556,0.61861 -0.333417,0.93806 -0.04608,0.16381 -0.02671,0.33977 -0.05557,0.50748"
       id="path39" />
    <path
       style="display:inline;fill:none;stroke:#5c5c5c;stroke-width:0.264583px;stroke-linecap:butt;stroke-linejoin:miter;stroke-opacity:1"
       d="m 42.469683,145.20267 c -0.198572,-1.42795 -0.116311,-2.87812 -0.10419,-4.31354 0.0013,-0.16153 -0.105767,-0.37589 0.01389,-0.4844 0.293076,-0.26579 0.433395,-0.042 0.659886,-0.0154 0.666393,0.0782 1.333336,0.15165 2.000496,0.22299 0.378788,0.0405 0.759108,0.0913 1.139172,0.11533 0.647517,0.041 0.01939,0.0154 1.326718,-0.16916 0.883206,-0.12468 1.530774,-0.15529 2.396427,-0.29218 0.356973,-0.0565 0.03702,-0.0446 0.319524,-0.1384 0.0464,-0.0154 0.09722,-0.0105 0.14587,-0.0154 0.335873,-0.0335 0.712444,-0.0848 1.055817,-0.0692 0.127445,0.006 0.254625,0.0166 0.382037,0.0231 0.624708,0.0317 0.148926,-0.0248 0.889111,0.13071 0.130498,0.0274 0.229032,0.0246 0.368147,0.0692 0.01968,0.006 0.02941,0.0308 0.04862,0.0384 0.07493,0.0296 0.164201,-0.0287 0.23617,-0.0154 0.05772,0.0107 0.09862,0.0622 0.14587,0.0846 0.0563,0.0267 0.114544,0.0495 0.173654,0.0692 0.110064,0.0367 0.220562,0.073 0.333415,0.1 0.02262,0.005 0.08827,-0.0638 0.111141,-0.0384 0.03044,0.0337 -0.08832,0.23916 -0.0903,0.24605 -0.03835,0.13302 -0.08014,0.54656 -0.08335,0.6305 -0.04427,1.15548 -0.04168,1.31995 -0.04168,2.10679 0,0.54305 -0.0029,-0.0767 0.01389,0.65356 0.009,0.39237 0.192609,1.01177 -0.111138,1.38403 -0.02117,0.0259 -0.236186,0.008 -0.250063,0.008 -0.190262,0 -0.367374,-0.0603 -0.555691,-0.0846 -0.03215,-0.004 -0.06531,0.006 -0.09725,0 -0.04296,-0.007 -0.08203,-0.0312 -0.125031,-0.0384 -0.219448,-0.0368 -0.444945,-0.0141 -0.666832,-0.0308 -0.05137,-0.004 -0.101383,-0.0201 -0.152816,-0.0231 -0.173447,-0.01 -0.347482,-0.006 -0.520962,-0.0154 -0.495897,-0.0266 -0.990163,-0.0828 -1.486479,-0.1 -0.522261,-0.0181 -0.935162,0.029 -1.479534,0.0154 -0.982292,-0.0246 -0.224454,-0.0556 -0.965518,-0.1 -0.369218,-0.0221 -0.732038,0.0613 -1.090546,0.0461 -0.496964,0.27839 -0.939403,-0.0816 -1.410073,-0.10764 -0.184764,-0.0102 -0.371253,0.0125 -0.555694,0.008 -0.301172,-0.008 -0.601736,-0.0363 -0.903001,-0.0384 -0.05423,-2.6e-4 -0.105979,0.0238 -0.159761,0.0308 -0.302908,0.0392 -0.606631,0.0718 -0.90995,0.10764 z"
       id="path40" />
    <path
       style="display:inline;fill:none;stroke:#5c5c5c;stroke-width:0.264583px;stroke-linecap:butt;stroke-linejoin:miter;stroke-opacity:1"
       d="m 33.293798,147.46324 c -0.196119,2.6138 -0.222305,1.87332 -0.111138,4.35198 0.0084,0.18708 0.04,0.11832 0.159761,0.13841 0.04739,0.008 0.09131,0.032 0.138925,0.0384 0.615055,0.0833 1.230108,0.16867 1.847678,0.23067 0.343754,0.0345 1.564603,0.0897 1.958821,0.0846 0.100372,-0.001 0.198911,-0.0274 0.298683,-0.0384 0.399124,-0.0442 0.802198,-0.0862 1.201687,-0.12303 0.921496,-0.085 1.846255,-0.14532 2.771521,-0.16147 1.547416,-0.027 2.154828,-0.0466 3.33416,0.11534 0.132318,0.0182 0.264933,0.0355 0.395933,0.0615 0.102976,0.0205 0.194887,0.0842 0.298683,0.1 0.204584,0.0311 0.254863,-0.0611 0.430662,-0.0692 0.04643,-0.002 0.371785,0.0573 0.375095,-0.10765 0.0082,-0.41 -0.03383,-0.82082 -0.04862,-1.23024 -0.01924,-0.53258 -0.01693,-1.06651 -0.02085,-1.59932 -0.0013,-0.18902 -0.03207,-0.49549 -0.01389,-0.67663 0.01778,-0.17723 0.101174,-0.46033 0.02085,-0.63819 -0.0029,-0.006 -0.01516,0.004 -0.02085,0 -0.182872,-0.12882 0.18353,-0.0415 -0.361202,-0.0231 -0.381897,0.0129 -0.764214,0.0103 -1.146116,0.0231 -0.919967,0.0309 -1.823361,-0.24615 -2.715951,-0.43827 -0.37742,-0.0812 -0.422923,-0.0625 -0.847434,-0.11534 -0.224954,-0.028 -0.449186,-0.0615 -0.673777,-0.0923 -0.463079,-0.0487 -0.926592,-0.0934 -1.389235,-0.14609 -0.239254,-0.0272 -0.477607,-0.0623 -0.715454,-0.1 -0.08869,-0.014 -0.174847,-0.0427 -0.263954,-0.0538 -0.124034,-0.0658 -0.255487,-2.6e-4 -0.38204,-0.0154 -0.884293,-0.10542 0.05148,-5.3e-4 -0.597371,-0.10765 -0.146748,-0.0242 -0.298069,-0.0126 -0.444552,-0.0384 -0.424972,-0.0748 -0.267711,-0.0635 -0.507072,-0.12303 -0.532257,-0.13226 -1.064334,-0.28031 -1.604565,-0.37676 -0.05926,-0.0106 -0.120555,0.004 -0.1806,0 -0.06282,-0.005 -0.125031,-0.0154 -0.187547,-0.0231 -0.07641,0 -0.152937,0.004 -0.229222,0 -0.07278,-0.004 -0.01752,-0.0447 -0.111138,-0.0538 -0.0123,-0.001 -0.283837,0.0247 -0.319524,0 -0.02766,-0.0191 -0.120039,-0.12855 -0.180602,-0.0615 -0.107744,0.11927 -0.0384,0.0853 -0.06946,0.19992 -0.0067,0.0249 -0.02315,0.0461 -0.03473,0.0692 -0.01852,0.33319 -0.07407,0.66638 -0.05557,0.99957 0.04389,0.79041 -0.06397,0.69081 0.187548,0.89962"
       id="path41" />
    <path
       style="display:inline;fill:none;stroke:#5c5c5c;stroke-width:0.264583px;stroke-linecap:butt;stroke-linejoin:miter;stroke-opacity:1"
       d="m 39.844032,155.1907 c -0.05201,0.98602 -0.01543,1.97312 -0.02085,2.96027 -0.0013,0.26144 -0.0089,0.52285 -0.0069,0.78428 0.01633,0.17161 0.01389,0.0972 0.01389,0.22298 0,0.0333 0.0046,0.067 0,0.1 -0.0021,0.0161 -0.06483,0 -0.04863,0 0.277415,0 0.548838,-0.0992 0.826595,-0.0769 0.111516,0.009 0.221821,0.0305 0.333415,0.0385 0.174122,0.0123 0.34037,-0.0239 0.514016,-0.0154 0.352528,0.0174 0.682382,0.0925 1.041927,0.0692 0.32123,-0.0208 1.080391,-0.10443 1.50037,-0.16916 0.215754,-0.0333 0.429374,-0.0806 0.645993,-0.10765 1.606836,-0.20054 0.325578,-0.0387 0.958572,-0.0692 0.220914,-0.0106 0.439034,-0.0574 0.659887,-0.0692 0.434459,-0.0232 0.87153,0.0281 1.305878,0.008 0.227655,-0.0107 0.440412,-0.0562 0.666832,-0.0846 0.358415,-0.045 0.717232,-0.0871 1.076655,-0.12302 0.234003,-0.0234 0.446022,0.004 0.687671,-0.0308 0.131307,-0.0191 0.25841,-0.061 0.388988,-0.0846 0.247083,-0.0447 0.560406,-0.1052 0.805754,-0.10765 0.292401,-0.003 0.603898,0.0391 0.896056,0.0538 0.08324,0.004 0.174183,-0.009 0.257009,0 0.04334,0.005 0.08178,0.0329 0.125028,0.0384 0.01429,0.002 0.462217,0.0514 0.479288,0.0231 0.02291,-0.038 -0.07959,-0.14426 -0.0903,-0.17685 -0.03065,-0.0933 -0.06166,-0.18741 -0.07641,-0.28449 -0.06871,-0.45214 -0.121158,-0.90665 -0.173654,-1.36095 -0.07599,-0.65768 -0.06308,-0.82225 -0.06946,-1.55319 -0.0029,-0.33698 0.0053,-0.64705 -0.01389,-0.9765 -0.0037,-0.0641 0.0047,-0.1584 -0.02778,-0.21529 -0.04629,-0.0811 -0.330812,-0.0443 -0.38204,-0.0385 -0.139912,0.016 -0.276421,0.0576 -0.416769,0.0692 -0.20845,0.0172 -0.416237,-0.0439 -0.625155,-0.0538 -0.08561,-0.004 -0.171307,0.007 -0.257008,0.008 -0.203174,0.002 -0.438688,-0.0191 -0.645994,0 -0.47094,0.0434 -0.133995,0.0583 -0.743241,0.0615 -0.340397,0.002 -0.680685,-0.0154 -1.021085,-0.0154 -0.15154,0 -0.598937,0.0205 -0.840489,0.0154 -0.178318,-0.004 -0.356505,-0.0173 -0.534852,-0.0154 -0.06298,7.9e-4 -0.124566,0.0223 -0.187548,0.0231 -0.410183,0.005 -0.819292,-0.0484 -1.229471,-0.0538 -0.116014,-0.002 -0.231539,0.0154 -0.347308,0.0231 -0.428347,-0.003 -0.856927,0.007 -1.285041,-0.008 -0.359183,-0.012 -0.680599,-0.0956 -1.034979,-0.10765 -0.259895,-0.009 -0.527629,0.0521 -0.784918,0.0308 -0.24719,-0.0205 -0.490911,-0.0714 -0.736293,-0.10765 -0.0672,-0.01 -0.133747,-0.0364 -0.201438,-0.0308 -0.12042,0.01 -0.235037,0.0572 -0.354256,0.0769 -0.03655,0.006 -0.07409,0 -0.111138,0 -0.122716,0.0154 -0.246785,0.0223 -0.368147,0.0461 -0.04765,0.009 -0.221234,0.0998 -0.277846,0.10765 -0.03529,0.005 -0.05781,-0.0129 -0.0903,0.0231 -0.110458,0.12227 -0.06557,0.32975 -0.08335,0.47672 -0.02737,0.22621 -0.08369,0.44917 -0.09725,0.67663 -0.01386,0.23279 -0.05976,0.83662 0.06946,1.15335 0.02209,0.0541 0.08413,0.0812 0.125028,0.12303"
       id="path42" />
    <rect
       style="display:inline;fill:#4a4a4a;fill-opacity:1;stroke:#242424;stroke-width:0.1163;stroke-linecap:round;stroke-linejoin:round;stroke-dasharray:none;stroke-opacity:1"
       id="rect42"
       width="162.15585"
       height="17.986805"
       x="24.003395"
       y="65.834999"
       inkscape:label="Roof"
       inkscape:export-filename="jail-front.png"
       inkscape:export-xdpi="300"
       inkscape:export-ydpi="300" />
  </g>
</svg>
