<?xml version="1.0" encoding="UTF-8" standalone="no"?>
<!-- Created with Inkscape (http://www.inkscape.org/) -->

<svg
   width="210mm"
   height="297mm"
   viewBox="0 0 210 297"
   version="1.1"
   id="svg1"
   sodipodi:docname="jail.svg"
   inkscape:version="1.3.2 (091e20e, 2023-11-25, custom)"
   xmlns:inkscape="http://www.inkscape.org/namespaces/inkscape"
   xmlns:sodipodi="http://sodipodi.sourceforge.net/DTD/sodipodi-0.dtd"
   xmlns="http://www.w3.org/2000/svg"
   xmlns:svg="http://www.w3.org/2000/svg">
  <sodipodi:namedview
     id="namedview1"
     pagecolor="#ffffff"
     bordercolor="#666666"
     borderopacity="1.0"
     inkscape:showpageshadow="2"
     inkscape:pageopacity="0.0"
     inkscape:pagecheckerboard="0"
     inkscape:deskcolor="#d1d1d1"
     inkscape:document-units="mm"
     inkscape:zoom="2.5220299"
     inkscape:cx="362.60474"
     inkscape:cy="497.81329"
     inkscape:window-width="1973"
     inkscape:window-height="1161"
     inkscape:window-x="367"
     inkscape:window-y="2152"
     inkscape:window-maximized="1"
     inkscape:current-layer="layer1" />
  <defs
     id="defs1" />
  <g
     inkscape:label="Layer 1"
     inkscape:groupmode="layer"
     id="layer1">
    <rect
       style="fill:#505050;fill-opacity:1;stroke:#010100;stroke-width:0.231868;stroke-linecap:round;stroke-linejoin:round;stroke-dasharray:none;stroke-opacity:0.989542"
       id="rect10"
       width="71.759811"
       height="22.557541"
       x="95.124245"
       y="81.496956"
       inkscape:export-filename="jail-floor.png"
       inkscape:export-xdpi="300"
       inkscape:export-ydpi="300" />
    <path
       style="fill:#6f6f6f;fill-opacity:1;stroke:#000000;stroke-width:0.124969px;stroke-linecap:butt;stroke-linejoin:miter;stroke-opacity:1"
       d="m 75.699908,109.81235 v -3.39494 h -16.78993 v 3.52901 z"
       id="path2-3-4-9-3"
       inkscape:export-filename="jail.png"
       inkscape:export-xdpi="300"
       inkscape:export-ydpi="300" />
    <path
       style="fill:#6f6f6f;fill-opacity:1;stroke:#000000;stroke-width:0.124969px;stroke-linecap:butt;stroke-linejoin:miter;stroke-opacity:1"
       d="m 34.524498,109.78266 v -3.39495 h -16.78993 v 3.52902 z"
       id="path2-3-4-9-7-8" />
    <path
       id="path1-1-9-2"
       style="fill:#858585;fill-opacity:1;stroke:#000000;stroke-width:0.189882px;stroke-linecap:butt;stroke-linejoin:miter;stroke-opacity:1"
       d="m 85.411908,97.537764 -77.4902463,0.0817 0.151637,14.892216 77.4927893,-0.0816 z m -67.547026,1.7406 H 34.429089 V 109.81288 H 17.864882 Z m 41.193786,0 h 16.5637 v 10.534516 h -16.5637 z" />
    <rect
       style="fill:#000000;fill-opacity:1;stroke:#010100;stroke-width:0.232601;stroke-linecap:round;stroke-linejoin:round;stroke-dasharray:none;stroke-opacity:0.989542"
       id="rect8-2-5-6"
       width="0.68580031"
       height="8.412962"
       x="60.070179"
       y="99.368088" />
    <rect
       style="fill:#000000;fill-opacity:1;stroke:#010100;stroke-width:0.232601;stroke-linecap:round;stroke-linejoin:round;stroke-dasharray:none;stroke-opacity:0.989542"
       id="rect8-4-1-6-8"
       width="0.68580031"
       height="8.412962"
       x="62.845715"
       y="99.368088" />
    <rect
       style="fill:#000000;fill-opacity:1;stroke:#010100;stroke-width:0.232601;stroke-linecap:round;stroke-linejoin:round;stroke-dasharray:none;stroke-opacity:0.989542"
       id="rect8-4-9-8-1-4"
       width="0.68580031"
       height="8.412962"
       x="65.621246"
       y="99.368088" />
    <rect
       style="fill:#000000;fill-opacity:1;stroke:#010100;stroke-width:0.232601;stroke-linecap:round;stroke-linejoin:round;stroke-dasharray:none;stroke-opacity:0.989542"
       id="rect8-4-6-5-2-4"
       width="0.68580031"
       height="8.412962"
       x="68.396751"
       y="99.368088" />
    <rect
       style="fill:#000000;fill-opacity:1;stroke:#010100;stroke-width:0.232601;stroke-linecap:round;stroke-linejoin:round;stroke-dasharray:none;stroke-opacity:0.989542"
       id="rect8-4-7-5-7-7"
       width="0.68580031"
       height="8.412962"
       x="71.172287"
       y="99.368088" />
    <rect
       style="fill:#000000;fill-opacity:1;stroke:#010100;stroke-width:0.232601;stroke-linecap:round;stroke-linejoin:round;stroke-dasharray:none;stroke-opacity:0.989542"
       id="rect8-4-61-1-8-0"
       width="0.68580031"
       height="8.412962"
       x="73.9478"
       y="99.368088" />
    <rect
       style="fill:#000000;fill-opacity:1;stroke:#010100;stroke-width:0.232601;stroke-linecap:round;stroke-linejoin:round;stroke-dasharray:none;stroke-opacity:0.989542"
       id="rect8-2-0-7"
       width="0.68580031"
       height="8.412962"
       x="18.926441"
       y="99.368088" />
    <rect
       style="fill:#000000;fill-opacity:1;stroke:#010100;stroke-width:0.232601;stroke-linecap:round;stroke-linejoin:round;stroke-dasharray:none;stroke-opacity:0.989542"
       id="rect8-4-1-7-3"
       width="0.68580031"
       height="8.412962"
       x="21.701969"
       y="99.368088" />
    <rect
       style="fill:#000000;fill-opacity:1;stroke:#010100;stroke-width:0.232601;stroke-linecap:round;stroke-linejoin:round;stroke-dasharray:none;stroke-opacity:0.989542"
       id="rect8-4-9-8-0-6"
       width="0.68580031"
       height="8.412962"
       x="24.477505"
       y="99.368088" />
    <rect
       style="fill:#000000;fill-opacity:1;stroke:#010100;stroke-width:0.232601;stroke-linecap:round;stroke-linejoin:round;stroke-dasharray:none;stroke-opacity:0.989542"
       id="rect8-4-6-5-9-6"
       width="0.68580031"
       height="8.412962"
       x="27.253017"
       y="99.368088" />
    <rect
       style="fill:#000000;fill-opacity:1;stroke:#010100;stroke-width:0.232601;stroke-linecap:round;stroke-linejoin:round;stroke-dasharray:none;stroke-opacity:0.989542"
       id="rect8-4-7-5-70-1"
       width="0.68580031"
       height="8.412962"
       x="30.028545"
       y="99.368088" />
    <rect
       style="fill:#000000;fill-opacity:1;stroke:#010100;stroke-width:0.232601;stroke-linecap:round;stroke-linejoin:round;stroke-dasharray:none;stroke-opacity:0.989542"
       id="rect8-4-61-1-4-3"
       width="0.68580031"
       height="8.412962"
       x="32.804066"
       y="99.368088" />
    <path
       style="fill:#6f6f6f;fill-opacity:1;stroke:#000000;stroke-width:0.125721px;stroke-linecap:butt;stroke-linejoin:miter;stroke-opacity:1"
       d="m 129.97443,162.50428 v -3.39469 h -16.99385 v 3.52874 z"
       id="path2-3-4-9"
       inkscape:export-filename="jail_front.png"
       inkscape:export-xdpi="300"
       inkscape:export-ydpi="300" />
    <path
       style="fill:#6f6f6f;fill-opacity:1;stroke:#000000;stroke-width:0.125721px;stroke-linecap:butt;stroke-linejoin:miter;stroke-opacity:1"
       d="m 88.298935,162.47459 v -3.39469 h -16.99385 v 3.52874 z"
       id="path2-3-4-9-7" />
    <path
       id="path1-1-9"
       style="fill:#858585;fill-opacity:1;stroke:#000000;stroke-width:0.191025px;stroke-linecap:butt;stroke-linejoin:miter;stroke-opacity:1"
       d="m 139.8046,150.23062 -78.326694,0.0817 0.153274,14.89108 78.32927,-0.0816 z m -68.276144,1.74047 h 16.743005 v 10.53372 H 71.528456 Z m 41.638444,0 h 16.74249 v 10.53372 H 113.1669 Z" />
    <path
       style="fill:none;stroke:#000000;stroke-width:0.237965px;stroke-linecap:butt;stroke-linejoin:miter;stroke-opacity:1"
       d="m 62.631574,156.50089 c -0.03217,0.48673 -0.0293,0.20457 -0.0063,0.60752 0.0054,0.0962 -0.0045,0.19416 0.01344,0.28876 0.03477,0.18041 0.181759,0.41972 0.306007,0.55127 0.06264,0.0663 0.223551,0.1771 0.302656,0.20625 0.07088,0.0261 0.149043,0.0254 0.221947,0.045 0.07608,0.0205 0.143398,0.0665 0.218578,0.09 0.03835,0.012 0.07858,0.0169 0.117699,0.0263 0.213336,0.0511 0.427854,0.1189 0.649022,0.12751 0.04373,0.002 0.08755,-0.007 0.131148,-0.004 0.132403,0.01 0.17382,0.0348 0.299287,0.0525 0.04346,0.006 0.0879,0.004 0.131149,0.0113 0.02437,0.005 0.04615,0.0192 0.07061,0.0225 0.132322,0.0179 0.267458,0.005 0.400175,0.0225 0.178353,0.0243 0.09796,0.0391 0.292566,0.03 0.081,-0.004 0.161122,-0.0195 0.242118,-0.0225 0.183864,-0.006 0.36711,0.0346 0.551494,0.0188 0.06792,-0.005 0.134123,-0.0252 0.201776,-0.0338 0.06138,-0.008 0.123891,-0.005 0.184949,-0.015 0.08504,-0.0138 0.166874,-0.0447 0.252207,-0.0562 0.07222,-0.01 0.146337,0.003 0.218587,-0.007 0.06488,-0.009 0.371967,-0.0925 0.437165,-0.10875 0.0595,-0.0148 0.301616,-0.0644 0.312736,-0.0675 0.07312,-0.0206 0.141857,-0.0553 0.215218,-0.075 0.271168,-0.0726 0.558743,-0.0728 0.83061,-0.13875 0.04937,-0.012 0.09641,-0.0325 0.144608,-0.0488 0.05493,-0.015 0.109427,-0.0317 0.164769,-0.045 0.13061,-0.0314 0.273542,-0.0286 0.400175,-0.075 0.09584,-0.0351 0.210235,-0.11103 0.285836,-0.18001 0.09958,-0.0908 0.244089,-0.34142 0.275747,-0.46502 0.02357,-0.0921 0.03253,-0.21118 -0.01013,-0.30001 -0.02411,-0.0502 -0.07921,-0.0796 -0.1076,-0.1275 -0.02455,-0.0414 -0.03548,-0.0901 -0.06048,-0.13126 -0.02016,-0.0332 -0.05072,-0.059 -0.07402,-0.09 -0.02832,-0.0377 -0.04668,-0.0837 -0.08074,-0.11625 -0.02258,-0.0216 -0.05806,-0.0239 -0.08405,-0.0413 -0.03271,-0.0217 -0.06057,-0.05 -0.0908,-0.075 -0.03253,-0.0312 -0.06031,-0.0684 -0.09752,-0.0938 -0.03011,-0.0205 -0.0681,-0.0255 -0.100888,-0.0412 -0.08495,-0.0406 -0.166982,-0.0874 -0.252207,-0.1275 -0.0371,-0.0174 -0.07733,-0.0274 -0.114338,-0.045 -0.04722,-0.0225 -0.0888,-0.057 -0.137869,-0.075 -0.107233,-0.0394 -0.490517,-0.0619 -0.514514,-0.0637 -0.07832,-0.005 -0.156919,-0.0148 -0.235397,-0.0113 -0.06013,0.003 -0.118567,0.0217 -0.178228,0.03 -0.0121,0.002 -0.334869,0.0372 -0.342997,0.0375 -0.106685,0.004 -0.212798,-0.0265 -0.319475,-0.0225 -0.07679,0.003 -0.151874,0.0265 -0.228667,0.03 -0.09074,0.005 -0.181571,-0.006 -0.272387,-0.007 -0.248668,-0.005 -0.0871,0.002 -0.332916,0.007 -0.150325,0.004 -0.297558,-0.0152 -0.447246,-0.0188 -0.05493,9e-4 -0.109858,0.003 -0.164787,0.004 -0.02133,0.005 -0.04211,0.0135 -0.06389,0.015 -0.05117,0.004 -0.240666,-9e-4 -0.292558,-0.007 -0.09663,-0.0121 -0.18545,-0.0668 -0.282476,-0.075 -0.22373,-0.019 -0.464773,0.017 -0.689372,0.0375 -0.03262,0.003 -0.06479,0.0113 -0.09752,0.0113 -0.03163,0 -0.06255,-0.0118 -0.09416,-0.0113 -0.08226,0.002 -0.157896,0.0291 -0.235397,0.0487 -0.127699,0.0324 -0.07294,0.002 -0.195047,0.045 -0.156785,0.0549 0.0081,0.0125 -0.181588,0.0938 -0.04677,0.02 -0.081,0.0137 -0.127789,0.0338 -0.100977,0.0433 -0.188676,0.0975 -0.299286,0.11626 -0.07858,0.0134 -0.161651,0.0143 -0.238758,0.0375 -0.01568,0.005 -0.02742,0.0209 -0.04373,0.0225 -0.132582,0.0137 -0.261392,-0.0292 -0.393454,-0.0225 -0.123667,0.006 -0.334269,0.15042 -0.383356,0.17625 z"
       id="path4" />
    <path
       style="fill:none;stroke:#000000;stroke-width:0.160204px;stroke-linecap:butt;stroke-linejoin:miter;stroke-opacity:1"
       d="m 63.138274,163.21551 c 0.0085,-0.0786 0.0034,-0.15888 0.02544,-0.23572 0.02327,-0.0801 0.141404,-0.20757 0.211316,-0.26041 0.0519,-0.0392 0.11386,-0.0691 0.173127,-0.10102 0.101228,-0.0545 0.201764,-0.0898 0.320801,-0.11898 0.06391,-0.0157 0.131411,-0.0201 0.196044,-0.0337 0.04586,-0.01 0.08876,-0.0273 0.134939,-0.0359 0.139756,-0.026 0.135943,-0.009 0.272422,-0.0202 0.03942,-0.003 0.07782,-0.0119 0.117117,-0.0157 0.135908,-0.013 0.275908,-0.0212 0.412455,-0.0292 0.04491,-0.003 0.08996,-0.003 0.134939,-0.004 0.04586,-0.004 0.09146,-0.0105 0.137486,-0.0135 0.04654,-0.003 0.09363,-1.4e-4 0.140027,-0.004 0.09128,-0.008 0.181615,-0.0225 0.272429,-0.0337 0.0424,-0.005 0.08556,-0.008 0.1273,-0.0157 0.04423,-0.008 0.08584,-0.0244 0.129843,-0.0337 0.08671,-0.0183 0.176418,-0.0259 0.26479,-0.0382 0.03555,-0.005 0.192368,-0.0273 0.244416,-0.0315 0.03385,-0.003 0.068,-0.002 0.101839,-0.004 0.148901,-0.0113 0.183616,-0.0235 0.318256,-0.0202 0.137476,0.003 0.269912,0.0302 0.407361,0.0315 0.106248,-0.004 0.13293,-0.006 0.239328,-0.004 0.08575,0.002 0.135441,0.006 0.218955,0.009 0.05353,0.002 0.126879,5.4e-4 0.180773,0.009 0.03033,0.005 0.05855,0.0169 0.08911,0.0202 0.02123,0.002 0.181119,0.006 0.213866,0.007 0.03223,4.2e-4 0.06499,-0.004 0.09675,0 0.02442,0.003 0.04525,0.0162 0.06874,0.0224 0.03066,0.008 0.132876,0.027 0.170583,0.0449 0.05047,0.024 0.09117,0.0593 0.140027,0.0853 0.02456,0.0131 0.05095,0.0239 0.07638,0.0359 0.02544,0.0172 0.04959,0.0358 0.07638,0.0517 0.0251,0.0149 0.05448,0.0249 0.07893,0.0404 0.04396,0.0279 0.160882,0.1159 0.190956,0.15266 0.02225,0.0272 0.03392,0.0591 0.05346,0.0875 0.0077,0.0113 0.02056,0.02 0.02802,0.0315 0.12962,0.19896 0.167035,0.46779 0.09674,0.6847 -0.02605,0.0805 -0.08372,0.14409 -0.137483,0.21328 -0.01282,0.0165 -0.07918,0.11647 -0.09929,0.13694 -0.01513,0.0154 -0.03786,0.0253 -0.05346,0.0404 -0.06242,0.0605 -0.08143,0.10436 -0.157856,0.16163 -0.0671,0.0503 -0.06031,0.0284 -0.134939,0.0651 -0.07798,0.0384 -0.04227,0.041 -0.129844,0.0561 -0.04593,0.008 -0.09313,0.0108 -0.140034,0.0135 -0.02707,0.002 -0.05455,-0.003 -0.08147,0 -0.0698,0.007 -0.137062,0.0256 -0.206228,0.0359 -0.09276,0.0138 -0.187951,0.0224 -0.280061,0.0382 -0.03019,0.005 -0.05882,0.0153 -0.08911,0.0202 -0.110054,0.0179 -0.220712,0.0229 -0.330983,0.0426 -0.05712,0.0102 -0.112795,0.026 -0.170584,0.0337 -0.04444,0.006 -0.09038,0.001 -0.134939,0.007 -0.04233,0.005 -0.08298,0.0171 -0.124755,0.0247 -0.03976,0.007 -0.12112,0.009 -0.145122,0.0112 -0.03657,0.003 -0.07269,0.0117 -0.109478,0.0112 -0.02198,-2.9e-4 -0.04193,-0.011 -0.06364,-0.0135 -0.04885,-0.006 -0.09875,-0.004 -0.147673,-0.009 -0.03141,-0.003 -0.113616,-0.0157 -0.145122,-0.0157 -0.03392,0.002 -0.06789,0.004 -0.101838,0.007 -0.01954,0.006 -0.03779,0.0163 -0.05855,0.0179 -0.03256,0.003 -0.06404,-0.0135 -0.09675,-0.0135 -0.04403,0 -0.109308,0.015 -0.152761,0.004 -0.01832,-0.004 -0.03121,-0.0179 -0.04837,-0.0247 -0.03874,-0.0153 -0.09297,-0.004 -0.134938,-0.0135 -0.0194,-0.004 -0.0365,-0.0141 -0.05604,-0.0179 -0.02239,-0.004 -0.04661,-0.002 -0.06874,-0.007 -0.02849,-0.007 -0.05298,-0.0222 -0.08147,-0.0292 -0.01791,-0.004 -0.03854,0.001 -0.05604,-0.004 -0.02436,-0.008 -0.04118,-0.0274 -0.06621,-0.0337 -0.02184,-0.005 -0.046,0.002 -0.06874,0 -0.02096,-0.002 -0.04043,-0.01 -0.06113,-0.0135 -0.04878,-0.008 -0.09913,-0.009 -0.147662,-0.0179 -0.190855,-0.0348 0.0371,-0.004 -0.142578,-0.0269 -0.09908,-0.0125 -0.200624,-0.006 -0.300434,-0.009 -0.09164,-0.002 -0.183284,-0.0107 -0.274966,-0.0135 -0.16171,-0.005 0.0092,-10e-4 -0.152761,-0.0179 -0.02524,-0.003 -0.05136,0.002 -0.07638,-0.002 -0.02558,-0.004 -0.04864,-0.0149 -0.07383,-0.0202 -0.05706,-0.012 -0.126879,-0.0196 -0.185862,-0.0247 -0.01689,-0.002 -0.03412,0.002 -0.05095,0 -0.02307,-0.003 -0.0733,-0.044 -0.07638,-0.0449 -0.02768,-0.008 -0.08996,0.002 -0.122211,-0.002 -0.01744,-0.002 -0.03372,-0.008 -0.05095,-0.0112 -0.01764,-0.003 -0.03623,-0.003 -0.05346,-0.007 -0.03324,-0.008 -0.06153,-0.0263 -0.0942,-0.0359 -0.01398,-0.004 -0.03026,-0.003 -0.04328,-0.009 -0.03976,-0.0176 -0.05624,-0.0628 -0.08657,-0.0875 -0.01655,-0.0135 -0.05176,-0.0258 -0.06621,-0.0426 -0.01438,-0.0168 -0.02096,-0.0373 -0.03562,-0.0539 -0.0069,-0.008 -0.02056,-0.0105 -0.02802,-0.0179 -0.06146,-0.0616 -0.120393,-0.16487 -0.134932,-0.24021 -0.01018,-0.0526 0.02653,-0.13126 0.01784,-0.16837 -0.01194,-0.0509 -0.03223,-0.10028 -0.04837,-0.15042 z"
       id="path5-2" />
    <path
       style="fill:none;stroke:#000000;stroke-width:0.223996px;stroke-linecap:butt;stroke-linejoin:miter;stroke-opacity:1"
       d="m 131.19151,154.36545 c 0.0111,-0.11713 0.004,-0.23687 0.0334,-0.35142 0.0305,-0.11939 0.18543,-0.30946 0.2771,-0.38823 0.0681,-0.0585 0.14931,-0.10304 0.22702,-0.15062 0.13274,-0.0813 0.26458,-0.1338 0.42067,-0.17738 0.0838,-0.0234 0.17232,-0.03 0.25707,-0.0502 0.0601,-0.0143 0.11639,-0.0408 0.17695,-0.0536 0.18326,-0.0388 0.17826,-0.0135 0.35722,-0.0301 0.0517,-0.005 0.10204,-0.0178 0.15358,-0.0234 0.17821,-0.0194 0.3618,-0.0316 0.54085,-0.0435 0.0589,-0.004 0.11796,-0.005 0.17694,-0.006 0.0601,-0.006 0.11994,-0.0156 0.18029,-0.0201 0.061,-0.005 0.12278,-2.2e-4 0.18362,-0.006 0.1197,-0.0126 0.23815,-0.0335 0.35724,-0.0502 0.0556,-0.008 0.11219,-0.0114 0.16692,-0.0234 0.058,-0.0127 0.11257,-0.0364 0.17027,-0.0502 0.1137,-0.0272 0.23133,-0.0387 0.34722,-0.0569 0.0466,-0.007 0.25225,-0.0407 0.3205,-0.0469 0.0444,-0.004 0.0892,-0.003 0.13354,-0.006 0.19525,-0.0168 0.24077,-0.0351 0.41733,-0.0301 0.18027,0.005 0.35393,0.045 0.53417,0.0469 0.13932,-0.006 0.17431,-0.01 0.31383,-0.006 0.11245,0.002 0.1776,0.009 0.28711,0.0134 0.0702,0.002 0.16638,8e-4 0.23705,0.0134 0.0398,0.007 0.0768,0.0251 0.11684,0.0301 0.0279,0.003 0.2375,0.009 0.28045,0.0101 0.0422,6.4e-4 0.0852,-0.006 0.12686,0 0.032,0.005 0.0593,0.0241 0.0901,0.0334 0.0402,0.0123 0.17424,0.0403 0.22368,0.067 0.0662,0.0358 0.11955,0.0884 0.18362,0.12718 0.0322,0.0195 0.0668,0.0357 0.10016,0.0536 0.0334,0.0257 0.065,0.0533 0.10016,0.077 0.0329,0.0222 0.0714,0.0371 0.10349,0.0603 0.0576,0.0416 0.21097,0.1728 0.25041,0.22759 0.0292,0.0405 0.0445,0.0881 0.0701,0.13053 0.0101,0.0168 0.0269,0.0298 0.0367,0.0469 0.16997,0.29662 0.21903,0.69741 0.12686,1.0208 -0.0342,0.11999 -0.10978,0.2148 -0.18028,0.31795 -0.0168,0.0246 -0.10383,0.17365 -0.13021,0.20416 -0.0198,0.023 -0.0496,0.0377 -0.0701,0.0603 -0.0818,0.0902 -0.10678,0.15558 -0.207,0.24098 -0.088,0.0749 -0.0791,0.0424 -0.17694,0.097 -0.10226,0.0572 -0.0554,0.0611 -0.17026,0.0837 -0.0602,0.0118 -0.12213,0.0161 -0.18363,0.0201 -0.0355,0.002 -0.0715,-0.004 -0.10683,0 -0.0915,0.0106 -0.17973,0.0382 -0.27043,0.0536 -0.12164,0.0206 -0.24646,0.0334 -0.36724,0.0569 -0.0396,0.008 -0.0771,0.0228 -0.11685,0.0301 -0.14432,0.0267 -0.28942,0.0342 -0.43402,0.0636 -0.0749,0.0152 -0.14791,0.0388 -0.22369,0.0502 -0.0583,0.009 -0.11851,0.002 -0.17694,0.0101 -0.0555,0.008 -0.10881,0.0255 -0.16359,0.0368 -0.0521,0.0108 -0.15883,0.0138 -0.1903,0.0168 -0.048,0.005 -0.0953,0.0174 -0.14356,0.0168 -0.0288,-4.3e-4 -0.055,-0.0164 -0.0834,-0.0201 -0.0641,-0.008 -0.12949,-0.006 -0.19364,-0.0134 -0.0412,-0.005 -0.14898,-0.0234 -0.1903,-0.0234 -0.0445,0.003 -0.089,0.006 -0.13354,0.0101 -0.0256,0.009 -0.0495,0.0242 -0.0768,0.0267 -0.0427,0.004 -0.084,-0.0201 -0.12687,-0.0201 -0.0577,0 -0.14334,0.0224 -0.20032,0.006 -0.024,-0.006 -0.0409,-0.0267 -0.0634,-0.0368 -0.0508,-0.0228 -0.12191,-0.006 -0.17694,-0.0201 -0.0254,-0.006 -0.0479,-0.021 -0.0735,-0.0267 -0.0294,-0.006 -0.0611,-0.002 -0.0901,-0.0101 -0.0374,-0.0102 -0.0695,-0.0331 -0.10683,-0.0435 -0.0235,-0.006 -0.0505,0.002 -0.0735,-0.006 -0.0319,-0.0114 -0.054,-0.0409 -0.0868,-0.0502 -0.0286,-0.008 -0.0603,0.003 -0.0901,0 -0.0275,-0.003 -0.053,-0.0149 -0.0802,-0.0201 -0.064,-0.0121 -0.12999,-0.0136 -0.19363,-0.0267 -0.25027,-0.0519 0.0487,-0.006 -0.18697,-0.0401 -0.12992,-0.0186 -0.26307,-0.01 -0.39395,-0.0134 -0.12017,-0.003 -0.24034,-0.016 -0.36057,-0.0201 -0.21205,-0.007 0.012,-0.002 -0.20031,-0.0267 -0.0331,-0.004 -0.0674,0.002 -0.10016,-0.003 -0.0335,-0.006 -0.0638,-0.0222 -0.0968,-0.0301 -0.0748,-0.0178 -0.16638,-0.0293 -0.24372,-0.0368 -0.0222,-0.002 -0.0447,0.003 -0.0668,0 -0.0302,-0.004 -0.0961,-0.0656 -0.10015,-0.067 -0.0363,-0.0124 -0.11797,0.002 -0.16026,-0.003 -0.0229,-0.003 -0.0442,-0.0123 -0.0668,-0.0168 -0.0231,-0.005 -0.0475,-0.004 -0.0701,-0.0101 -0.0436,-0.0123 -0.0807,-0.0392 -0.12353,-0.0536 -0.0183,-0.006 -0.0397,-0.005 -0.0567,-0.0134 -0.0521,-0.0262 -0.0738,-0.0936 -0.11352,-0.13053 -0.0217,-0.0201 -0.0679,-0.0385 -0.0868,-0.0636 -0.0189,-0.025 -0.0275,-0.0556 -0.0467,-0.0803 -0.009,-0.0117 -0.0269,-0.0156 -0.0367,-0.0267 -0.0806,-0.0918 -0.15787,-0.24579 -0.17694,-0.35811 -0.0133,-0.0785 0.0348,-0.1957 0.0234,-0.25102 -0.0157,-0.0758 -0.0423,-0.14949 -0.0634,-0.22424 z"
       id="path5-5" />
    <path
       style="fill:none;stroke:#000000;stroke-width:0.264583px;stroke-linecap:butt;stroke-linejoin:miter;stroke-opacity:1"
       d="m 104.53455,152.30896 c 0.12134,-0.0388 0.24011,-0.0868 0.36403,-0.11632 0.0921,-0.0219 0.18779,-0.0239 0.28146,-0.0374 0.33352,-0.0481 0.66849,-0.0813 1.00201,-0.12878 0.70561,-0.10048 0.0612,-0.0352 0.66425,-0.0623 0.19012,-0.009 0.38359,-0.0414 0.57419,-0.0374 0.0716,0.002 0.14276,0.0124 0.21391,0.0208 0.31754,0.0373 0.63272,0.0709 0.94946,0.12048 0.36164,0.0566 0.11956,0.0443 0.49538,0.0665 0.18185,0.0107 0.37028,0.0174 0.55166,0.0208 0.0952,0.002 0.19031,-0.0194 0.28522,-0.0125 0.0508,0.004 0.10026,0.0185 0.15011,0.0291 0.29793,0.0634 -0.009,0.003 0.27772,0.0665 0.0611,0.0135 0.12462,0.0174 0.18388,0.0374 0.0444,0.015 0.0833,0.0429 0.12385,0.0665 0.18958,0.11018 0.41474,0.22231 0.56668,0.39049 0.0386,0.0427 0.0665,0.0944 0.10508,0.13709 0.0305,0.0337 0.0676,0.0609 0.10132,0.0914 0.025,0.0415 0.0456,0.0861 0.0751,0.12462 0.0186,0.0243 0.0535,0.0351 0.0676,0.0623 0.0224,0.0433 0.0218,0.0951 0.0375,0.14124 0.0131,0.0386 0.0395,0.0725 0.0488,0.11217 0.01,0.0419 0.003,0.086 0.008,0.12878 0.0291,0.26377 0.006,0.52948 -0.0713,0.78514 -0.0228,0.0755 -0.0651,0.22111 -0.10133,0.29494 -0.0867,0.17642 -0.0264,0.0375 -0.15387,0.15371 -0.39388,0.35906 0.20815,-0.12566 -0.21766,0.24094 -0.0299,0.0257 -0.24127,0.16373 -0.26645,0.17448 -0.18232,0.0778 -0.11129,0.0221 -0.23643,0.0498 -0.15196,0.0336 -0.25954,0.0741 -0.41281,0.0997 -0.35228,0.0589 -0.69911,0.10409 -1.05455,0.12462 -0.59712,0.0345 0.16917,-0.0151 -0.42783,0.008 -0.20522,0.008 -0.4173,0.0615 -0.62297,0.0457 -0.40507,-0.0311 0.0684,-0.0561 -0.3415,-0.0374 -0.29891,0.0136 -0.0845,0.0243 -0.3903,0.0208 -0.23686,-0.003 -0.25889,-0.035 -0.56668,-0.0457 -0.13403,-0.005 -0.26744,0.0249 -0.40155,0.0249 -0.12266,0 -0.24535,-0.005 -0.36778,-0.0125 -0.0703,-0.004 -0.1398,-0.0186 -0.21016,-0.0208 -0.0638,-0.002 -0.12759,0.0111 -0.19139,0.008 -0.18731,-0.008 -0.21299,-0.0365 -0.3978,-0.0748 -1.05348,-0.21813 0.13722,0.0323 -0.48412,-0.0789 -0.11563,-0.0207 -0.22883,-0.0551 -0.34526,-0.0706 -0.24924,-0.0333 -0.12435,0.0425 -0.38279,-0.0208 -0.0889,-0.0218 -0.17001,-0.0697 -0.25895,-0.0914 -0.0377,-0.009 -0.0786,0.009 -0.11633,0 -0.0405,-0.01 -0.0735,-0.0396 -0.11259,-0.054 -0.0215,-0.008 -0.048,-5.3e-4 -0.0675,-0.0125 -0.0834,-0.0513 -0.15315,-0.12293 -0.23643,-0.17447 -0.034,-0.0211 -0.0792,-0.0195 -0.11258,-0.0416 -0.14703,-0.0971 -0.29364,-0.3473 -0.34151,-0.51511 -0.0405,-0.14207 -0.0307,-0.18448 -0.0413,-0.34065 -0.0103,-0.15158 -0.0272,-0.30913 0.0225,-0.45696 0.0488,-0.14512 0.18682,-0.20428 0.27771,-0.33233 0.0813,-0.11458 -0.0194,-0.0572 0.13135,-0.17863 0.10249,-0.0825 0.12324,-0.0536 0.24394,-0.0956 0.14853,-0.0517 0.16188,-0.0895 0.32274,-0.15786 0.0419,-0.0178 0.0888,-0.0212 0.13135,-0.0374 0.0778,-0.0296 0.15239,-0.067 0.22892,-0.0997 0.38072,-0.16265 -0.46562,0.16358 0.44659,-0.30325 0.12619,-0.0646 0.2716,-0.0817 0.40531,-0.12878 0.004,-0.002 0.0246,-0.042 0.0263,-0.0374 0.0244,0.0675 -0.005,0.0118 -0.008,0.008"
       id="path7" />
    <path
       style="fill:none;stroke:#000000;stroke-width:0.264583px;stroke-linecap:butt;stroke-linejoin:miter;stroke-opacity:1"
       d="m 108.65717,162.40331 c -0.12134,0.0388 -0.24011,0.0868 -0.36403,0.11632 -0.0921,0.0219 -0.18779,0.0239 -0.28146,0.0374 -0.33352,0.0481 -0.66849,0.0813 -1.00201,0.12878 -0.70561,0.10048 -0.0612,0.0352 -0.66425,0.0623 -0.19012,0.009 -0.38359,0.0414 -0.57419,0.0374 -0.0716,-0.002 -0.14276,-0.0124 -0.21391,-0.0208 -0.31754,-0.0373 -0.63272,-0.0709 -0.94946,-0.12048 -0.36164,-0.0566 -0.11956,-0.0443 -0.49538,-0.0665 -0.18185,-0.0107 -0.37028,-0.0174 -0.55166,-0.0208 -0.0952,-0.002 -0.19031,0.0194 -0.28522,0.0125 -0.0508,-0.004 -0.10026,-0.0185 -0.15011,-0.0291 -0.29793,-0.0634 0.009,-0.003 -0.27772,-0.0665 -0.0611,-0.0135 -0.12462,-0.0174 -0.18388,-0.0374 -0.0444,-0.015 -0.0833,-0.0429 -0.12385,-0.0665 -0.18958,-0.11018 -0.41474,-0.22231 -0.56668,-0.39049 -0.0386,-0.0427 -0.0665,-0.0944 -0.10508,-0.13709 -0.0305,-0.0337 -0.0676,-0.0609 -0.10132,-0.0914 -0.025,-0.0415 -0.0456,-0.0861 -0.0751,-0.12462 -0.0186,-0.0243 -0.0535,-0.0351 -0.0676,-0.0623 -0.0224,-0.0433 -0.0218,-0.0951 -0.0375,-0.14124 -0.0131,-0.0386 -0.0395,-0.0725 -0.0488,-0.11217 -0.01,-0.0419 -0.003,-0.086 -0.008,-0.12878 -0.0291,-0.26377 -0.006,-0.52948 0.0713,-0.78514 0.0228,-0.0755 0.0651,-0.22111 0.10133,-0.29494 0.0867,-0.17642 0.0264,-0.0375 0.15387,-0.15371 0.39388,-0.35906 -0.20815,0.12566 0.21766,-0.24094 0.0299,-0.0257 0.24127,-0.16373 0.26645,-0.17448 0.18232,-0.0778 0.11129,-0.0221 0.23643,-0.0498 0.15196,-0.0336 0.25954,-0.0741 0.41281,-0.0997 0.35228,-0.0589 0.69911,-0.10409 1.05455,-0.12462 0.59712,-0.0345 -0.16917,0.0151 0.42783,-0.008 0.20522,-0.008 0.4173,-0.0615 0.62297,-0.0457 0.40507,0.0311 -0.0684,0.0561 0.3415,0.0374 0.29891,-0.0136 0.0845,-0.0243 0.3903,-0.0208 0.23686,0.003 0.25889,0.035 0.56668,0.0457 0.13403,0.005 0.26744,-0.0249 0.40155,-0.0249 0.12266,0 0.24535,0.005 0.36778,0.0125 0.0703,0.004 0.1398,0.0186 0.21016,0.0208 0.0638,0.002 0.12759,-0.0111 0.19139,-0.008 0.18731,0.008 0.21299,0.0365 0.3978,0.0748 1.05348,0.21813 -0.13722,-0.0323 0.48412,0.0789 0.11563,0.0207 0.22883,0.0551 0.34526,0.0706 0.24924,0.0333 0.12435,-0.0425 0.38279,0.0208 0.0889,0.0218 0.17001,0.0697 0.25895,0.0914 0.0377,0.009 0.0786,-0.009 0.11633,0 0.0405,0.01 0.0735,0.0396 0.11259,0.054 0.0215,0.008 0.048,5.3e-4 0.0675,0.0125 0.0834,0.0513 0.15315,0.12293 0.23643,0.17447 0.034,0.0211 0.0792,0.0195 0.11258,0.0416 0.14703,0.0971 0.29364,0.3473 0.34151,0.51511 0.0405,0.14207 0.0307,0.18448 0.0413,0.34065 0.0103,0.15158 0.0272,0.30913 -0.0225,0.45696 -0.0488,0.14512 -0.18682,0.20428 -0.27771,0.33233 -0.0813,0.11458 0.0194,0.0572 -0.13135,0.17863 -0.10249,0.0825 -0.12324,0.0536 -0.24394,0.0956 -0.14853,0.0517 -0.16188,0.0895 -0.32274,0.15786 -0.0419,0.0178 -0.0888,0.0212 -0.13135,0.0374 -0.0778,0.0296 -0.15239,0.067 -0.22892,0.0997 -0.38072,0.16265 0.46562,-0.16358 -0.44659,0.30325 -0.12619,0.0646 -0.2716,0.0817 -0.40531,0.12878 -0.004,0.002 -0.0246,0.042 -0.0263,0.0374 -0.0244,-0.0675 0.005,-0.0118 0.008,-0.008"
       id="path7-2" />
    <path
       style="fill:none;stroke:#000000;stroke-width:0.264583px;stroke-linecap:butt;stroke-linejoin:miter;stroke-opacity:1"
       d="m 95.740431,154.73597 c -0.16137,0.0443 -0.31925,0.10421 -0.48411,0.13294 -0.10725,0.0187 -0.21764,0.007 -0.3265,0.008 -0.10349,0.001 -0.6267,8e-4 -0.70553,-0.008 -0.12699,-0.0146 -0.2495,-0.0562 -0.37529,-0.0789 -0.0807,-0.0146 -0.16287,-0.0204 -0.24393,-0.0332 -0.19034,-0.0301 -0.35375,-0.10837 -0.54791,-0.13293 -0.12009,-0.0152 -0.24726,0.006 -0.36778,0 -0.0453,-0.002 -0.0897,-0.0166 -0.1351,-0.0166 -0.14754,0 -0.28913,0.0197 -0.43533,0.0249 -0.26855,0.01 0.0942,-0.008 -0.1989,-0.008 -0.0364,0 -0.0726,0.012 -0.10883,0.008 -0.12885,-0.0131 -0.25401,-0.0528 -0.3828,-0.0665 -0.0771,-0.008 -0.15631,0.009 -0.23267,-0.004 -0.10424,-0.0398 -0.10563,-0.0473 -0.21391,-0.0623 -0.11709,-0.0162 -0.23179,-0.0241 -0.34526,-0.0623 -0.14874,-0.0501 -0.0251,-0.0136 -0.16888,-0.0748 -0.066,-0.0281 -0.0719,-0.0115 -0.1351,-0.0582 -0.16926,-0.12491 -0.30519,-0.53516 -0.36028,-0.73944 -0.0906,-0.3358 -0.14976,-0.76051 0.0263,-1.08009 0.0687,-0.12475 0.20358,-0.19855 0.32649,-0.26171 0.2955,-0.15187 0.61476,-0.23679 0.94947,-0.23679 0.0514,0 0.1025,0.008 0.15387,0.008 0.14307,0 0.29111,-0.0163 0.43157,-0.0415 0.0465,-0.008 0.0919,-0.0237 0.13886,-0.0291 0.33331,-0.0382 0.0505,0.011 0.33025,-0.004 0.17652,-0.01 0.3576,-0.0616 0.52164,-0.12463 0.0564,-0.0217 0.10806,-0.0549 0.16513,-0.0748 0.94275,-0.32799 -0.0359,0.0131 0.55542,-0.13294 0.58723,-0.14501 -0.0283,-0.0661 0.70929,-0.18693 0.23251,-0.0381 0.48517,-0.0417 0.72054,-0.0208 0.0779,0.007 0.15482,0.0221 0.23267,0.0291 0.26118,0.0232 0.1212,-0.0173 0.3903,0.0498 0.6312,0.1576 0.0405,0.009 0.4616,0.1537 0.10914,0.0376 0.22411,0.0561 0.334,0.0914 0.11717,0.0377 0.23221,0.0817 0.34902,0.12047 0.22278,0.074 0.44957,0.1357 0.67551,0.1994 0.0602,0.017 0.13687,0.0284 0.19139,0.054 0.0443,0.0208 0.0812,0.0549 0.12384,0.0789 0.0388,0.0218 0.0812,0.0366 0.1201,0.0582 0.10106,0.0559 0.13957,0.093 0.23267,0.17032 0.0279,0.0231 0.0589,0.0432 0.0826,0.0706 0.14167,0.16466 0.251,0.62641 0.21391,0.83914 -0.0154,0.0886 -0.12797,0.39262 -0.16887,0.45696 -0.0234,0.0369 -0.17413,0.17433 -0.1989,0.1994 -0.0524,0.053 -0.10275,0.10785 -0.15387,0.16202 -0.0351,0.0372 -0.17944,0.19757 -0.22517,0.22432 -0.0441,0.0258 -0.0975,0.0308 -0.14636,0.0457 -0.13754,0.0421 -0.27389,0.0801 -0.41281,0.11632 -0.0819,0.0213 -0.16293,0.046 -0.24394,0.0706 -0.0309,0.009 -0.20363,0.0693 -0.23267,0.0748 -0.0762,0.1634 -0.12054,-0.007 -0.18014,0 -0.0349,0.004 -0.0673,0.0202 -0.10133,0.0291 -0.1045,0.0272 -0.20759,0.0661 -0.31523,0.0748 -0.0961,0.008 -0.19265,-0.008 -0.28897,-0.0125 z"
       id="path8" />
    <path
       style="fill:none;stroke:#000000;stroke-width:0.264583px;stroke-linecap:butt;stroke-linejoin:miter;stroke-opacity:1"
       d="m 92.160911,163.24599 c 0.16137,0.0443 0.31925,0.10421 0.48411,0.13294 0.10725,0.0187 0.21764,0.007 0.3265,0.008 0.10349,0.001 0.6267,8e-4 0.70553,-0.008 0.12699,-0.0146 0.2495,-0.0562 0.37529,-0.0789 0.0807,-0.0146 0.16287,-0.0204 0.24393,-0.0332 0.19034,-0.0301 0.35375,-0.10837 0.54791,-0.13293 0.12009,-0.0152 0.24726,0.006 0.36778,0 0.0453,-0.002 0.0897,-0.0166 0.1351,-0.0166 0.14754,0 0.28913,0.0197 0.43533,0.0249 0.26855,0.01 -0.0942,-0.008 0.1989,-0.008 0.0364,0 0.0726,0.012 0.10883,0.008 0.12885,-0.0131 0.25401,-0.0528 0.3828,-0.0665 0.0771,-0.008 0.15631,0.009 0.23267,-0.004 0.104244,-0.0398 0.105634,-0.0473 0.213914,-0.0623 0.11709,-0.0162 0.23179,-0.0241 0.34526,-0.0623 0.14874,-0.0501 0.0251,-0.0136 0.16888,-0.0748 0.066,-0.0281 0.0719,-0.0115 0.1351,-0.0582 0.16926,-0.12491 0.30519,-0.53516 0.36028,-0.73944 0.0906,-0.3358 0.14976,-0.76051 -0.0263,-1.08009 -0.0687,-0.12475 -0.20358,-0.19855 -0.32649,-0.26171 -0.2955,-0.15187 -0.61476,-0.23679 -0.949474,-0.23679 -0.0514,0 -0.1025,0.008 -0.15387,0.008 -0.14307,0 -0.29111,-0.0163 -0.43157,-0.0415 -0.0465,-0.008 -0.0919,-0.0237 -0.13886,-0.0291 -0.33331,-0.0382 -0.0505,0.011 -0.33025,-0.004 -0.17652,-0.01 -0.3576,-0.0616 -0.52164,-0.12463 -0.0564,-0.0217 -0.10806,-0.0549 -0.16513,-0.0748 -0.94275,-0.32799 0.0359,0.0131 -0.55542,-0.13294 -0.58723,-0.14501 0.0283,-0.0661 -0.70929,-0.18693 -0.23251,-0.0381 -0.48517,-0.0417 -0.72054,-0.0208 -0.0779,0.007 -0.15482,0.0221 -0.23267,0.0291 -0.26118,0.0232 -0.1212,-0.0173 -0.3903,0.0498 -0.6312,0.1576 -0.0405,0.009 -0.4616,0.1537 -0.10914,0.0376 -0.22411,0.0561 -0.334,0.0914 -0.11717,0.0377 -0.23221,0.0817 -0.34902,0.12047 -0.22278,0.074 -0.44957,0.1357 -0.67551,0.1994 -0.0602,0.017 -0.13687,0.0284 -0.19139,0.054 -0.0443,0.0208 -0.0812,0.0549 -0.12384,0.0789 -0.0388,0.0218 -0.0812,0.0366 -0.1201,0.0582 -0.10106,0.0559 -0.13957,0.093 -0.23267,0.17032 -0.0279,0.0231 -0.0589,0.0432 -0.0826,0.0706 -0.14167,0.16466 -0.251,0.62641 -0.21391,0.83914 0.0154,0.0886 0.12797,0.39262 0.16887,0.45696 0.0234,0.0369 0.17413,0.17433 0.1989,0.1994 0.0524,0.053 0.10275,0.10785 0.15387,0.16202 0.0351,0.0372 0.17944,0.19757 0.22517,0.22432 0.0441,0.0258 0.0975,0.0308 0.14636,0.0457 0.13754,0.0421 0.27389,0.0801 0.41281,0.11632 0.0819,0.0213 0.16293,0.046 0.24394,0.0706 0.0309,0.009 0.20363,0.0693 0.23267,0.0748 0.0762,0.1634 0.12054,-0.007 0.18014,0 0.0349,0.004 0.0673,0.0202 0.10133,0.0291 0.1045,0.0272 0.20759,0.0661 0.31523,0.0748 0.0961,0.008 0.19265,-0.008 0.28897,-0.0125 z"
       id="path8-0" />
    <path
       style="fill:none;stroke:#000000;stroke-width:0.264583px;stroke-linecap:butt;stroke-linejoin:miter;stroke-opacity:1"
       d="m 68.248582,155.13565 c -0.16137,0.0443 -0.31925,0.10421 -0.48411,0.13294 -0.10725,0.0187 -0.21764,0.007 -0.3265,0.008 -0.10349,0.001 -0.6267,8e-4 -0.70553,-0.008 -0.12699,-0.0146 -0.2495,-0.0562 -0.37529,-0.0789 -0.0807,-0.0146 -0.16287,-0.0204 -0.24393,-0.0332 -0.19034,-0.0301 -0.35375,-0.10837 -0.54791,-0.13293 -0.12009,-0.0152 -0.24726,0.006 -0.36778,0 -0.0453,-0.002 -0.0897,-0.0166 -0.1351,-0.0166 -0.14754,0 -0.28913,0.0197 -0.43533,0.0249 -0.26855,0.01 0.0942,-0.008 -0.1989,-0.008 -0.0364,0 -0.0726,0.012 -0.10883,0.008 -0.12885,-0.0131 -0.25401,-0.0528 -0.3828,-0.0665 -0.0771,-0.008 -0.15631,0.009 -0.23267,-0.004 -0.104244,-0.0398 -0.105634,-0.0473 -0.213914,-0.0623 -0.11709,-0.0162 -0.23179,-0.0241 -0.34526,-0.0623 -0.14874,-0.0501 -0.0251,-0.0136 -0.16888,-0.0748 -0.066,-0.0281 -0.0719,-0.0115 -0.1351,-0.0582 -0.16926,-0.12491 -0.30519,-0.53516 -0.36028,-0.73944 -0.0906,-0.3358 -0.14976,-0.76051 0.0263,-1.08009 0.0687,-0.12475 0.20358,-0.19855 0.32649,-0.26171 0.2955,-0.15187 0.61476,-0.23679 0.949474,-0.23679 0.0514,0 0.1025,0.008 0.15387,0.008 0.14307,0 0.29111,-0.0163 0.43157,-0.0415 0.0465,-0.008 0.0919,-0.0237 0.13886,-0.0291 0.33331,-0.0382 0.0505,0.011 0.33025,-0.004 0.17652,-0.01 0.3576,-0.0616 0.52164,-0.12463 0.0564,-0.0217 0.10806,-0.0549 0.16513,-0.0748 0.94275,-0.32799 -0.0359,0.0131 0.55542,-0.13294 0.58723,-0.14501 -0.0283,-0.0661 0.70929,-0.18693 0.23251,-0.0381 0.48517,-0.0417 0.72054,-0.0208 0.0779,0.007 0.15482,0.0221 0.23267,0.0291 0.26118,0.0232 0.1212,-0.0173 0.3903,0.0498 0.6312,0.1576 0.0405,0.009 0.4616,0.1537 0.10914,0.0376 0.22411,0.0561 0.334,0.0914 0.11717,0.0377 0.23221,0.0817 0.34902,0.12047 0.22278,0.074 0.44957,0.1357 0.67551,0.1994 0.0602,0.017 0.13687,0.0284 0.19139,0.054 0.0443,0.0208 0.0812,0.0549 0.12384,0.0789 0.0388,0.0218 0.0812,0.0366 0.1201,0.0582 0.10106,0.0559 0.13957,0.093 0.23267,0.17032 0.0279,0.0231 0.0589,0.0432 0.0826,0.0706 0.14167,0.16466 0.251,0.62641 0.21391,0.83914 -0.0154,0.0886 -0.12797,0.39262 -0.16887,0.45696 -0.0234,0.0369 -0.17413,0.17433 -0.1989,0.1994 -0.0524,0.053 -0.10275,0.10785 -0.15387,0.16202 -0.0351,0.0372 -0.17944,0.19757 -0.22517,0.22432 -0.0441,0.0258 -0.0975,0.0308 -0.14636,0.0457 -0.13754,0.0421 -0.27389,0.0801 -0.41281,0.11632 -0.0819,0.0213 -0.16293,0.046 -0.24394,0.0706 -0.0309,0.009 -0.20363,0.0693 -0.23267,0.0748 -0.0762,0.1634 -0.12054,-0.007 -0.18014,0 -0.0349,0.004 -0.0673,0.0202 -0.10133,0.0291 -0.1045,0.0272 -0.20759,0.0661 -0.31523,0.0748 -0.0961,0.008 -0.19265,-0.008 -0.28897,-0.0125 z"
       id="path8-0-2" />
    <path
       style="fill:none;stroke:#000000;stroke-width:0.264583px;stroke-linecap:butt;stroke-linejoin:miter;stroke-opacity:1"
       d="m 133.09344,163.67486 c 0.16137,0.0443 0.31925,0.10421 0.48411,0.13294 0.10725,0.0187 0.21764,0.007 0.3265,0.008 0.10349,0.001 0.6267,8e-4 0.70553,-0.008 0.12699,-0.0146 0.2495,-0.0562 0.37529,-0.0789 0.0807,-0.0146 0.16287,-0.0204 0.24393,-0.0332 0.19034,-0.0301 0.35375,-0.10837 0.54791,-0.13293 0.1201,-0.0152 0.24726,0.006 0.36778,0 0.0453,-0.002 0.0897,-0.0166 0.1351,-0.0166 0.14754,0 0.28913,0.0197 0.43533,0.0249 0.26855,0.01 -0.0942,-0.008 0.1989,-0.008 0.0364,0 0.0726,0.012 0.10883,0.008 0.12885,-0.0131 0.25401,-0.0528 0.3828,-0.0665 0.0771,-0.008 0.15631,0.009 0.23267,-0.004 0.10425,-0.0398 0.10564,-0.0473 0.21392,-0.0623 0.11709,-0.0162 0.23179,-0.0241 0.34526,-0.0623 0.14874,-0.0501 0.0251,-0.0136 0.16888,-0.0748 0.066,-0.0281 0.0719,-0.0115 0.1351,-0.0582 0.16926,-0.12491 0.30519,-0.53516 0.36028,-0.73944 0.0906,-0.3358 0.14976,-0.76051 -0.0263,-1.08009 -0.0687,-0.12475 -0.20358,-0.19855 -0.32649,-0.26171 -0.2955,-0.15187 -0.61476,-0.23679 -0.94948,-0.23679 -0.0514,0 -0.1025,0.008 -0.15387,0.008 -0.14307,0 -0.29111,-0.0163 -0.43157,-0.0415 -0.0465,-0.008 -0.0919,-0.0237 -0.13886,-0.0291 -0.33331,-0.0382 -0.0505,0.011 -0.33025,-0.004 -0.17652,-0.01 -0.3576,-0.0616 -0.52164,-0.12463 -0.0564,-0.0217 -0.10806,-0.0549 -0.16513,-0.0748 -0.94275,-0.32799 0.0359,0.0131 -0.55542,-0.13294 -0.58723,-0.14501 0.0283,-0.0661 -0.70929,-0.18693 -0.23251,-0.0381 -0.48517,-0.0417 -0.72054,-0.0208 -0.0779,0.007 -0.15482,0.0221 -0.23267,0.0291 -0.26118,0.0232 -0.1212,-0.0173 -0.3903,0.0498 -0.6312,0.1576 -0.0405,0.009 -0.4616,0.1537 -0.10914,0.0376 -0.22411,0.0561 -0.334,0.0914 -0.11717,0.0377 -0.23221,0.0817 -0.34902,0.12047 -0.22278,0.074 -0.44957,0.1357 -0.67551,0.1994 -0.0602,0.017 -0.13687,0.0284 -0.19139,0.054 -0.0443,0.0208 -0.0812,0.0549 -0.12384,0.0789 -0.0388,0.0218 -0.0812,0.0366 -0.1201,0.0582 -0.10106,0.0559 -0.13957,0.093 -0.23267,0.17032 -0.0279,0.0231 -0.0589,0.0432 -0.0826,0.0706 -0.14167,0.16466 -0.251,0.62641 -0.21391,0.83914 0.0154,0.0886 0.12797,0.39262 0.16887,0.45696 0.0234,0.0369 0.17413,0.17433 0.1989,0.1994 0.0524,0.053 0.10275,0.10785 0.15387,0.16202 0.0351,0.0372 0.17944,0.19757 0.22517,0.22432 0.0441,0.0258 0.0975,0.0308 0.14636,0.0457 0.13754,0.0421 0.27389,0.0801 0.41281,0.11632 0.0819,0.0213 0.16293,0.046 0.24394,0.0706 0.0309,0.009 0.20363,0.0693 0.23267,0.0748 0.0762,0.1634 0.12054,-0.007 0.18014,0 0.0349,0.004 0.0673,0.0202 0.10133,0.0291 0.1045,0.0272 0.20759,0.0661 0.31523,0.0748 0.0961,0.008 0.19265,-0.008 0.28897,-0.0125 z"
       id="path8-0-9" />
    <path
       style="fill:none;stroke:#000000;stroke-width:0.264583px;stroke-linecap:butt;stroke-linejoin:miter;stroke-opacity:1"
       d="m 98.222837,155.45052 c 0.16137,-0.0443 0.31925,-0.10421 0.48411,-0.13294 0.10725,-0.0187 0.21764,-0.007 0.3265,-0.008 0.10349,-0.001 0.6267,-8e-4 0.70553,0.008 0.12699,0.0146 0.2495,0.0562 0.375293,0.0789 0.0807,0.0146 0.16287,0.0204 0.24393,0.0332 0.19034,0.0301 0.35375,0.10837 0.54791,0.13293 0.12009,0.0152 0.24726,-0.006 0.36778,0 0.0453,0.002 0.0897,0.0166 0.1351,0.0166 0.14754,0 0.28913,-0.0197 0.43533,-0.0249 0.26855,-0.01 -0.0942,0.008 0.1989,0.008 0.0364,0 0.0726,-0.012 0.10883,-0.008 0.12885,0.0131 0.25401,0.0528 0.3828,0.0665 0.0771,0.008 0.15631,-0.009 0.23267,0.004 0.10424,0.0398 0.10563,0.0473 0.21391,0.0623 0.11709,0.0162 0.23179,0.0241 0.34526,0.0623 0.14874,0.0501 0.0251,0.0136 0.16888,0.0748 0.066,0.0281 0.0719,0.0115 0.1351,0.0582 0.16926,0.12491 0.30519,0.53516 0.36028,0.73944 0.0906,0.3358 0.14976,0.76051 -0.0263,1.08009 -0.0687,0.12475 -0.20358,0.19855 -0.32649,0.26171 -0.2955,0.15187 -0.61476,0.23679 -0.94947,0.23679 -0.0514,0 -0.1025,-0.008 -0.15387,-0.008 -0.14307,0 -0.29111,0.0163 -0.43157,0.0415 -0.0465,0.008 -0.0919,0.0237 -0.13886,0.0291 -0.33331,0.0382 -0.0505,-0.011 -0.33025,0.004 -0.17652,0.01 -0.3576,0.0616 -0.52164,0.12463 -0.0564,0.0217 -0.10806,0.0549 -0.16513,0.0748 -0.94275,0.32799 0.0359,-0.0131 -0.55542,0.13294 -0.587233,0.14501 0.0283,0.0661 -0.709293,0.18693 -0.23251,0.0381 -0.48517,0.0417 -0.72054,0.0208 -0.0779,-0.007 -0.15482,-0.0221 -0.23267,-0.0291 -0.26118,-0.0232 -0.1212,0.0173 -0.3903,-0.0498 -0.6312,-0.1576 -0.0405,-0.009 -0.4616,-0.1537 -0.10914,-0.0376 -0.22411,-0.0561 -0.334,-0.0914 -0.11717,-0.0377 -0.23221,-0.0817 -0.34902,-0.12047 -0.22278,-0.074 -0.44957,-0.1357 -0.67551,-0.1994 -0.0602,-0.017 -0.13687,-0.0284 -0.19139,-0.054 -0.0443,-0.0208 -0.0812,-0.0549 -0.12384,-0.0789 -0.0388,-0.0218 -0.0812,-0.0366 -0.1201,-0.0582 -0.10106,-0.0559 -0.13957,-0.093 -0.23267,-0.17032 -0.0279,-0.0231 -0.0589,-0.0432 -0.0826,-0.0706 -0.14167,-0.16466 -0.251,-0.62641 -0.21391,-0.83914 0.0154,-0.0886 0.12797,-0.39262 0.16887,-0.45696 0.0234,-0.0369 0.17413,-0.17433 0.1989,-0.1994 0.0524,-0.053 0.10275,-0.10785 0.15387,-0.16202 0.0351,-0.0372 0.17944,-0.19757 0.22517,-0.22432 0.0441,-0.0258 0.0975,-0.0308 0.14636,-0.0457 0.13754,-0.0421 0.27389,-0.0801 0.41281,-0.11632 0.0819,-0.0213 0.16293,-0.046 0.24394,-0.0706 0.0309,-0.009 0.20363,-0.0693 0.23267,-0.0748 0.0762,-0.1634 0.12054,0.007 0.18014,0 0.0349,-0.004 0.0673,-0.0202 0.10133,-0.0291 0.1045,-0.0272 0.20759,-0.0661 0.31523,-0.0748 0.0961,-0.008 0.19265,0.008 0.28897,0.0125 z"
       id="path8-2" />
    <rect
       style="fill:#000000;fill-opacity:1;stroke:#010100;stroke-width:0.234;stroke-linecap:round;stroke-linejoin:round;stroke-dasharray:none;stroke-opacity:0.989542"
       id="rect8-2-5"
       width="0.69412965"
       height="8.4123163"
       x="114.15488"
       y="152.06079" />
    <rect
       style="fill:#000000;fill-opacity:1;stroke:#010100;stroke-width:0.234;stroke-linecap:round;stroke-linejoin:round;stroke-dasharray:none;stroke-opacity:0.989542"
       id="rect8-4-1-6"
       width="0.69412965"
       height="8.4123163"
       x="116.96412"
       y="152.06079" />
    <rect
       style="fill:#000000;fill-opacity:1;stroke:#010100;stroke-width:0.234;stroke-linecap:round;stroke-linejoin:round;stroke-dasharray:none;stroke-opacity:0.989542"
       id="rect8-4-9-8-1"
       width="0.69412965"
       height="8.4123163"
       x="119.77337"
       y="152.06079" />
    <rect
       style="fill:#000000;fill-opacity:1;stroke:#010100;stroke-width:0.234;stroke-linecap:round;stroke-linejoin:round;stroke-dasharray:none;stroke-opacity:0.989542"
       id="rect8-4-6-5-2"
       width="0.69412965"
       height="8.4123163"
       x="122.58257"
       y="152.06079" />
    <rect
       style="fill:#000000;fill-opacity:1;stroke:#010100;stroke-width:0.234;stroke-linecap:round;stroke-linejoin:round;stroke-dasharray:none;stroke-opacity:0.989542"
       id="rect8-4-7-5-7"
       width="0.69412965"
       height="8.4123163"
       x="125.39182"
       y="152.06079" />
    <rect
       style="fill:#000000;fill-opacity:1;stroke:#010100;stroke-width:0.234;stroke-linecap:round;stroke-linejoin:round;stroke-dasharray:none;stroke-opacity:0.989542"
       id="rect8-4-61-1-8"
       width="0.69412965"
       height="8.4123163"
       x="128.20103"
       y="152.06079" />
    <rect
       style="fill:#000000;fill-opacity:1;stroke:#010100;stroke-width:0.234;stroke-linecap:round;stroke-linejoin:round;stroke-dasharray:none;stroke-opacity:0.989542"
       id="rect8-2-0"
       width="0.69412965"
       height="8.4123163"
       x="72.511429"
       y="152.06079" />
    <rect
       style="fill:#000000;fill-opacity:1;stroke:#010100;stroke-width:0.234;stroke-linecap:round;stroke-linejoin:round;stroke-dasharray:none;stroke-opacity:0.989542"
       id="rect8-4-1-7"
       width="0.69412965"
       height="8.4123163"
       x="75.320663"
       y="152.06079" />
    <rect
       style="fill:#000000;fill-opacity:1;stroke:#010100;stroke-width:0.234;stroke-linecap:round;stroke-linejoin:round;stroke-dasharray:none;stroke-opacity:0.989542"
       id="rect8-4-9-8-0"
       width="0.69412965"
       height="8.4123163"
       x="78.129913"
       y="152.06079" />
    <rect
       style="fill:#000000;fill-opacity:1;stroke:#010100;stroke-width:0.234;stroke-linecap:round;stroke-linejoin:round;stroke-dasharray:none;stroke-opacity:0.989542"
       id="rect8-4-6-5-9"
       width="0.69412965"
       height="8.4123163"
       x="80.939133"
       y="152.06079" />
    <rect
       style="fill:#000000;fill-opacity:1;stroke:#010100;stroke-width:0.234;stroke-linecap:round;stroke-linejoin:round;stroke-dasharray:none;stroke-opacity:0.989542"
       id="rect8-4-7-5-70"
       width="0.69412965"
       height="8.4123163"
       x="83.748367"
       y="152.06079" />
    <rect
       style="fill:#000000;fill-opacity:1;stroke:#010100;stroke-width:0.234;stroke-linecap:round;stroke-linejoin:round;stroke-dasharray:none;stroke-opacity:0.989542"
       id="rect8-4-61-1-4"
       width="0.69412965"
       height="8.4123163"
       x="86.557602"
       y="152.06079" />
    <path
       style="fill:#6f6f6f;fill-opacity:1;stroke:#000000;stroke-width:0.125721px;stroke-linecap:butt;stroke-linejoin:miter;stroke-opacity:1"
       d="m 130.77081,138.32089 v -3.39469 h -16.99385 v 3.52874 z"
       id="path2-3-4-9-5"
       inkscape:export-filename="jail-back.png"
       inkscape:export-xdpi="300"
       inkscape:export-ydpi="300" />
    <path
       style="fill:#6f6f6f;fill-opacity:1;stroke:#000000;stroke-width:0.125721px;stroke-linecap:butt;stroke-linejoin:miter;stroke-opacity:1"
       d="m 89.095314,138.2912 v -3.39469 h -16.99385 v 3.52874 z"
       id="path2-3-4-9-7-4" />
    <path
       id="path1-1-9-4"
       style="fill:#858585;fill-opacity:1;stroke:#000000;stroke-width:0.190846px;stroke-linecap:butt;stroke-linejoin:miter;stroke-opacity:1"
       d="m 140.23461,126.09959 -77.969416,0.0817 0.152575,14.89126 77.971971,-0.0816 z m -67.964712,1.74049 H 88.93653 v 10.53385 H 72.269898 Z m 41.448512,0 h 16.66612 v 10.53385 h -16.66612 z" />
    <rect
       style="fill:#000000;fill-opacity:1;stroke:#010100;stroke-width:0.234;stroke-linecap:round;stroke-linejoin:round;stroke-dasharray:none;stroke-opacity:0.989542"
       id="rect8-2-5-67"
       width="0.69412965"
       height="8.4123163"
       x="114.95125"
       y="127.87739" />
    <rect
       style="fill:#000000;fill-opacity:1;stroke:#010100;stroke-width:0.234;stroke-linecap:round;stroke-linejoin:round;stroke-dasharray:none;stroke-opacity:0.989542"
       id="rect8-4-1-6-2"
       width="0.69412965"
       height="8.4123163"
       x="117.76049"
       y="127.87739" />
    <rect
       style="fill:#000000;fill-opacity:1;stroke:#010100;stroke-width:0.234;stroke-linecap:round;stroke-linejoin:round;stroke-dasharray:none;stroke-opacity:0.989542"
       id="rect8-4-9-8-1-6"
       width="0.69412965"
       height="8.4123163"
       x="120.56974"
       y="127.87739" />
    <rect
       style="fill:#000000;fill-opacity:1;stroke:#010100;stroke-width:0.234;stroke-linecap:round;stroke-linejoin:round;stroke-dasharray:none;stroke-opacity:0.989542"
       id="rect8-4-6-5-2-8"
       width="0.69412965"
       height="8.4123163"
       x="123.37895"
       y="127.87739" />
    <rect
       style="fill:#000000;fill-opacity:1;stroke:#010100;stroke-width:0.234;stroke-linecap:round;stroke-linejoin:round;stroke-dasharray:none;stroke-opacity:0.989542"
       id="rect8-4-7-5-7-6"
       width="0.69412965"
       height="8.4123163"
       x="126.1882"
       y="127.87739" />
    <rect
       style="fill:#000000;fill-opacity:1;stroke:#010100;stroke-width:0.234;stroke-linecap:round;stroke-linejoin:round;stroke-dasharray:none;stroke-opacity:0.989542"
       id="rect8-4-61-1-8-2"
       width="0.69412965"
       height="8.4123163"
       x="128.99741"
       y="127.87739" />
    <rect
       style="fill:#000000;fill-opacity:1;stroke:#010100;stroke-width:0.234;stroke-linecap:round;stroke-linejoin:round;stroke-dasharray:none;stroke-opacity:0.989542"
       id="rect8-2-0-6"
       width="0.69412965"
       height="8.4123163"
       x="73.307808"
       y="127.87739" />
    <rect
       style="fill:#000000;fill-opacity:1;stroke:#010100;stroke-width:0.234;stroke-linecap:round;stroke-linejoin:round;stroke-dasharray:none;stroke-opacity:0.989542"
       id="rect8-4-1-7-0"
       width="0.69412965"
       height="8.4123163"
       x="76.117043"
       y="127.87739" />
    <rect
       style="fill:#000000;fill-opacity:1;stroke:#010100;stroke-width:0.234;stroke-linecap:round;stroke-linejoin:round;stroke-dasharray:none;stroke-opacity:0.989542"
       id="rect8-4-9-8-0-3"
       width="0.69412965"
       height="8.4123163"
       x="78.926292"
       y="127.87739" />
    <rect
       style="fill:#000000;fill-opacity:1;stroke:#010100;stroke-width:0.234;stroke-linecap:round;stroke-linejoin:round;stroke-dasharray:none;stroke-opacity:0.989542"
       id="rect8-4-6-5-9-8"
       width="0.69412965"
       height="8.4123163"
       x="81.735512"
       y="127.87739" />
    <rect
       style="fill:#000000;fill-opacity:1;stroke:#010100;stroke-width:0.234;stroke-linecap:round;stroke-linejoin:round;stroke-dasharray:none;stroke-opacity:0.989542"
       id="rect8-4-7-5-70-9"
       width="0.69412965"
       height="8.4123163"
       x="84.544746"
       y="127.87739" />
    <rect
       style="fill:#000000;fill-opacity:1;stroke:#010100;stroke-width:0.234;stroke-linecap:round;stroke-linejoin:round;stroke-dasharray:none;stroke-opacity:0.989542"
       id="rect8-4-61-1-4-9"
       width="0.69412965"
       height="8.4123163"
       x="87.353981"
       y="127.87739" />
    <path
       style="fill:none;stroke:#000000;stroke-width:0.232487px;stroke-linecap:butt;stroke-linejoin:miter;stroke-opacity:1"
       d="m 131.78583,132.42193 c 0.011,-0.12797 0.004,-0.25878 0.0329,-0.38392 0.0301,-0.13044 0.18284,-0.33809 0.27323,-0.42415 0.0671,-0.0639 0.14722,-0.11257 0.22386,-0.16454 0.13088,-0.0888 0.26088,-0.14618 0.41479,-0.19379 0.0826,-0.0255 0.16991,-0.0327 0.25348,-0.0548 0.0593,-0.0157 0.11477,-0.0445 0.17448,-0.0585 0.1807,-0.0423 0.17577,-0.0147 0.35224,-0.0329 0.051,-0.005 0.10061,-0.0195 0.15143,-0.0256 0.17573,-0.0212 0.35675,-0.0345 0.5333,-0.0475 0.0581,-0.004 0.11632,-0.005 0.17447,-0.007 0.0593,-0.007 0.11827,-0.0171 0.17778,-0.0219 0.0602,-0.005 0.12106,-2.4e-4 0.18105,-0.007 0.11803,-0.0137 0.23483,-0.0366 0.35225,-0.0548 0.0548,-0.009 0.11062,-0.0125 0.1646,-0.0256 0.0572,-0.0138 0.11099,-0.0398 0.16788,-0.0548 0.11212,-0.0298 0.22811,-0.0422 0.34238,-0.0621 0.046,-0.008 0.24873,-0.0445 0.31602,-0.0512 0.0438,-0.004 0.0879,-0.004 0.13168,-0.007 0.19253,-0.0184 0.23741,-0.0383 0.4115,-0.0329 0.17776,0.005 0.349,0.0492 0.52672,0.0512 0.13738,-0.006 0.17188,-0.0106 0.30945,-0.007 0.11088,0.003 0.17512,0.01 0.2831,0.0146 0.0692,0.003 0.16406,8.8e-4 0.23374,0.0146 0.0392,0.008 0.0757,0.0275 0.11521,0.0329 0.0275,0.004 0.23419,0.0102 0.27653,0.011 0.0417,7e-4 0.084,-0.007 0.1251,0 0.0316,0.005 0.0585,0.0263 0.0889,0.0365 0.0396,0.0134 0.1718,0.044 0.22056,0.0731 0.0653,0.0391 0.11788,0.0966 0.18105,0.13894 0.0318,0.0213 0.0659,0.039 0.0988,0.0585 0.0329,0.0281 0.0641,0.0583 0.0987,0.0842 0.0325,0.0242 0.0704,0.0406 0.10206,0.0658 0.0568,0.0454 0.20801,0.18877 0.2469,0.24863 0.0288,0.0443 0.0439,0.0962 0.0691,0.14261 0.01,0.0184 0.0266,0.0326 0.0362,0.0512 0.1676,0.32406 0.21598,0.76191 0.12509,1.11521 -0.0337,0.1311 -0.10824,0.23468 -0.17776,0.34737 -0.0166,0.0268 -0.10238,0.1897 -0.12839,0.22304 -0.0196,0.0251 -0.0489,0.0412 -0.0691,0.0658 -0.0807,0.0986 -0.10529,0.16998 -0.20411,0.26327 -0.0867,0.0819 -0.078,0.0463 -0.17447,0.10603 -0.10084,0.0625 -0.0547,0.0667 -0.16789,0.0914 -0.0594,0.0129 -0.12042,0.0176 -0.18106,0.0219 -0.035,0.003 -0.0705,-0.004 -0.10535,0 -0.0902,0.0116 -0.17722,0.0417 -0.26665,0.0585 -0.11994,0.0225 -0.24302,0.0364 -0.36212,0.0621 -0.039,0.009 -0.0761,0.0249 -0.11522,0.0329 -0.14229,0.0291 -0.28537,0.0373 -0.42795,0.0694 -0.0739,0.0166 -0.14585,0.0424 -0.22057,0.0548 -0.0574,0.01 -0.11686,0.002 -0.17447,0.011 -0.0547,0.009 -0.10729,0.0278 -0.16131,0.0402 -0.0514,0.0118 -0.15661,0.0151 -0.18764,0.0183 -0.0473,0.005 -0.094,0.019 -0.14156,0.0183 -0.0284,-4.6e-4 -0.0542,-0.0179 -0.0823,-0.0219 -0.0632,-0.009 -0.12768,-0.006 -0.19094,-0.0146 -0.0406,-0.005 -0.1469,-0.0256 -0.18764,-0.0256 -0.0439,0.004 -0.0878,0.007 -0.13168,0.011 -0.0253,0.01 -0.0489,0.0265 -0.0757,0.0292 -0.0421,0.004 -0.0828,-0.0219 -0.12509,-0.0219 -0.0569,0 -0.14134,0.0245 -0.19752,0.007 -0.0237,-0.007 -0.0403,-0.0292 -0.0625,-0.0402 -0.0501,-0.0249 -0.12021,-0.006 -0.17447,-0.0219 -0.0251,-0.007 -0.0472,-0.023 -0.0725,-0.0292 -0.029,-0.007 -0.0603,-0.003 -0.0889,-0.011 -0.0368,-0.0111 -0.0685,-0.0362 -0.10534,-0.0475 -0.0232,-0.007 -0.0498,0.002 -0.0725,-0.007 -0.0315,-0.0124 -0.0532,-0.0447 -0.0856,-0.0548 -0.0282,-0.009 -0.0595,0.004 -0.0889,0 -0.0271,-0.004 -0.0523,-0.0163 -0.079,-0.0219 -0.0631,-0.0132 -0.12818,-0.0149 -0.19093,-0.0292 -0.24678,-0.0567 0.048,-0.007 -0.18436,-0.0438 -0.12811,-0.0203 -0.2594,-0.0106 -0.38845,-0.0146 -0.1185,-0.004 -0.23699,-0.0174 -0.35553,-0.0219 -0.20909,-0.008 0.0118,-0.002 -0.19752,-0.0292 -0.0326,-0.004 -0.0664,0.003 -0.0988,-0.004 -0.0331,-0.006 -0.0629,-0.0243 -0.0955,-0.0329 -0.0738,-0.0195 -0.16406,-0.0319 -0.24032,-0.0402 -0.0218,-0.003 -0.0441,0.004 -0.0659,0 -0.0298,-0.004 -0.0948,-0.0716 -0.0987,-0.0731 -0.0358,-0.0136 -0.11632,0.003 -0.15802,-0.004 -0.0225,-0.004 -0.0436,-0.0135 -0.0659,-0.0183 -0.0228,-0.005 -0.0468,-0.004 -0.0691,-0.011 -0.043,-0.0135 -0.0796,-0.0429 -0.1218,-0.0585 -0.0181,-0.007 -0.0391,-0.005 -0.056,-0.0146 -0.0514,-0.0286 -0.0727,-0.10226 -0.11193,-0.1426 -0.0214,-0.022 -0.0669,-0.0421 -0.0856,-0.0695 -0.0186,-0.0273 -0.0271,-0.0607 -0.0461,-0.0878 -0.009,-0.0128 -0.0266,-0.0171 -0.0362,-0.0292 -0.0795,-0.10029 -0.15567,-0.26852 -0.17447,-0.39123 -0.0132,-0.0857 0.0343,-0.2138 0.0231,-0.27424 -0.0154,-0.0828 -0.0417,-0.16332 -0.0625,-0.24498 z"
       id="path5-7" />
    <rect
       style="fill:#6f6f6f;fill-opacity:1;stroke:#010100;stroke-width:0.218117;stroke-linecap:round;stroke-linejoin:round;stroke-dasharray:none;stroke-opacity:0.989542"
       id="rect11-2-1-57"
       width="4.0964036"
       height="21.39411"
       x="-140.5282"
       y="-143.65588"
       transform="scale(-1)" />
    <path
       style="fill:none;stroke:#000000;stroke-width:0.264583px;stroke-linecap:butt;stroke-linejoin:miter;stroke-opacity:1"
       d="m 65.74856,131.8932 c 0.16137,0.0443 0.31925,0.10421 0.48411,0.13294 0.10725,0.0187 0.21764,0.007 0.3265,0.008 0.10349,0.001 0.6267,8e-4 0.70553,-0.008 0.12699,-0.0146 0.2495,-0.0562 0.37529,-0.0789 0.0807,-0.0146 0.16287,-0.0204 0.24393,-0.0332 0.19034,-0.0301 0.35375,-0.10837 0.54791,-0.13293 0.12009,-0.0152 0.24726,0.006 0.36778,0 0.0453,-0.002 0.0897,-0.0166 0.1351,-0.0166 0.14754,0 0.28913,0.0197 0.43533,0.0249 0.26855,0.01 -0.0942,-0.008 0.1989,-0.008 0.0364,0 0.0726,0.012 0.10883,0.008 0.12885,-0.0131 0.25401,-0.0528 0.3828,-0.0665 0.0771,-0.008 0.15631,0.009 0.23267,-0.004 0.10424,-0.0398 0.10563,-0.0473 0.21391,-0.0623 0.11709,-0.0162 0.23179,-0.0241 0.34526,-0.0623 0.14874,-0.0501 0.0251,-0.0136 0.16888,-0.0748 0.066,-0.0281 0.0719,-0.0115 0.1351,-0.0582 0.16926,-0.12491 0.30519,-0.53516 0.36028,-0.73944 0.0906,-0.3358 0.14976,-0.76051 -0.0263,-1.08009 -0.0687,-0.12475 -0.20358,-0.19855 -0.32649,-0.26171 -0.2955,-0.15187 -0.61476,-0.23679 -0.94947,-0.23679 -0.0514,0 -0.1025,0.008 -0.15387,0.008 -0.14307,0 -0.29111,-0.0163 -0.43157,-0.0415 -0.0465,-0.008 -0.0919,-0.0237 -0.13886,-0.0291 -0.33331,-0.0382 -0.0505,0.011 -0.33025,-0.004 -0.17652,-0.01 -0.3576,-0.0616 -0.52164,-0.12463 -0.0564,-0.0217 -0.10806,-0.0549 -0.16513,-0.0748 -0.94275,-0.32799 0.0359,0.0131 -0.55542,-0.13294 -0.58723,-0.14501 0.0283,-0.0661 -0.70929,-0.18693 -0.23251,-0.0381 -0.48517,-0.0417 -0.72054,-0.0208 -0.0779,0.007 -0.15482,0.0221 -0.23267,0.0291 -0.26118,0.0232 -0.1212,-0.0173 -0.3903,0.0498 -0.6312,0.1576 -0.0405,0.009 -0.4616,0.1537 -0.10914,0.0376 -0.22411,0.0561 -0.334,0.0914 -0.11717,0.0377 -0.23221,0.0817 -0.34902,0.12047 -0.22278,0.074 -0.44957,0.1357 -0.67551,0.1994 -0.0602,0.017 -0.13687,0.0284 -0.19139,0.054 -0.0443,0.0208 -0.0812,0.0549 -0.12384,0.0789 -0.0388,0.0218 -0.0812,0.0366 -0.1201,0.0582 -0.10106,0.0559 -0.13957,0.093 -0.23267,0.17032 -0.0279,0.0231 -0.0589,0.0432 -0.0826,0.0706 -0.14167,0.16466 -0.251,0.62641 -0.21391,0.83914 0.0154,0.0886 0.12797,0.39262 0.16887,0.45696 0.0234,0.0369 0.17413,0.17433 0.1989,0.1994 0.0524,0.053 0.10275,0.10785 0.15387,0.16202 0.0351,0.0372 0.17944,0.19757 0.22517,0.22432 0.0441,0.0258 0.0975,0.0308 0.14636,0.0457 0.13754,0.0421 0.27389,0.0801 0.41281,0.11632 0.0819,0.0213 0.16293,0.046 0.24394,0.0706 0.0309,0.009 0.20363,0.0693 0.23267,0.0748 0.0762,0.1634 0.12054,-0.007 0.18014,0 0.0349,0.004 0.0673,0.0202 0.10133,0.0291 0.1045,0.0272 0.20759,0.0661 0.31523,0.0748 0.0961,0.008 0.19265,-0.008 0.28897,-0.0125 z"
       id="path8-8" />
    <path
       style="fill:none;stroke:#000000;stroke-width:0.256099px;stroke-linecap:butt;stroke-linejoin:miter;stroke-opacity:1"
       d="m 65.138241,137.97676 c 0.113414,0.0389 0.224426,0.087 0.340252,0.1166 0.08608,0.022 0.175524,0.024 0.263075,0.0375 0.311735,0.0482 0.624825,0.0815 0.93656,0.12908 0.659521,0.10072 0.0572,0.0353 0.620862,0.0625 0.177702,0.009 0.358535,0.0415 0.536685,0.0375 0.06692,-0.002 0.133435,-0.0124 0.199938,-0.0208 0.296799,-0.0374 0.591391,-0.0711 0.887442,-0.12076 0.338019,-0.0567 0.111751,-0.0444 0.463023,-0.0667 0.169972,-0.0107 0.346094,-0.0174 0.515626,-0.0208 0.08898,-0.002 0.177879,0.0194 0.26659,0.0125 0.04748,-0.004 0.09371,-0.0186 0.140305,-0.0292 0.27847,-0.0636 -0.0084,-0.003 0.25958,-0.0667 0.05711,-0.0135 0.11648,-0.0174 0.171869,-0.0375 0.0415,-0.015 0.07786,-0.043 0.11576,-0.0667 0.177201,-0.11044 0.387654,-0.22283 0.529669,-0.39141 0.03608,-0.0428 0.06216,-0.0946 0.09822,-0.13742 0.02851,-0.0338 0.06318,-0.061 0.0947,-0.0916 0.02337,-0.0416 0.04262,-0.0863 0.07019,-0.12492 0.01739,-0.0244 0.05001,-0.0352 0.06319,-0.0624 0.02094,-0.0434 0.02038,-0.0953 0.03505,-0.14157 0.01224,-0.0387 0.03692,-0.0727 0.04561,-0.11244 0.0093,-0.042 0.0028,-0.0862 0.0075,-0.12908 0.0272,-0.2644 0.0056,-0.53074 -0.06664,-0.78701 -0.02131,-0.0757 -0.06085,-0.22163 -0.09471,-0.29564 -0.08104,-0.17683 -0.02468,-0.0376 -0.14382,-0.15407 -0.368152,-0.35991 0.194554,0.12596 -0.203442,-0.24151 -0.02795,-0.0258 -0.225511,-0.16412 -0.249046,-0.1749 -0.17041,-0.078 -0.104021,-0.0221 -0.220986,-0.0499 -0.142034,-0.0337 -0.242587,-0.0743 -0.385846,-0.0999 -0.329269,-0.059 -0.653445,-0.10434 -0.985668,-0.12492 -0.558117,-0.0346 0.15812,0.0151 -0.399885,-0.008 -0.191815,-0.008 -0.390042,-0.0616 -0.582278,-0.0458 -0.378612,0.0312 0.06393,0.0562 -0.319194,0.0375 -0.279386,-0.0136 -0.07898,-0.0244 -0.364806,-0.0208 -0.221389,0.003 -0.24198,0.0351 -0.529665,0.0458 -0.125276,0.005 -0.249971,-0.025 -0.375322,-0.025 -0.114648,0 -0.229324,0.005 -0.343757,0.0125 -0.06571,0.004 -0.130668,0.0187 -0.196432,0.0209 -0.05963,0.002 -0.119256,-0.0111 -0.178889,-0.008 -0.175075,0.008 -0.199078,0.0366 -0.371816,0.075 -0.984668,0.21865 0.128257,-0.0324 -0.452498,0.0791 -0.108077,0.0207 -0.213883,0.0552 -0.322708,0.0708 -0.23296,0.0334 -0.116228,-0.0426 -0.357787,0.0208 -0.08309,0.0219 -0.158905,0.0699 -0.242036,0.0916 -0.03524,0.009 -0.07347,-0.009 -0.108731,0 -0.03786,0.01 -0.0687,0.0397 -0.105236,0.0541 -0.0201,0.008 -0.04487,5.3e-4 -0.06309,0.0125 -0.07795,0.0514 -0.143146,0.12322 -0.220987,0.17488 -0.03178,0.0212 -0.07403,0.0195 -0.105226,0.0417 -0.137426,0.0973 -0.27446,0.34813 -0.319203,0.51634 -0.03786,0.1424 -0.02869,0.18491 -0.0386,0.34145 -0.0096,0.15194 -0.02542,0.30987 0.02103,0.45805 0.04561,0.14546 0.174617,0.20476 0.25957,0.33312 0.07599,0.11485 -0.01813,0.0573 0.122771,0.17905 0.0958,0.0827 0.11519,0.0537 0.228006,0.0958 0.138828,0.0518 0.151306,0.0897 0.301659,0.15823 0.03916,0.0178 0.083,0.0213 0.12277,0.0375 0.07272,0.0297 0.142436,0.0672 0.213967,0.0999 0.355852,0.16303 -0.435206,-0.16397 0.41742,0.30397 0.117947,0.0648 0.253859,0.0819 0.378836,0.12908 0.0037,0.002 0.02299,0.0421 0.02458,0.0375 0.02281,-0.0677 -0.0047,-0.0118 -0.0075,-0.008"
       id="path7-5-3" />
    <rect
       style="fill:#6f6f6f;fill-opacity:1;stroke:#010100;stroke-width:0.218117;stroke-linecap:round;stroke-linejoin:round;stroke-dasharray:none;stroke-opacity:0.989542"
       id="rect11-2-1-57-6"
       width="3.8341315"
       height="21.813745"
       x="-66.161179"
       y="-143.83403"
       transform="scale(-1)" />
    <rect
       style="fill:#6f6f6f;fill-opacity:1;stroke:#010100;stroke-width:0.218117;stroke-linecap:round;stroke-linejoin:round;stroke-dasharray:none;stroke-opacity:0.989542"
       id="rect11-2-1"
       width="4.0964036"
       height="78.214531"
       x="122.00656"
       y="-140.53323"
       transform="rotate(90)" />
    <rect
       style="fill:#6f6f6f;fill-opacity:1;stroke:#010100;stroke-width:0.218117;stroke-linecap:round;stroke-linejoin:round;stroke-dasharray:none;stroke-opacity:0.989542"
       id="rect11-2-1-5"
       width="4.0964036"
       height="78.266983"
       x="146.13185"
       y="-139.74953"
       transform="rotate(90)" />
    <path
       style="fill:none;stroke:#000000;stroke-width:0.264583px;stroke-linecap:butt;stroke-linejoin:miter;stroke-opacity:1"
       d="m 104.79753,128.08832 c -0.12384,0.0235 -0.2689,-0.0692 -0.40155,-0.0457 -0.0725,0.0129 -0.12865,0.0605 -0.19515,0.0872 -0.0827,0.0333 -0.16726,0.062 -0.25144,0.0914 -0.15741,0.055 -0.31931,0.0295 -0.45034,0.14955 -0.15987,0.14646 -0.19501,0.39265 -0.22142,0.59404 -0.0301,0.22958 -0.045,0.43256 -0.045,0.66052 0,0.12185 0,0.24371 0,0.36556 0,0.0402 0,0.0803 0,0.12047 0,0.0388 -0.01,0.0788 0,0.11632 0.0212,0.0821 0.10563,0.14984 0.14636,0.22017 0.0454,0.0785 0.0347,0.14265 0.11634,0.20356 0.0269,0.0201 0.0668,0.0114 0.0976,0.0249 0.0425,0.0187 0.078,0.051 0.12009,0.0706 0.14083,0.0658 0.30152,0.0785 0.45034,0.11632 0.19715,0.0501 0.39777,0.0975 0.60045,0.12463 0.24339,0.0326 0.15607,-0.006 0.4541,0.0706 0.55419,0.14157 -0.12417,-0.0106 0.38654,0.17032 0.0622,0.022 0.13043,0.0203 0.19515,0.0332 0.10623,0.0212 0.20802,0.0635 0.31523,0.0789 0.13096,0.0188 0.28142,0.005 0.41282,-0.008 0.0452,-0.004 0.0897,-0.0166 0.1351,-0.0166 0.0274,0 0.18738,0.0494 0.19139,0.0498 0.0935,0.009 0.18764,-0.0111 0.28147,-0.0166 0.1628,-0.009 0.33601,-0.0125 0.49912,-0.0125 0.0368,0 0.26708,0.0162 0.30023,0.0208 0.21314,0.0295 0.0861,0.0387 0.32275,0.0415 0.19212,0.002 0.35923,-0.0262 0.55541,-0.008 0.1841,0.0168 0.3622,0.0463 0.54792,0.0249 0.0594,-0.007 0.11963,-0.0143 0.17638,-0.0332 0.0359,-0.012 0.0633,-0.0421 0.0976,-0.0582 0.0486,-0.0228 0.10074,-0.0371 0.15012,-0.0582 0.0482,-0.0205 0.093,-0.0494 0.14261,-0.0665 0.0635,-0.0219 0.13189,-0.0273 0.19514,-0.0499 0.0425,-0.0151 0.079,-0.0437 0.12009,-0.0623 0.0354,-0.016 0.0741,-0.0241 0.10883,-0.0415 0.038,-0.0191 0.14589,-0.10966 0.1839,-0.12878 0.024,-0.0121 0.053,-0.009 0.0788,-0.0166 0.0456,-0.0133 0.0918,-0.0261 0.1351,-0.0457 0.12408,-0.056 0.0119,-0.0357 0.12759,-0.0748 0.0881,-0.0298 0.0592,-0.006 0.14636,-0.0249 0.0219,-0.005 0.0417,-0.0173 0.0638,-0.0208 0.0222,-0.004 0.0469,0.009 0.0676,0 0.0385,-0.0168 0.15716,-0.14619 0.16888,-0.16617 0.0906,-0.15452 0.0851,-0.55152 0.0338,-0.70621 -0.0346,-0.1042 -0.09,-0.18898 -0.1351,-0.28664 -0.0466,-0.10086 -0.0812,-0.24765 -0.17638,-0.31987 -0.0214,-0.0162 -0.0516,-0.0161 -0.0751,-0.0291 -0.0491,-0.0272 -0.14091,-0.0903 -0.18389,-0.12463 -0.0298,-0.0238 -0.0528,-0.0553 -0.0826,-0.0789 -0.0956,-0.0759 -0.11466,-0.0625 -0.24018,-0.11216 -0.0816,-0.0323 -0.15808,-0.077 -0.24018,-0.10801 -0.11318,-0.0428 -0.22918,-0.078 -0.34526,-0.11215 -0.0555,-0.0163 -0.28021,-0.0727 -0.34151,-0.0831 -0.0509,-0.009 -0.10334,-0.006 -0.15387,-0.0166 -0.0575,-0.0118 -0.11254,-0.0334 -0.16888,-0.0498 -0.1572,-0.0459 -0.31655,-0.0899 -0.47661,-0.12462 -0.1576,-0.0342 -0.31903,-0.0488 -0.47661,-0.0831 -0.16076,-0.035 -0.19728,-0.0684 -0.35277,-0.11632 -0.40634,-0.1252 0.008,0.0111 -0.35276,-0.0748 -0.0463,-0.011 -0.0894,-0.0327 -0.1351,-0.0457 -0.14664,-0.0417 -0.29811,-0.0733 -0.44659,-0.10801 -0.0413,-0.01 -0.0826,-0.0194 -0.12384,-0.0291 -0.0438,-0.0125 -0.087,-0.027 -0.13135,-0.0374 -0.13052,-0.0306 -0.26246,-0.0445 -0.39405,-0.0665 -0.15637,-0.0261 -0.0143,-0.023 -0.1989,-0.0291 -0.0914,-0.003 -0.20384,-0.01 -0.29648,0 -0.0279,0.003 -0.0546,0.0136 -0.0826,0.0166 -0.0236,0.003 -0.0479,-0.004 -0.0713,0 -0.0646,0.0113 -0.23427,0.075 -0.28896,0.11632 -0.0141,0.0106 -0.0232,0.0271 -0.0375,0.0374 -0.0464,0.0334 -0.11775,0.0231 -0.16888,0.0415 -0.0399,0.0144 -0.12453,0.047 -0.1351,0.0997 -10e-4,0.005 -0.0146,0.0957 -0.015,0.0956 -0.0815,-0.0415 -0.15512,-0.0969 -0.23268,-0.1454 z"
       id="path3" />
    <path
       style="fill:none;stroke:#000000;stroke-width:0.264583px;stroke-linecap:butt;stroke-linejoin:miter;stroke-opacity:1"
       d="m 98.339199,136.1875 c 0.0125,-0.14539 0.005,-0.29401 0.0375,-0.43619 0.0343,-0.14819 0.20843,-0.38411 0.31148,-0.48188 0.0765,-0.0726 0.16783,-0.12789 0.25519,-0.18694 0.14921,-0.10085 0.2974,-0.16608 0.47286,-0.22017 0.0942,-0.029 0.1937,-0.0372 0.28897,-0.0623 0.0676,-0.0178 0.13083,-0.0506 0.1989,-0.0665 0.206001,-0.0481 0.200381,-0.0167 0.401551,-0.0374 0.0581,-0.006 0.1147,-0.0221 0.17263,-0.0291 0.20033,-0.0241 0.40669,-0.0392 0.60796,-0.054 0.0662,-0.005 0.1326,-0.006 0.1989,-0.008 0.0676,-0.008 0.13482,-0.0194 0.20265,-0.0249 0.0686,-0.006 0.13801,-2.7e-4 0.2064,-0.008 0.13455,-0.0156 0.2677,-0.0416 0.40156,-0.0623 0.0625,-0.01 0.12611,-0.0142 0.18764,-0.0291 0.0652,-0.0157 0.12653,-0.0452 0.19139,-0.0623 0.12781,-0.0338 0.26004,-0.048 0.3903,-0.0706 0.0524,-0.009 0.28355,-0.0505 0.36027,-0.0582 0.0499,-0.005 0.10023,-0.004 0.15011,-0.008 0.21948,-0.0209 0.27065,-0.0435 0.46911,-0.0374 0.20264,0.006 0.39785,0.0559 0.60045,0.0582 0.15661,-0.007 0.19594,-0.012 0.35277,-0.008 0.1264,0.003 0.19964,0.0113 0.32274,0.0166 0.0789,0.003 0.18702,10e-4 0.26646,0.0166 0.0447,0.009 0.0863,0.0312 0.13134,0.0374 0.0313,0.004 0.26697,0.0116 0.31524,0.0125 0.0475,7.9e-4 0.0958,-0.008 0.14261,0 0.036,0.006 0.0667,0.0299 0.10133,0.0415 0.0452,0.0152 0.19586,0.05 0.25144,0.0831 0.0744,0.0444 0.13438,0.10975 0.2064,0.15786 0.0362,0.0242 0.0751,0.0443 0.11259,0.0665 0.0375,0.0319 0.0731,0.0662 0.11258,0.0956 0.037,0.0275 0.0803,0.0461 0.11634,0.0748 0.0648,0.0516 0.23714,0.21447 0.28147,0.28248 0.0328,0.0503 0.05,0.1093 0.0788,0.16202 0.0114,0.0209 0.0303,0.037 0.0413,0.0582 0.19106,0.36817 0.24621,0.86563 0.1426,1.26702 -0.0384,0.14894 -0.1234,0.26662 -0.20265,0.39465 -0.0189,0.0305 -0.11671,0.21553 -0.14636,0.2534 -0.0223,0.0285 -0.0558,0.0468 -0.0788,0.0748 -0.092,0.11197 -0.12003,0.19311 -0.23268,0.2991 -0.0989,0.093 -0.0889,0.0526 -0.1989,0.12047 -0.11495,0.071 -0.0623,0.0758 -0.19139,0.10386 -0.0677,0.0147 -0.13728,0.02 -0.20641,0.0249 -0.0399,0.003 -0.0804,-0.005 -0.12009,0 -0.10288,0.0132 -0.20203,0.0474 -0.30398,0.0665 -0.13673,0.0256 -0.27704,0.0414 -0.41281,0.0706 -0.0445,0.01 -0.0867,0.0283 -0.13135,0.0374 -0.16222,0.0331 -0.32533,0.0424 -0.48787,0.0789 -0.0842,0.0189 -0.16626,0.0482 -0.25144,0.0623 -0.0655,0.0109 -0.13322,0.002 -0.1989,0.0125 -0.0624,0.01 -0.12231,0.0316 -0.18389,0.0457 -0.0586,0.0134 -0.17853,0.0171 -0.21391,0.0208 -0.0539,0.006 -0.10715,0.0216 -0.16137,0.0208 -0.0324,-5.3e-4 -0.0618,-0.0203 -0.0938,-0.0249 -0.072,-0.0103 -0.14556,-0.007 -0.21767,-0.0166 -0.0463,-0.006 -0.16747,-0.0291 -0.21391,-0.0291 -0.05,0.004 -0.10007,0.008 -0.15011,0.0125 -0.0288,0.0111 -0.0557,0.0301 -0.0863,0.0332 -0.048,0.005 -0.0944,-0.0249 -0.14261,-0.0249 -0.0649,0 -0.16112,0.0278 -0.22517,0.008 -0.027,-0.008 -0.046,-0.0332 -0.0713,-0.0457 -0.0571,-0.0283 -0.13704,-0.007 -0.1989,-0.0249 -0.0286,-0.008 -0.0538,-0.0261 -0.0826,-0.0332 -0.033,-0.008 -0.0687,-0.003 -0.10133,-0.0125 -0.042,-0.0126 -0.0781,-0.0411 -0.12009,-0.054 -0.0264,-0.008 -0.0568,0.002 -0.0826,-0.008 -0.0359,-0.0141 -0.0607,-0.0508 -0.0976,-0.0623 -0.0322,-0.0101 -0.0678,0.004 -0.10133,0 -0.0309,-0.004 -0.0596,-0.0185 -0.0901,-0.0249 -0.0719,-0.015 -0.14612,-0.0169 -0.21765,-0.0332 -0.28132,-0.0644 0.0547,-0.008 -0.21016,-0.0498 -0.14605,-0.0231 -0.29572,-0.012 -0.44284,-0.0166 -0.13508,-0.004 -0.27016,-0.0198 -0.4053,-0.0249 -0.23836,-0.009 0.0135,-0.002 -0.22517,-0.0332 -0.0372,-0.005 -0.0757,0.003 -0.11259,-0.004 -0.0377,-0.007 -0.0717,-0.0276 -0.108831,-0.0374 -0.0841,-0.0221 -0.18702,-0.0363 -0.27396,-0.0457 -0.0249,-0.003 -0.0503,0.004 -0.0751,0 -0.034,-0.005 -0.10804,-0.0814 -0.11258,-0.0831 -0.0408,-0.0154 -0.1326,0.003 -0.18014,-0.004 -0.0257,-0.004 -0.0497,-0.0153 -0.0751,-0.0208 -0.026,-0.006 -0.0534,-0.005 -0.0788,-0.0125 -0.049,-0.0153 -0.0907,-0.0487 -0.13885,-0.0665 -0.0206,-0.008 -0.0446,-0.006 -0.0638,-0.0166 -0.0586,-0.0325 -0.0829,-0.11617 -0.1276,-0.16201 -0.0244,-0.025 -0.0763,-0.0478 -0.0976,-0.0789 -0.0212,-0.031 -0.0309,-0.069 -0.0525,-0.0997 -0.0102,-0.0145 -0.0303,-0.0194 -0.0413,-0.0332 -0.0906,-0.11395 -0.17746,-0.30508 -0.19889,-0.44449 -0.015,-0.0974 0.0391,-0.2429 0.0263,-0.31157 -0.0176,-0.0941 -0.0475,-0.18555 -0.0713,-0.27833 z"
       id="path5" />
    <path
       style="fill:none;stroke:#000000;stroke-width:0.264583px;stroke-linecap:butt;stroke-linejoin:miter;stroke-opacity:1"
       d="m 93.201662,132.34726 c 0.12134,0.0388 0.24011,0.0868 0.36403,0.11632 0.0921,0.0219 0.18779,0.0239 0.28146,0.0374 0.33352,0.0481 0.66849,0.0813 1.00201,0.12878 0.70561,0.10048 0.0612,0.0352 0.66425,0.0623 0.19012,0.009 0.38359,0.0414 0.57419,0.0374 0.0716,-0.002 0.14276,-0.0124 0.21391,-0.0208 0.31754,-0.0373 0.63272,-0.0709 0.94946,-0.12048 0.36164,-0.0566 0.11956,-0.0443 0.49538,-0.0665 0.18185,-0.0107 0.37028,-0.0174 0.55166,-0.0208 0.0952,-0.002 0.19031,0.0194 0.28522,0.0125 0.0508,-0.004 0.10026,-0.0185 0.15011,-0.0291 0.29793,-0.0634 -0.009,-0.003 0.27772,-0.0665 0.0611,-0.0135 0.12462,-0.0174 0.18388,-0.0374 0.0444,-0.015 0.0833,-0.0429 0.12385,-0.0665 0.189584,-0.11018 0.414744,-0.22231 0.566684,-0.39049 0.0386,-0.0427 0.0665,-0.0944 0.10508,-0.13709 0.0305,-0.0337 0.0676,-0.0609 0.101324,-0.0914 0.025,-0.0415 0.0456,-0.0861 0.0751,-0.12462 0.0186,-0.0243 0.0535,-0.0351 0.0676,-0.0623 0.0224,-0.0433 0.0218,-0.0951 0.0375,-0.14124 0.0131,-0.0386 0.0395,-0.0725 0.0488,-0.11217 0.01,-0.0419 0.003,-0.086 0.008,-0.12878 0.0291,-0.26377 0.006,-0.52948 -0.0713,-0.78514 -0.0228,-0.0755 -0.0651,-0.22111 -0.10133,-0.29494 -0.0867,-0.17642 -0.0264,-0.0375 -0.15387,-0.15371 -0.393884,-0.35906 0.20815,0.12566 -0.217664,-0.24094 -0.0299,-0.0257 -0.24127,-0.16373 -0.26645,-0.17448 -0.182319,-0.0778 -0.11129,-0.0221 -0.236429,-0.0498 -0.15196,-0.0336 -0.25954,-0.0741 -0.41281,-0.0997 -0.35228,-0.0589 -0.69911,-0.10409 -1.05455,-0.12462 -0.59712,-0.0345 0.16917,0.0151 -0.42783,-0.008 -0.20522,-0.008 -0.4173,-0.0615 -0.62297,-0.0457 -0.40507,0.0311 0.0684,0.0561 -0.3415,0.0374 -0.29891,-0.0136 -0.0845,-0.0243 -0.3903,-0.0208 -0.23686,0.003 -0.25889,0.035 -0.56668,0.0457 -0.13403,0.005 -0.26744,-0.0249 -0.40155,-0.0249 -0.12266,0 -0.24535,0.005 -0.36778,0.0125 -0.0703,0.004 -0.1398,0.0186 -0.21016,0.0208 -0.0638,0.002 -0.12759,-0.0111 -0.19139,-0.008 -0.18731,0.008 -0.21299,0.0365 -0.3978,0.0748 -1.05348,0.21813 0.13722,-0.0323 -0.48412,0.0789 -0.11563,0.0207 -0.22883,0.0551 -0.34526,0.0706 -0.24924,0.0333 -0.12435,-0.0425 -0.38279,0.0208 -0.0889,0.0218 -0.17001,0.0697 -0.25895,0.0914 -0.0377,0.009 -0.0786,-0.009 -0.11633,0 -0.0405,0.01 -0.0735,0.0396 -0.11259,0.054 -0.0215,0.008 -0.048,5.3e-4 -0.0675,0.0125 -0.0834,0.0513 -0.15315,0.12293 -0.23643,0.17447 -0.034,0.0211 -0.0792,0.0195 -0.11258,0.0416 -0.14703,0.0971 -0.29364,0.3473 -0.34151,0.51511 -0.0405,0.14207 -0.0307,0.18448 -0.0413,0.34065 -0.0103,0.15158 -0.0272,0.30913 0.0225,0.45696 0.0488,0.14512 0.18682,0.20428 0.27771,0.33233 0.0813,0.11458 -0.0194,0.0572 0.13135,0.17863 0.10249,0.0825 0.12324,0.0536 0.24394,0.0956 0.14853,0.0517 0.16188,0.0895 0.32274,0.15786 0.0419,0.0178 0.0888,0.0212 0.13135,0.0374 0.0778,0.0296 0.15239,0.067 0.22892,0.0997 0.38072,0.16265 -0.46562,-0.16358 0.44659,0.30325 0.12619,0.0646 0.2716,0.0817 0.40531,0.12878 0.004,0.002 0.0246,0.042 0.0263,0.0374 0.0244,-0.0675 -0.005,-0.0118 -0.008,-0.008"
       id="path7-5" />
  </g>
</svg>
